<svg xmlns="http://www.w3.org/2000/svg" xmlns:osb="http://www.openswatchbook.org/uri/2009/osb" viewBox="0 0 160 90"><defs><linearGradient id="b" gradientTransform="matrix(.00006 0 0 .00065 253.32 76.16)" osb:paint="solid"><stop offset="0" stop-color="#f0f0f0"/></linearGradient><linearGradient id="a"><stop offset="0"/><stop offset="1" stop-opacity="0"/></linearGradient></defs><g fill="url(#b)" transform="translate(0 -69.32)"><path d="M53.846 137.928c0-.035-.032-.035-.042-.035-.032 0-.04.014-.046.039-.115.375-.354.459-.466.459-.137 0-.193-.112-.193-.232 0-.076.021-.154.06-.308l.119-.48c.021-.091.102-.414.347-.414.018 0 .101 0 .175.046a.204.204 0 0 0-.168.19c0 .055.038.122.133.122.077 0 .189-.063.189-.203 0-.183-.207-.232-.326-.232-.203 0-.325.186-.367.267a.389.389 0 0 0-.38-.267c-.363 0-.564.453-.564.54 0 .035.043.035.043.035.028 0 .039-.007.045-.038.12-.372.35-.46.47-.46.066 0 .19.032.19.235 0 .11-.06.344-.19.834-.056.217-.179.365-.333.365-.021 0-.101 0-.176-.046.088-.017.166-.091.166-.19 0-.094-.078-.122-.13-.122a.199.199 0 0 0-.193.203c0 .162.175.232.33.232.231 0 .357-.245.368-.266.042.13.168.266.378.266.361 0 .56-.452.56-.54M55.278 139.27c0-.01 0-.017-.06-.077-.437-.441-.55-1.104-.55-1.64 0-.61.134-1.22.565-1.658.045-.042.045-.049.045-.06 0-.023-.014-.034-.035-.034-.035 0-.35.238-.557.683-.179.386-.22.775-.22 1.07 0 .272.038.697.23 1.093.21.43.512.658.547.658.021 0 .035-.01.035-.035M56.594 137.928c0-.035-.028-.035-.042-.035-.03 0-.035.01-.052.05-.151.364-.337.448-.456.448-.073 0-.108-.046-.108-.161 0-.085.007-.109.02-.169l.26-1.033h.33c.07 0 .105 0 .105-.07 0-.039-.036-.039-.099-.039h-.307c.125-.498.143-.568.143-.589 0-.06-.042-.095-.102-.095-.01 0-.108.004-.14.127l-.136.557h-.33c-.07 0-.105 0-.105.067 0 .042.028.042.098.042h.308c-.252.995-.266 1.055-.266 1.117 0 .19.133.323.322.323.358 0 .557-.512.557-.54M57.777 137.553c0-.273-.039-.697-.231-1.093-.21-.431-.512-.659-.547-.659-.021 0-.035.014-.035.035 0 .01 0 .017.066.08.344.348.544.905.544 1.637 0 .6-.13 1.216-.565 1.658-.045.042-.045.05-.045.06 0 .02.014.034.035.034.035 0 .35-.238.557-.683.179-.386.22-.774.22-1.069M61.62 137.213c0-.07-.068-.07-.117-.07h-2.099c-.049 0-.115 0-.115.07s.066.07.119.07H61.5c.052 0 .12 0 .12-.07zm0 .68c0-.07-.068-.07-.12-.07h-2.092c-.053 0-.12 0-.12.07s.067.07.116.07h2.1c.048 0 .115 0 .115-.07M64.57 137.928c0-.035-.031-.035-.042-.035-.031 0-.039.014-.046.039-.115.375-.354.459-.465.459-.137 0-.193-.112-.193-.232 0-.076.02-.154.06-.308l.118-.48c.022-.091.102-.414.348-.414.017 0 .1 0 .175.046a.204.204 0 0 0-.168.19c0 .055.038.122.132.122.078 0 .19-.063.19-.203 0-.183-.207-.232-.326-.232-.204 0-.326.186-.368.267a.389.389 0 0 0-.379-.267c-.364 0-.564.453-.564.54 0 .035.043.035.043.035.027 0 .038-.007.045-.038.12-.372.35-.46.47-.46.066 0 .189.032.189.235 0 .11-.06.344-.19.834-.056.217-.178.365-.333.365-.02 0-.101 0-.175-.046.088-.017.165-.091.165-.19 0-.094-.077-.122-.13-.122a.199.199 0 0 0-.192.203c0 .162.175.232.329.232.231 0 .357-.245.368-.266.042.13.168.266.379.266.36 0 .56-.452.56-.54M66.016 138.923v-.09h-.094c-.248 0-.248-.031-.248-.113v-1.374c0-.067-.005-.07-.075-.07-.159.157-.384.159-.486.159v.09c.06 0 .223 0 .36-.07v1.265c0 .082 0 .114-.248.114h-.094v.09l.441-.01.444.01M67.844 137.553a.187.187 0 0 0-.186-.185.186.186 0 0 0-.185.185c0 .102.083.186.185.186a.187.187 0 0 0 .186-.186"/></g></svg>