<svg xmlns="http://www.w3.org/2000/svg" xmlns:osb="http://www.openswatchbook.org/uri/2009/osb" viewBox="0 0 160 90"><defs><linearGradient id="b" gradientTransform="matrix(.00006 0 0 .00065 253.32 76.16)" osb:paint="solid"><stop offset="0" stop-color="#f0f0f0"/></linearGradient><linearGradient id="a"><stop offset="0"/><stop offset="1" stop-opacity="0"/></linearGradient></defs><g fill="url(#b)" transform="translate(0 -69.32)"><path d="M89.111 147.06c0-.069-.065-.069-.107-.069h-.78c-.073 0-.153.005-.281.124a.783.783 0 0 0-.164.216c0 .03.032.03.042.03.027 0 .03-.005.045-.027.126-.174.278-.174.335-.174h.22l-.245.794c-.013.04-.013.042-.013.056 0 .067.062.08.082.08.095 0 .112-.09.12-.124l.153-.806h.461c.028 0 .132 0 .132-.1M90.185 148.648c0-.015-.007-.02-.025-.037-.33-.298-.451-.72-.451-1.171 0-.67.255-.997.459-1.18.01-.01.017-.018.017-.03 0-.03-.03-.03-.05-.03-.471.332-.595.858-.595 1.238 0 .35.104.892.595 1.24.02 0 .05 0 .05-.03M91.276 147.706c0-.033-.032-.033-.04-.033-.03 0-.032.005-.052.047-.07.157-.195.295-.332.295-.052 0-.087-.031-.087-.12 0-.026.01-.078.015-.103l.179-.712h.253c.047 0 .08 0 .08-.054 0-.035-.033-.035-.075-.035h-.236l.092-.367c.002-.012.007-.025.007-.034 0-.045-.035-.08-.084-.08-.062 0-.1.042-.116.107-.018.062.014-.057-.095.374h-.253c-.047 0-.08 0-.08.055 0 .035.03.035.075.035h.235l-.146.585c-.014.062-.037.151-.037.184 0 .146.124.235.266.235.275 0 .431-.347.431-.38M92.225 147.44c0-.35-.104-.893-.595-1.24-.017 0-.047 0-.047.03 0 .012.007.02.023.037.213.196.45.53.45 1.17 0 .519-.16.911-.429 1.154-.042.042-.044.045-.044.057 0 .013.007.03.032.03.03 0 .265-.164.43-.474a1.65 1.65 0 0 0 .18-.764"/></g></svg>