<svg xmlns="http://www.w3.org/2000/svg" xmlns:osb="http://www.openswatchbook.org/uri/2009/osb" viewBox="0 0 160 90"><defs><linearGradient id="b" gradientTransform="matrix(.10292 0 0 .07773 39.12 3.878)" osb:paint="solid"><stop offset="0" stop-color="#ac88e6"/></linearGradient><linearGradient id="a"><stop offset="0"/><stop offset="1" stop-opacity="0"/></linearGradient></defs><g fill="url(#b)" stroke-width=".812" transform="matrix(.04345 0 0 -.04345 -9.187 383.875)"><path d="M2187.27 7076.2c0 1-.89 1-1.19 1-.89 0-1.1-.4-1.3-1.09-3.26-10.63-10.03-13.02-13.2-13.02-3.88 0-5.47 3.18-5.47 6.57 0 2.17.59 4.36 1.69 8.73l3.37 13.61c.61 2.58 2.89 11.72 9.85 11.72.5 0 2.87 0 4.96-1.28-2.78-.5-4.76-2.99-4.76-5.38 0-1.58 1.08-3.47 3.76-3.47 2.19 0 5.36 1.79 5.36 5.75 0 5.18-5.86 6.57-9.23 6.57-5.77 0-9.23-5.27-10.42-7.55-2.49 6.55-7.86 7.55-10.74 7.55-10.32 0-16-12.82-16-15.3 0-1 1.21-1 1.21-1 .79 0 1.09.2 1.28 1.09 3.39 10.53 9.94 13.02 13.31 13.02 1.89 0 5.38-.89 5.38-6.66 0-3.08-1.69-9.73-5.38-23.64-1.58-6.15-5.06-10.33-9.44-10.33-.59 0-2.87 0-4.97 1.3 2.49.49 4.68 2.58 4.68 5.36 0 2.69-2.19 3.47-3.68 3.47-2.98 0-5.46-2.58-5.46-5.75 0-4.58 4.96-6.56 9.34-6.56 6.56 0 10.12 6.95 10.44 7.54 1.18-3.67 4.76-7.54 10.72-7.54 10.23 0 15.89 12.81 15.89 15.29M2227.88 7038.16c0 .29 0 .5-1.69 2.18-12.41 12.52-15.6 31.3-15.6 46.49 0 17.3 3.79 34.58 16 47 1.29 1.19 1.29 1.39 1.29 1.69 0 .68-.4.98-.99.98-1 0-9.94-6.75-15.8-19.37-5.06-10.93-6.26-21.96-6.26-30.3 0-7.74 1.09-19.77 6.56-30.99 5.95-12.21 14.5-18.67 15.5-18.67.59 0 .99.3.99.99M2265.19 7076.2c0 1-.8 1-1.19 1-.89 0-1-.29-1.48-1.39-4.29-10.33-9.55-12.72-12.93-12.72-2.07 0-3.07 1.3-3.07 4.57 0 2.39.2 3.07.59 4.78l7.36 29.29h9.33c1.98 0 2.98 0 2.98 1.99 0 1.09-1 1.09-2.78 1.09h-8.73c3.56 14.11 4.06 16.1 4.06 16.69 0 1.69-1.19 2.69-2.88 2.69-.29 0-3.07-.11-3.97-3.58l-3.87-15.8h-9.34c-1.99 0-2.99 0-2.99-1.89 0-1.19.8-1.19 2.78-1.19h8.75c-7.15-28.21-7.54-29.9-7.54-31.68 0-5.36 3.76-9.14 9.12-9.14 10.14 0 15.8 14.5 15.8 15.29M2298.7 7086.83c0 7.75-1.09 19.78-6.54 31-5.97 12.22-14.5 18.67-15.5 18.67-.6 0-1-.39-1-.98 0-.3 0-.5 1.89-2.3 9.73-9.83 15.4-25.63 15.4-46.39 0-16.99-3.68-34.47-16-46.99-1.29-1.18-1.29-1.39-1.29-1.68 0-.6.4-.99 1-.99 1 0 9.93 6.75 15.79 19.36 5.07 10.94 6.25 21.95 6.25 30.3M2407.63 7096.47c0 1.98-1.9 1.98-3.29 1.98h-59.5c-1.39 0-3.28 0-3.28-1.98 0-1.99 1.89-1.99 3.38-1.99h59.31c1.48 0 3.38 0 3.38 1.99zm0-19.27c0 1.99-1.9 1.99-3.38 1.99h-59.31c-1.49 0-3.38 0-3.38-1.99 0-1.98 1.89-1.98 3.28-1.98h59.5c1.39 0 3.29 0 3.29 1.98M2491.27 7076.2c0 1-.89 1-1.19 1-.89 0-1.1-.4-1.3-1.09-3.26-10.63-10.03-13.02-13.2-13.02-3.88 0-5.47 3.18-5.47 6.57 0 2.17.59 4.36 1.69 8.73l3.37 13.61c.61 2.58 2.89 11.72 9.85 11.72.5 0 2.87 0 4.96-1.28-2.78-.5-4.76-2.99-4.76-5.38 0-1.58 1.08-3.47 3.76-3.47 2.19 0 5.36 1.79 5.36 5.75 0 5.18-5.86 6.57-9.23 6.57-5.77 0-9.23-5.27-10.42-7.55-2.49 6.55-7.86 7.55-10.74 7.55-10.32 0-16-12.82-16-15.3 0-1 1.21-1 1.21-1 .79 0 1.09.2 1.28 1.09 3.39 10.53 9.94 13.02 13.31 13.02 1.89 0 5.38-.89 5.38-6.66 0-3.08-1.69-9.73-5.38-23.64-1.58-6.15-5.06-10.33-9.44-10.33-.59 0-2.87 0-4.97 1.3 2.49.49 4.68 2.58 4.68 5.36 0 2.69-2.19 3.47-3.68 3.47-2.98 0-5.46-2.58-5.46-5.75 0-4.58 4.96-6.56 9.34-6.56 6.56 0 10.12 6.95 10.44 7.54 1.18-3.67 4.76-7.54 10.72-7.54 10.23 0 15.89 12.81 15.89 15.29M2532.25 7047v2.53h-2.67c-7.03 0-7.03.91-7.03 3.24v38.93c0 1.91-.14 1.97-2.11 1.97-4.5-4.42-10.89-4.48-13.78-4.48v-2.53c1.68 0 6.32 0 10.2 1.97v-35.86c0-2.33 0-3.24-7.03-3.24h-2.67V7047l12.51.28 12.58-.28M2584.08 7086.83c0 2.89-2.39 5.26-5.27 5.26-2.89 0-5.26-2.37-5.26-5.26 0-2.88 2.37-5.27 5.26-5.27 2.88 0 5.27 2.39 5.27 5.27M2680.66 6940.34c0 1.8-.1 1.89-.49 2.1-4.28 2.67-17.29 10.53-19.97 27.81-.4 2.58-.4 2.78-.4 4.06v76.21c0 10.92-7.55 27.7-24.83 36.45 10.72 5.76 23.55 17.39 24.73 35.95l.1.61v68.83c0 8.16 0 9.94.79 13.72 1.8 7.94 6.57 17.78 19.18 25.22.79.5.89.61.89 2.39 0 2.19-.1 2.28-2.28 2.28-1.79 0-1.99 0-4.68-1.58-22.25-12.62-23.53-31.09-23.53-34.58v-70.62c0-7.16 0-15.21-5.17-24.35-4.56-8.14-9.94-12.21-14.2-15.09-1.39-.89-1.5-1-1.5-2.69 0-1.78.11-1.87.9-2.37 8.44-5.56 17.49-14.41 19.68-30.6.29-2.18.29-2.39.29-3.57v-76.3c0-8.05 4.96-24.74 24.13-34.86 2.29-1.3 2.48-1.3 4.08-1.3 2.18 0 2.28.1 2.28 2.28M2742.78 7160.39v3.08h-9.92v45.2c0 1.99 0 2.58-1.59 2.58-.89 0-1.19 0-1.99-1.19l-30.5-46.59v-3.08h26.42v-8.64c0-3.58-.2-4.67-7.54-4.67h-2.1V7144c4.08.3 9.25.3 13.42.3 4.18 0 9.44 0 13.5-.3v3.08h-2.07c-7.36 0-7.55 1.09-7.55 4.67v8.64zm-16.98 3.08h-24.24l24.24 37.05zM2776.19 7158.2c0 1-.8 1-1.19 1-.89 0-1-.29-1.48-1.39-4.29-10.33-9.55-12.72-12.93-12.72-2.07 0-3.07 1.3-3.07 4.57 0 2.39.2 3.07.59 4.78l7.36 29.29h9.33c1.98 0 2.98 0 2.98 1.99 0 1.09-1 1.09-2.78 1.09h-8.73c3.56 14.11 4.06 16.1 4.06 16.69 0 1.69-1.19 2.69-2.88 2.69-.29 0-3.07-.11-3.97-3.58l-3.87-15.8h-9.34c-1.99 0-2.99 0-2.99-1.89 0-1.19.8-1.19 2.78-1.19h8.75c-7.15-28.21-7.54-29.9-7.54-31.68 0-5.36 3.76-9.14 9.12-9.14 10.14 0 15.8 14.5 15.8 15.29M2816.5 7192.8h-2.39c-.2-1.55-.91-5.71-1.83-6.41-.56-.42-5.97-.42-6.95-.42h-12.94c7.38 6.55 9.84 8.51 14.06 11.81 5.21 4.16 10.05 8.52 10.05 15.19 0 8.51-7.45 13.7-16.45 13.7-8.72 0-14.63-6.11-14.63-12.58 0-3.57 3.03-3.93 3.74-3.93 1.68 0 3.72 1.2 3.72 3.73 0 1.27-.49 3.72-4.15 3.72 2.18 5 6.96 6.55 10.27 6.55 7.03 0 10.69-5.49 10.69-11.19 0-6.11-4.36-10.97-6.61-13.5l-16.95-16.74c-.71-.62-.71-.76-.71-2.73h28.97l2.11 12.8M3432.69 7175.78c0 7.95-.49 15.91-3.97 23.25-4.56 9.53-12.72 11.13-16.89 11.13-5.95 0-13.2-2.58-17.28-11.82-3.17-6.86-3.67-14.61-3.67-22.56 0-7.44.39-16.39 4.46-23.94 4.27-8.04 11.54-10.03 16.39-10.03 5.36 0 12.93 2.1 17.29 11.53 3.18 6.85 3.67 14.6 3.67 22.44zm-8.24 1.2c0-7.45 0-14.2-1.09-20.56-1.48-9.44-7.16-12.42-11.63-12.42-3.87 0-9.73 2.48-11.51 12.02-1.09 5.96-1.09 15.11-1.09 20.96 0 6.36 0 12.91.78 18.29 1.89 11.81 9.34 12.7 11.82 12.7 3.29 0 9.83-1.78 11.72-11.63 1-5.56 1-13.11 1-19.36M3533.94 7151.66c0 1.18-.69 1.48-1.89 2.07l-52.14 24.65 52.25 24.73c.98.39 1.78.8 1.78 2.08 0 1.09-.89 1.98-1.99 1.98-.29 0-.5 0-1.59-.59l-55.23-26.02c-.99-.5-1.88-.9-1.88-2.18 0-1.21.98-1.69 1.88-2.1l55.14-26.01c1.09-.61 1.29-.61 1.68-.61 1.1 0 1.99.9 1.99 2zm0-19.28c0 1.98-1.89 1.98-3.38 1.98h-53.93c-1.4 0-3.38 0-3.38-1.98 0-1.99 1.88-1.99 3.27-1.99h54.14c1.39 0 3.28 0 3.28 1.99M3601.19 7158.2c0 1-.8 1-1.19 1-.89 0-1-.29-1.48-1.39-4.29-10.33-9.55-12.72-12.93-12.72-2.07 0-3.07 1.3-3.07 4.57 0 2.39.2 3.07.59 4.78l7.36 29.29h9.33c1.98 0 2.98 0 2.98 1.99 0 1.09-1 1.09-2.78 1.09h-8.73c3.56 14.11 4.06 16.1 4.06 16.69 0 1.69-1.19 2.69-2.88 2.69-.29 0-3.07-.11-3.97-3.58l-3.87-15.8h-9.34c-1.99 0-2.99 0-2.99-1.89 0-1.19.8-1.19 2.78-1.19h8.75c-7.15-28.21-7.54-29.9-7.54-31.68 0-5.36 3.76-9.14 9.12-9.14 10.14 0 15.8 14.5 15.8 15.29M3702.94 7151.66c0 1.18-.69 1.48-1.89 2.07l-52.14 24.65 52.25 24.73c.98.39 1.78.8 1.78 2.08 0 1.09-.89 1.98-1.99 1.98-.29 0-.5 0-1.59-.59l-55.23-26.02c-.99-.5-1.88-.9-1.88-2.18 0-1.21.98-1.69 1.88-2.1l55.14-26.01c1.09-.61 1.29-.61 1.68-.61 1.1 0 1.99.9 1.99 2zm0-19.28c0 1.98-1.89 1.98-3.38 1.98h-53.93c-1.4 0-3.38 0-3.38-1.98 0-1.99 1.88-1.99 3.27-1.99h54.14c1.39 0 3.28 0 3.28 1.99M3784.25 7183v2.53h-2.67c-7.03 0-7.03.91-7.03 3.24v38.93c0 1.91-.14 1.97-2.11 1.97-4.5-4.42-10.89-4.48-13.78-4.48v-2.53c1.68 0 6.32 0 10.2 1.97v-35.86c0-2.33 0-3.24-7.03-3.24h-2.67V7183l12.51.28 12.58-.28"/><path d="M3750.67 7167.473v3.234h39.71v-3.234z" color="#000" font-family="sans-serif" font-weight="400" overflow="visible" white-space="normal" style="line-height:normal;font-variant-ligatures:normal;font-variant-position:normal;font-variant-caps:normal;font-variant-numeric:normal;font-variant-alternates:normal;font-feature-settings:normal;text-indent:0;text-align:start;text-decoration-line:none;text-decoration-style:solid;text-decoration-color:#000;text-transform:none;text-orientation:mixed;shape-padding:0;isolation:auto;mix-blend-mode:normal"/><path d="M3786.5 7122.8h-2.39c-.2-1.55-.91-5.71-1.83-6.41-.56-.42-5.97-.42-6.95-.42h-12.94c7.38 6.55 9.84 8.51 14.06 11.81 5.21 4.16 10.05 8.52 10.05 15.19 0 8.51-7.45 13.7-16.45 13.7-8.72 0-14.63-6.11-14.63-12.58 0-3.57 3.03-3.93 3.74-3.93 1.68 0 3.72 1.2 3.72 3.73 0 1.27-.49 3.72-4.15 3.72 2.18 5 6.96 6.55 10.27 6.55 7.03 0 10.69-5.49 10.69-11.19 0-6.11-4.36-10.97-6.61-13.5l-16.95-16.74c-.71-.62-.71-.76-.71-2.73h28.97l2.11 12.8M2764.94 6996.83c0 2-1.89 2-3.28 2h-54.14c-1.39 0-3.27 0-3.27-2 0-1.99 1.88-1.99 3.27-1.99h54.14c1.39 0 3.28 0 3.28 1.99M2819.78 6988.39v3.08h-9.92v45.2c0 1.99 0 2.58-1.59 2.58-.89 0-1.19 0-1.99-1.19l-30.5-46.59v-3.08h26.42v-8.64c0-3.58-.2-4.67-7.54-4.67h-2.1V6972c4.08.3 9.25.3 13.42.3 4.18 0 9.44 0 13.5-.3v3.08h-2.07c-7.36 0-7.55 1.09-7.55 4.67v8.64zm-16.98 3.08h-24.24l24.24 37.05zM2854.19 6986.2c0 1-.8 1-1.19 1-.89 0-1-.29-1.48-1.39-4.29-10.33-9.55-12.72-12.93-12.72-2.07 0-3.07 1.3-3.07 4.57 0 2.39.2 3.07.59 4.78l7.36 29.29h9.33c1.98 0 2.98 0 2.98 1.99 0 1.09-1 1.09-2.78 1.09h-8.73c3.56 14.11 4.06 16.1 4.06 16.69 0 1.69-1.19 2.69-2.88 2.69-.29 0-3.07-.11-3.97-3.58l-3.87-15.8h-9.34c-1.99 0-2.99 0-2.99-1.89 0-1.19.8-1.19 2.78-1.19h8.75c-7.15-28.21-7.54-29.9-7.54-31.68 0-5.36 3.76-9.14 9.12-9.14 10.14 0 15.8 14.5 15.8 15.29M2894.5 7021.8h-2.39c-.2-1.55-.91-5.71-1.83-6.41-.56-.42-5.97-.42-6.95-.42h-12.94c7.38 6.55 9.84 8.51 14.06 11.81 5.21 4.16 10.05 8.52 10.05 15.19 0 8.51-7.45 13.7-16.45 13.7-8.72 0-14.63-6.11-14.63-12.58 0-3.57 3.03-3.93 3.74-3.93 1.68 0 3.72 1.2 3.72 3.73 0 1.27-.49 3.72-4.15 3.72 2.18 5 6.96 6.55 10.27 6.55 7.03 0 10.69-5.49 10.69-11.19 0-6.11-4.36-10.97-6.61-13.5l-16.95-16.74c-.71-.62-.71-.76-.71-2.73h28.97l2.11 12.8M2997.63 6996.83c0 2-1.9 2-3.29 2h-27.71v27.81c0 1.39 0 3.27-1.99 3.27-1.98 0-1.98-1.88-1.98-3.27v-27.81h-27.82c-1.39 0-3.28 0-3.28-2 0-1.99 1.89-1.99 3.28-1.99h27.82v-27.81c0-1.39 0-3.28 1.98-3.28 1.99 0 1.99 1.89 1.99 3.28v27.81h27.71c1.39 0 3.29 0 3.29 1.99M3070.39 6988.69c0 3.58-1.09 8.04-4.86 12.22-1.89 2.09-3.48 3.07-9.84 7.04 7.15 3.69 12.03 8.85 12.03 15.41 0 9.14-8.84 14.8-17.89 14.8-9.92 0-17.97-7.35-17.97-16.6 0-1.78.19-6.25 4.36-10.92 1.09-1.19 4.78-3.67 7.26-5.36-5.76-2.89-14.31-8.45-14.31-18.28 0-10.53 10.13-17.19 20.56-17.19 11.22 0 20.66 8.25 20.66 18.88zm-7.05 34.67c0-5.67-3.87-10.44-9.82-13.91l-12.33 7.94c-4.56 2.99-4.97 6.36-4.97 8.05 0 6.06 6.47 10.23 13.51 10.23 7.25 0 13.61-5.15 13.61-12.31zm2.1-38.25c0-7.34-7.46-12.52-15.61-12.52-8.53 0-15.69 6.16-15.69 14.41 0 5.77 3.17 12.13 11.63 16.78l12.21-7.73c2.79-1.89 7.46-4.88 7.46-10.94M3106.19 6986.2c0 1-.8 1-1.19 1-.89 0-1-.29-1.48-1.39-4.29-10.33-9.55-12.72-12.93-12.72-2.07 0-3.07 1.3-3.07 4.57 0 2.39.2 3.07.59 4.78l7.36 29.29h9.33c1.98 0 2.98 0 2.98 1.99 0 1.09-1 1.09-2.78 1.09h-8.73c3.56 14.11 4.06 16.1 4.06 16.69 0 1.69-1.19 2.69-2.88 2.69-.29 0-3.07-.11-3.97-3.58l-3.87-15.8h-9.34c-1.99 0-2.99 0-2.99-1.89 0-1.19.8-1.19 2.78-1.19h8.75c-7.15-28.21-7.54-29.9-7.54-31.68 0-5.36 3.76-9.14 9.12-9.14 10.14 0 15.8 14.5 15.8 15.29M3201.94 6996.83c0 2-1.89 2-3.28 2h-54.14c-1.39 0-3.27 0-3.27-2 0-1.99 1.88-1.99 3.27-1.99h54.14c1.39 0 3.28 0 3.28 1.99M3277.61 6989.28h-2.48c-.5-2.98-1.21-7.34-2.19-8.84-.71-.78-7.25-.78-9.44-.78h-17.89l10.53 10.22c15.5 13.71 21.47 19.07 21.47 29.01 0 11.33-8.95 19.27-21.06 19.27-11.24 0-18.58-9.14-18.58-17.99 0-5.56 4.97-5.56 5.26-5.56 1.69 0 5.16 1.2 5.16 5.27 0 2.59-1.78 5.17-5.26 5.17-.79 0-.99 0-1.29-.1 2.29 6.46 7.64 10.13 13.41 10.13 9.05 0 13.31-8.05 13.31-16.19 0-7.95-4.97-15.8-10.43-21.95l-19.07-21.27c-1.09-1.09-1.09-1.28-1.09-3.67h36.86l2.78 17.28M3432.25 7012v2.53h-2.67c-7.03 0-7.03.91-7.03 3.24v38.93c0 1.91-.14 1.97-2.11 1.97-4.5-4.42-10.89-4.48-13.78-4.48v-2.53c1.68 0 6.32 0 10.2 1.97v-35.86c0-2.33 0-3.24-7.03-3.24h-2.67V7012l12.51.28 12.58-.28"/><path d="M3399.21 6995.662v3.236h39.71v-3.236z" color="#000" font-family="sans-serif" font-weight="400" overflow="visible" white-space="normal" style="line-height:normal;font-variant-ligatures:normal;font-variant-position:normal;font-variant-caps:normal;font-variant-numeric:normal;font-variant-alternates:normal;font-feature-settings:normal;text-indent:0;text-align:start;text-decoration-line:none;text-decoration-style:solid;text-decoration-color:#000;text-transform:none;text-orientation:mixed;shape-padding:0;isolation:auto;mix-blend-mode:normal"/><path d="M3434.5 6950.8h-2.39c-.2-1.55-.91-5.71-1.83-6.41-.56-.42-5.97-.42-6.95-.42h-12.94c7.38 6.55 9.84 8.51 14.06 11.81 5.21 4.16 10.05 8.52 10.05 15.19 0 8.51-7.45 13.7-16.45 13.7-8.72 0-14.63-6.11-14.63-12.58 0-3.57 3.03-3.93 3.74-3.93 1.68 0 3.72 1.2 3.72 3.73 0 1.27-.49 3.72-4.15 3.72 2.18 5 6.96 6.55 10.27 6.55 7.03 0 10.69-5.49 10.69-11.19 0-6.11-4.36-10.97-6.61-13.5l-16.95-16.74c-.71-.62-.71-.76-.71-2.73h28.97l2.11 12.8M3547.94 6979.66c0 1.18-.69 1.48-1.89 2.07l-52.14 24.65 52.25 24.73c.98.39 1.78.8 1.78 2.08 0 1.09-.89 1.98-1.99 1.98-.29 0-.5 0-1.59-.59l-55.23-26.02c-.99-.5-1.88-.9-1.88-2.18 0-1.21.98-1.69 1.88-2.1l55.14-26.01c1.09-.61 1.29-.61 1.68-.61 1.1 0 1.99.9 1.99 2zm0-19.28c0 1.98-1.89 1.98-3.38 1.98h-53.93c-1.4 0-3.38 0-3.38-1.98 0-1.99 1.88-1.99 3.27-1.99h54.14c1.39 0 3.28 0 3.28 1.99M3615.19 6986.2c0 1-.8 1-1.19 1-.89 0-1-.29-1.48-1.39-4.29-10.33-9.55-12.72-12.93-12.72-2.07 0-3.07 1.3-3.07 4.57 0 2.39.2 3.07.59 4.78l7.36 29.29h9.33c1.98 0 2.98 0 2.98 1.99 0 1.09-1 1.09-2.78 1.09h-8.73c3.56 14.11 4.06 16.1 4.06 16.69 0 1.69-1.19 2.69-2.88 2.69-.29 0-3.07-.11-3.97-3.58l-3.87-15.8h-9.34c-1.99 0-2.99 0-2.99-1.89 0-1.19.8-1.19 2.78-1.19h8.75c-7.15-28.21-7.54-29.9-7.54-31.68 0-5.36 3.76-9.14 9.12-9.14 10.14 0 15.8 14.5 15.8 15.29M3715.94 6979.66c0 1.18-.69 1.48-1.89 2.07l-52.14 24.65 52.25 24.73c.98.39 1.78.8 1.78 2.08 0 1.09-.89 1.98-1.99 1.98-.29 0-.5 0-1.59-.59l-55.23-26.02c-.99-.5-1.88-.9-1.88-2.18 0-1.21.98-1.69 1.88-2.1l55.14-26.01c1.09-.61 1.29-.61 1.68-.61 1.1 0 1.99.9 1.99 2zm0-19.28c0 1.98-1.89 1.98-3.38 1.98h-53.93c-1.4 0-3.38 0-3.38-1.98 0-1.99 1.88-1.99 3.27-1.99h54.14c1.39 0 3.28 0 3.28 1.99M3794.63 6972v3.08h-3.19c-8.94 0-9.24 1.09-9.24 4.76v55.74c0 2.37 0 2.58-2.28 2.58-6.15-6.36-14.9-6.36-18.08-6.36v-3.08c1.99 0 7.85 0 13.02 2.58v-51.46c0-3.57-.3-4.76-9.25-4.76h-3.17V6972c3.47.3 12.12.3 16.09.3 3.97 0 12.61 0 16.1-.3"/></g></svg>