<svg xmlns="http://www.w3.org/2000/svg" xmlns:osb="http://www.openswatchbook.org/uri/2009/osb" viewBox="0 0 160 90"><defs><linearGradient id="b" gradientTransform="matrix(.26458 0 0 .26458 103.655 15.085)" osb:paint="solid"><stop offset="0" stop-color="#f9ae65"/></linearGradient><linearGradient id="a"><stop offset="0"/><stop offset="1" stop-opacity="0"/></linearGradient></defs><g fill="url(#b)" stroke-width=".812" transform="matrix(.04345 0 0 -.04345 -9.187 383.875)"><path d="M2187.27 7394.2c0 1-.89 1-1.19 1-.89 0-1.1-.4-1.3-1.09-3.26-10.63-10.03-13.02-13.2-13.02-3.88 0-5.47 3.18-5.47 6.57 0 2.17.59 4.36 1.69 8.73l3.37 13.61c.61 2.58 2.89 11.72 9.85 11.72.5 0 2.87 0 4.96-1.28-2.78-.5-4.76-2.99-4.76-5.38 0-1.58 1.08-3.47 3.76-3.47 2.19 0 5.36 1.79 5.36 5.75 0 5.18-5.86 6.57-9.23 6.57-5.77 0-9.23-5.27-10.42-7.55-2.49 6.55-7.86 7.55-10.74 7.55-10.32 0-16-12.82-16-15.3 0-1 1.21-1 1.21-1 .79 0 1.09.2 1.28 1.09 3.39 10.53 9.94 13.02 13.31 13.02 1.89 0 5.38-.89 5.38-6.66 0-3.08-1.69-9.73-5.38-23.64-1.58-6.15-5.06-10.33-9.44-10.33-.59 0-2.87 0-4.97 1.3 2.49.49 4.68 2.58 4.68 5.36 0 2.69-2.19 3.47-3.68 3.47-2.98 0-5.46-2.58-5.46-5.75 0-4.58 4.96-6.56 9.34-6.56 6.56 0 10.12 6.95 10.44 7.54 1.18-3.67 4.76-7.54 10.72-7.54 10.23 0 15.89 12.81 15.89 15.29M2227.88 7356.16c0 .29 0 .5-1.69 2.18-12.41 12.52-15.6 31.3-15.6 46.49 0 17.3 3.79 34.58 16 47 1.29 1.19 1.29 1.39 1.29 1.69 0 .68-.4.98-.99.98-1 0-9.94-6.75-15.8-19.37-5.06-10.93-6.26-21.96-6.26-30.3 0-7.74 1.09-19.77 6.56-30.99 5.95-12.21 14.5-18.67 15.5-18.67.59 0 .99.3.99.99M2265.19 7394.2c0 1-.8 1-1.19 1-.89 0-1-.29-1.48-1.39-4.29-10.33-9.55-12.72-12.93-12.72-2.07 0-3.07 1.3-3.07 4.57 0 2.39.2 3.07.59 4.78l7.36 29.29h9.33c1.98 0 2.98 0 2.98 1.99 0 1.09-1 1.09-2.78 1.09h-8.73c3.56 14.11 4.06 16.1 4.06 16.69 0 1.69-1.19 2.69-2.88 2.69-.29 0-3.07-.11-3.97-3.58l-3.87-15.8h-9.34c-1.99 0-2.99 0-2.99-1.89 0-1.19.8-1.19 2.78-1.19h8.75c-7.15-28.21-7.54-29.9-7.54-31.68 0-5.36 3.76-9.14 9.12-9.14 10.14 0 15.8 14.5 15.8 15.29M2298.7 7404.83c0 7.75-1.09 19.78-6.54 31-5.97 12.22-14.5 18.67-15.5 18.67-.6 0-1-.39-1-.98 0-.3 0-.5 1.89-2.3 9.73-9.83 15.4-25.63 15.4-46.39 0-16.99-3.68-34.47-16-46.99-1.29-1.18-1.29-1.39-1.29-1.68 0-.6.4-.99 1-.99 1 0 9.93 6.75 15.79 19.36 5.07 10.94 6.25 21.95 6.25 30.3M2407.63 7414.47c0 1.98-1.9 1.98-3.29 1.98h-59.5c-1.39 0-3.28 0-3.28-1.98 0-1.99 1.89-1.99 3.38-1.99h59.31c1.48 0 3.38 0 3.38 1.99zm0-19.27c0 1.99-1.9 1.99-3.38 1.99h-59.31c-1.49 0-3.38 0-3.38-1.99 0-1.98 1.89-1.98 3.28-1.98h59.5c1.39 0 3.29 0 3.29 1.98M2491.27 7394.2c0 1-.89 1-1.19 1-.89 0-1.1-.4-1.3-1.09-3.26-10.63-10.03-13.02-13.2-13.02-3.88 0-5.47 3.18-5.47 6.57 0 2.17.59 4.36 1.69 8.73l3.37 13.61c.61 2.58 2.89 11.72 9.85 11.72.5 0 2.87 0 4.96-1.28-2.78-.5-4.76-2.99-4.76-5.38 0-1.58 1.08-3.47 3.76-3.47 2.19 0 5.36 1.79 5.36 5.75 0 5.18-5.86 6.57-9.23 6.57-5.77 0-9.23-5.27-10.42-7.55-2.49 6.55-7.86 7.55-10.74 7.55-10.32 0-16-12.82-16-15.3 0-1 1.21-1 1.21-1 .79 0 1.09.2 1.28 1.09 3.39 10.53 9.94 13.02 13.31 13.02 1.89 0 5.38-.89 5.38-6.66 0-3.08-1.69-9.73-5.38-23.64-1.58-6.15-5.06-10.33-9.44-10.33-.59 0-2.87 0-4.97 1.3 2.49.49 4.68 2.58 4.68 5.36 0 2.69-2.19 3.47-3.68 3.47-2.98 0-5.46-2.58-5.46-5.75 0-4.58 4.96-6.56 9.34-6.56 6.56 0 10.12 6.95 10.44 7.54 1.18-3.67 4.76-7.54 10.72-7.54 10.23 0 15.89 12.81 15.89 15.29M2532.25 7365v2.53h-2.67c-7.03 0-7.03.91-7.03 3.24v38.93c0 1.91-.14 1.97-2.11 1.97-4.5-4.42-10.89-4.48-13.78-4.48v-2.53c1.68 0 6.32 0 10.2 1.97v-35.86c0-2.33 0-3.24-7.03-3.24h-2.67V7365l12.51.28 12.58-.28M2584.08 7404.83c0 2.89-2.39 5.26-5.27 5.26-2.89 0-5.26-2.37-5.26-5.26 0-2.88 2.37-5.27 5.26-5.27 2.88 0 5.27 2.39 5.27 5.27M2646.19 7394.2c0 1-.8 1-1.19 1-.89 0-1-.29-1.48-1.39-4.29-10.33-9.55-12.72-12.93-12.72-2.07 0-3.07 1.3-3.07 4.57 0 2.39.2 3.07.59 4.78l7.36 29.29h9.33c1.98 0 2.98 0 2.98 1.99 0 1.09-1 1.09-2.78 1.09h-8.73c3.56 14.11 4.06 16.1 4.06 16.69 0 1.69-1.19 2.69-2.88 2.69-.29 0-3.07-.11-3.97-3.58l-3.87-15.8h-9.34c-1.99 0-2.99 0-2.99-1.89 0-1.19.8-1.19 2.78-1.19h8.75c-7.15-28.21-7.54-29.9-7.54-31.68 0-5.36 3.76-9.14 9.12-9.14 10.14 0 15.8 14.5 15.8 15.29"/></g></svg>