<svg xmlns="http://www.w3.org/2000/svg" xmlns:osb="http://www.openswatchbook.org/uri/2009/osb" viewBox="0 0 160 90"><defs><linearGradient id="b" gradientTransform="matrix(.00006 0 0 .00065 253.32 76.16)" osb:paint="solid"><stop offset="0" stop-color="#f0f0f0"/></linearGradient><linearGradient id="a"><stop offset="0"/><stop offset="1" stop-opacity="0"/></linearGradient></defs><g fill="url(#b)" transform="translate(0 -69.32)"><path d="M71.251 142.686c0-.064-.003-.067-.017-.074-.151-.094-.61-.372-.704-.981-.015-.091-.015-.098-.015-.143v-2.689c0-.385-.266-.977-.876-1.286.379-.203.831-.613.873-1.268l.003-.022v-2.428c0-.288 0-.35.028-.484.064-.28.232-.627.677-.89.028-.017.031-.021.031-.084 0-.077-.003-.08-.08-.08-.063 0-.07 0-.165.056-.785.445-.83 1.096-.83 1.22v2.49c0 .253 0 .537-.183.86-.16.287-.35.43-.5.532-.05.032-.054.035-.054.095 0 .063.004.066.032.084.298.196.617.508.694 1.08.01.076.01.083.01.125v2.692c0 .284.176.873.852 1.23.08.045.087.045.144.045.077 0 .08-.004.08-.08M73.443 134.923v-.109h-.35v-1.594c0-.07 0-.091-.056-.091-.032 0-.042 0-.07.042l-1.076 1.643v.11h.932v.304c0 .126-.008.165-.266.165h-.074v.108c.143-.01.326-.01.473-.01.147 0 .333 0 .476.01v-.108h-.073c-.26 0-.266-.039-.266-.165v-.305zm-.6-.109h-.854l.855-1.307zM74.621 135c0-.035-.028-.035-.042-.035-.031 0-.035.01-.052.049-.151.364-.337.449-.456.449-.073 0-.108-.046-.108-.161 0-.085.007-.109.02-.17l.26-1.032h.33c.07 0 .104 0 .104-.07 0-.039-.035-.039-.098-.039h-.308c.126-.498.144-.568.144-.589 0-.06-.042-.095-.102-.095-.01 0-.108.004-.14.127l-.136.557h-.33c-.07 0-.105 0-.105.067 0 .042.028.042.098.042h.308c-.252.995-.266 1.054-.266 1.117 0 .19.133.323.322.323.358 0 .557-.512.557-.54M76.043 133.78h-.084c-.007.054-.032.201-.064.226-.02.015-.211.015-.246.015h-.456c.26-.231.347-.3.496-.417.184-.147.354-.3.354-.536 0-.3-.262-.483-.58-.483-.307 0-.516.215-.516.444 0 .126.107.138.132.138.06 0 .131-.042.131-.131 0-.045-.017-.132-.146-.132a.39.39 0 0 1 .362-.23c.248 0 .377.193.377.394 0 .216-.154.387-.233.476l-.598.591c-.025.022-.025.027-.025.096h1.022l.074-.451M97.781 134.38c0-.28-.017-.561-.14-.82a.65.65 0 0 0-1.205.024c-.112.242-.13.516-.13.796 0 .263.014.578.158.845.15.283.407.354.578.354.189 0 .456-.075.61-.407.112-.242.13-.515.13-.792zm-.29-.042c0 .263 0 .5-.039.725-.052.333-.252.438-.41.438-.137 0-.343-.087-.406-.424-.039-.21-.039-.533-.039-.74 0-.224 0-.455.028-.644.067-.417.33-.448.417-.448.116 0 .347.062.413.41.036.196.036.462.036.683M101.353 135.231c0-.042-.024-.052-.067-.073l-1.839-.87 1.843-.872c.035-.014.063-.028.063-.073a.07.07 0 0 0-.07-.07c-.01 0-.018 0-.056.02l-1.949.918c-.034.018-.066.032-.066.077 0 .043.035.06.066.074l1.946.918c.038.022.045.022.059.022a.07.07 0 0 0 .07-.071zm0 .68c0-.07-.067-.07-.12-.07h-1.902c-.049 0-.119 0-.119.07s.066.07.115.07h1.91c.05 0 .116 0 .116-.07M103.726 135c0-.035-.029-.035-.042-.035-.032 0-.036.01-.053.049-.151.364-.337.449-.456.449-.073 0-.108-.046-.108-.161 0-.085.007-.109.02-.17l.26-1.032h.33c.07 0 .105 0 .105-.07 0-.039-.036-.039-.098-.039h-.308c.125-.498.143-.568.143-.589 0-.06-.042-.095-.102-.095-.01 0-.108.004-.14.127l-.136.557h-.33c-.07 0-.105 0-.105.067 0 .042.028.042.098.042h.308c-.252.995-.266 1.054-.266 1.117 0 .19.133.323.322.323.358 0 .558-.512.558-.54M107.315 135.231c0-.042-.024-.052-.067-.073l-1.839-.87 1.843-.872c.035-.014.063-.028.063-.073a.07.07 0 0 0-.07-.07c-.01 0-.018 0-.056.02l-1.949.918c-.035.018-.066.032-.066.077 0 .043.035.06.066.074l1.946.918c.038.022.045.022.059.022a.07.07 0 0 0 .07-.071zm0 .68c0-.07-.067-.07-.12-.07h-1.902c-.05 0-.119 0-.119.07s.066.07.115.07h1.91c.05 0 .116 0 .116-.07M110.184 134.125v-.089h-.095c-.248 0-.248-.032-.248-.114v-1.373c0-.068-.005-.07-.074-.07-.159.156-.384.158-.486.158v.09c.06 0 .223 0 .36-.07v1.265c0 .082 0 .114-.248.114h-.095v.09l.442-.01.444.01"/><path d="M108.998 134.566v.141h1.402v-.14z" color="#000" font-family="sans-serif" font-weight="400" overflow="visible" white-space="normal" style="line-height:normal;font-variant-ligatures:normal;font-variant-position:normal;font-variant-caps:normal;font-variant-numeric:normal;font-variant-alternates:normal;font-feature-settings:normal;text-indent:0;text-align:start;text-decoration-line:none;text-decoration-style:solid;text-decoration-color:#000;text-transform:none;text-orientation:mixed;shape-padding:0;isolation:auto;mix-blend-mode:normal"/><path d="M110.263 136.284h-.084c-.007.055-.032.202-.065.227-.02.014-.21.014-.245.014h-.457c.26-.23.347-.3.496-.416.184-.147.355-.3.355-.536 0-.3-.263-.483-.58-.483-.308 0-.517.215-.517.443 0 .126.107.139.132.139.06 0 .132-.042.132-.132 0-.044-.018-.13-.147-.13a.39.39 0 0 1 .363-.232c.248 0 .377.194.377.395 0 .215-.154.387-.234.476l-.598.59c-.025.023-.025.027-.025.097h1.022l.075-.452M74.225 140.693c0-.07-.067-.07-.116-.07h-1.91c-.05 0-.115 0-.115.07s.066.07.115.07h1.91c.049 0 .116 0 .116-.07M76.16 140.99v-.108h-.35v-1.594c0-.07 0-.091-.057-.091-.031 0-.042 0-.07.042l-1.076 1.643v.109h.932v.305c0 .126-.007.164-.266.164h-.074v.11c.144-.011.326-.011.473-.011.148 0 .333 0 .477.01v-.109h-.073c-.26 0-.267-.038-.267-.164v-.305zm-.6-.108h-.855l.855-1.307zM77.373 141.068c0-.035-.028-.035-.042-.035-.031 0-.035.01-.052.049-.151.364-.337.449-.456.449-.073 0-.109-.046-.109-.162 0-.084.008-.108.021-.168l.26-1.034h.329c.07 0 .105 0 .105-.07 0-.038-.035-.038-.098-.038h-.308c.126-.498.143-.568.143-.59 0-.059-.042-.094-.101-.094-.01 0-.109.004-.14.126l-.137.558h-.33c-.07 0-.105 0-.105.066 0 .042.028.042.098.042h.309c-.252.996-.266 1.055-.266 1.118 0 .19.133.322.322.322.357 0 .557-.511.557-.539M78.795 139.848h-.084c-.007.054-.032.2-.065.226-.02.014-.21.014-.245.014h-.456c.26-.23.347-.3.496-.416.183-.147.354-.3.354-.536 0-.3-.263-.483-.58-.483-.308 0-.516.215-.516.443 0 .126.107.14.132.14.059 0 .13-.043.13-.133 0-.044-.016-.13-.146-.13a.39.39 0 0 1 .363-.232c.248 0 .377.194.377.395 0 .215-.154.387-.233.476l-.598.59c-.025.023-.025.028-.025.097h1.022l.074-.452M82.433 140.693c0-.07-.067-.07-.116-.07h-.977v-.981c0-.05 0-.116-.07-.116s-.07.066-.07.116v.98h-.982c-.049 0-.115 0-.115.071 0 .07.066.07.115.07h.982v.981c0 .05 0 .116.07.116s.07-.067.07-.116v-.98h.977c.05 0 .116 0 .116-.07M85 140.98a.634.634 0 0 0-.171-.43c-.067-.075-.123-.11-.347-.25.252-.13.424-.311.424-.543 0-.322-.312-.522-.631-.522-.35 0-.634.26-.634.586 0 .062.007.22.154.385.038.042.168.13.256.189-.203.102-.505.298-.505.645 0 .371.357.606.725.606.396 0 .73-.29.73-.666zm-.249-1.223c0 .2-.136.368-.346.49l-.435-.28c-.16-.105-.175-.224-.175-.283 0-.214.228-.361.476-.361.256 0 .48.182.48.434zm.074 1.35c0 .259-.263.441-.55.441-.301 0-.554-.217-.554-.508 0-.204.112-.428.41-.592l.431.273c.099.066.263.172.263.386M86.263 141.068c0-.035-.028-.035-.042-.035-.031 0-.035.01-.052.049-.151.364-.337.449-.456.449-.073 0-.109-.046-.109-.162 0-.084.008-.108.021-.168l.26-1.034h.329c.07 0 .105 0 .105-.07 0-.038-.035-.038-.098-.038h-.308c.126-.498.143-.568.143-.59 0-.059-.042-.094-.101-.094-.01 0-.109.004-.14.126l-.137.558h-.33c-.07 0-.105 0-.105.066 0 .042.028.042.098.042h.309c-.252.996-.266 1.055-.266 1.118 0 .19.133.322.322.322.357 0 .557-.511.557-.539M89.64 140.693c0-.07-.066-.07-.115-.07h-1.91c-.049 0-.115 0-.115.07s.066.07.115.07h1.91c.05 0 .116 0 .116-.07M92.31 140.96h-.087c-.018.105-.043.258-.077.311-.025.028-.256.028-.333.028h-.631l.371-.36c.547-.484.757-.673.757-1.024 0-.4-.315-.68-.743-.68a.647.647 0 0 0-.655.635c0 .196.175.196.186.196.06 0 .182-.042.182-.186a.177.177 0 0 0-.186-.182c-.028 0-.035 0-.045.004a.505.505 0 0 1 .473-.358c.319 0 .47.284.47.571 0 .28-.176.558-.369.775l-.673.75c-.038.038-.038.045-.038.13h1.3l.098-.61M97.766 140.193v-.09h-.094c-.248 0-.248-.031-.248-.113v-1.374c0-.067-.005-.07-.075-.07-.159.157-.384.159-.486.159v.089c.06 0 .223 0 .36-.07v1.266c0 .082 0 .114-.248.114h-.094v.09l.44-.01.445.01"/><path d="M96.6 140.629v.14h1.402v-.14z" color="#000" font-family="sans-serif" font-weight="400" overflow="visible" white-space="normal" style="line-height:normal;font-variant-ligatures:normal;font-variant-position:normal;font-variant-caps:normal;font-variant-numeric:normal;font-variant-alternates:normal;font-feature-settings:normal;text-indent:0;text-align:start;text-decoration-line:none;text-decoration-style:solid;text-decoration-color:#000;text-transform:none;text-orientation:mixed;shape-padding:0;isolation:auto;mix-blend-mode:normal"/><path d="M97.845 142.352h-.084c-.007.055-.032.202-.065.226-.02.015-.21.015-.245.015h-.456c.26-.23.347-.3.496-.416.183-.147.354-.301.354-.536 0-.3-.263-.484-.58-.484-.308 0-.516.216-.516.444 0 .126.107.139.132.139.059 0 .13-.042.13-.132 0-.045-.016-.131-.146-.131a.39.39 0 0 1 .363-.231c.248 0 .377.194.377.395 0 .215-.154.387-.233.476l-.598.59c-.025.022-.025.027-.025.097h1.022l.074-.452M101.847 141.299c0-.042-.024-.052-.067-.073l-1.84-.87 1.844-.872c.035-.014.063-.028.063-.074a.07.07 0 0 0-.07-.07c-.01 0-.018 0-.056.021l-1.949.918c-.035.018-.066.032-.066.077 0 .043.035.06.066.074l1.946.918c.038.021.045.021.059.021a.07.07 0 0 0 .07-.07zm0 .68c0-.07-.067-.07-.12-.07h-1.902c-.05 0-.119 0-.119.07s.066.07.115.07h1.91c.05 0 .116 0 .116-.07M104.22 141.068c0-.035-.029-.035-.043-.035-.03 0-.035.01-.052.049-.151.364-.337.449-.456.449-.073 0-.108-.046-.108-.162 0-.084.007-.108.02-.168l.26-1.034h.33c.07 0 .105 0 .105-.07 0-.038-.036-.038-.099-.038h-.308c.126-.498.144-.568.144-.59 0-.059-.042-.094-.102-.094-.01 0-.108.004-.14.126l-.137.558h-.329c-.07 0-.105 0-.105.066 0 .042.028.042.098.042h.308c-.252.996-.266 1.055-.266 1.118 0 .19.133.322.322.322.358 0 .557-.511.557-.539M107.774 141.299c0-.042-.025-.052-.067-.073l-1.84-.87 1.844-.872c.034-.014.063-.028.063-.074a.07.07 0 0 0-.07-.07c-.01 0-.018 0-.057.021l-1.948.918c-.035.018-.066.032-.066.077 0 .043.034.06.066.074l1.945.918c.039.021.046.021.06.021a.07.07 0 0 0 .07-.07zm0 .68c0-.07-.067-.07-.12-.07h-1.902c-.05 0-.12 0-.12.07s.067.07.116.07h1.91c.049 0 .116 0 .116-.07M110.55 141.57v-.11h-.113c-.315 0-.326-.038-.326-.168v-1.966c0-.083 0-.09-.08-.09-.217.223-.526.223-.638.223v.11c.07 0 .277 0 .46-.092v1.816c0 .125-.011.167-.327.167h-.112v.11c.123-.011.428-.011.568-.011.14 0 .445 0 .568.01"/><g><path d="M70.547 144.47v-.225c0-.08 0-.098-.05-.098-.213-.004-.56-.031-.875-.186a1.392 1.392 0 0 1-.61-.547c-.01-.016-.031-.016-.077-.016-.08 0-.084.003-.084.09v.057c.477.858 1.265 1.023 1.622 1.023.074 0 .074-.003.074-.098"/><path d="M70.527 144.15v.422h17.987v-.422z" color="#000" font-family="sans-serif" font-weight="400" overflow="visible" white-space="normal" style="line-height:normal;font-variant-ligatures:normal;font-variant-position:normal;font-variant-caps:normal;font-variant-numeric:normal;font-variant-alternates:normal;font-feature-settings:normal;text-indent:0;text-align:start;text-decoration-line:none;text-decoration-style:solid;text-decoration-color:#000;text-transform:none;text-orientation:mixed;shape-padding:0;isolation:auto;mix-blend-mode:normal"/><path d="M90.175 145.226v-.055c-.476-.859-1.265-1.024-1.622-1.024-.074 0-.074.003-.074.098v.225c0 .08 0 .098.049.098.214.003.561.031.876.186.378.188.522.41.61.546.01.018.032.018.077.018.08 0 .084-.004.084-.092"/><path d="M91.713 144.47v-.225c0-.095 0-.098-.073-.098-.357 0-1.146.168-1.623 1.024v.055c0 .088.004.092.085.092.066 0 .07-.004.087-.028.288-.46.771-.709 1.483-.722.041 0 .041-.025.041-.098"/><path d="M91.676 144.15v.422h17.986v-.422z" color="#000" font-family="sans-serif" font-weight="400" overflow="visible" white-space="normal" style="line-height:normal;font-variant-ligatures:normal;font-variant-position:normal;font-variant-caps:normal;font-variant-numeric:normal;font-variant-alternates:normal;font-feature-settings:normal;text-indent:0;text-align:start;text-decoration-line:none;text-decoration-style:solid;text-decoration-color:#000;text-transform:none;text-orientation:mixed;shape-padding:0;isolation:auto;mix-blend-mode:normal"/><path d="M111.306 143.545v-.056c0-.088-.004-.091-.084-.091-.066 0-.07.003-.087.027-.287.459-.771.708-1.482.722-.043 0-.043.025-.043.098v.225c0 .095 0 .098.074.098.357 0 1.146-.169 1.622-1.023"/></g></g></svg>