<svg xmlns="http://www.w3.org/2000/svg" xmlns:osb="http://www.openswatchbook.org/uri/2009/osb" viewBox="0 0 160 90"><defs><linearGradient id="b" gradientTransform="matrix(0 -.00004 .00002 0 -77.65 148.637)" osb:paint="solid"><stop offset="0" stop-color="#ac88e6"/></linearGradient><linearGradient id="a"><stop offset="0"/><stop offset="1" stop-opacity="0"/></linearGradient></defs><g fill="url(#b)" font-family="sans-serif" font-size="4.233" font-weight="400" letter-spacing="0" transform="translate(-5.755 .86)" word-spacing="0"><path style="line-height:125%" d="M94.214 36.653q-.322 0-.485.319-.162.316-.162.953 0 .634.162.953.163.316.485.316.325 0 .486-.316.163-.319.163-.953 0-.637-.163-.953-.161-.319-.486-.319zm0-.33q.52 0 .792.411.275.41.275 1.19t-.275 1.191q-.273.41-.792.41-.518 0-.793-.41-.273-.411-.273-1.19 0-.782.273-1.191.275-.411.793-.411zM96.017 38.94h.436v.525h-.436zM98.258 36.653q-.323 0-.486.319-.161.316-.161.953 0 .634.16.953.164.316.487.316.324 0 .485-.316.164-.319.164-.953 0-.637-.164-.953-.16-.319-.485-.319zm0-.33q.518 0 .791.411.275.41.275 1.19t-.275 1.191q-.273.41-.791.41-.52 0-.794-.41-.273-.411-.273-1.19 0-.782.273-1.191.275-.411.794-.411zM100.953 36.653q-.322 0-.486.319-.161.316-.161.953 0 .634.161.953.164.316.486.316.325 0 .486-.316.163-.319.163-.953 0-.637-.163-.953-.161-.319-.486-.319zm0-.33q.519 0 .792.411.275.41.275 1.19t-.275 1.191q-.273.41-.792.41t-.794-.41q-.273-.411-.273-1.19 0-.782.273-1.191.275-.411.794-.411zM102.828 39.113h.682V36.76l-.742.149v-.38l.738-.15h.417v2.735h.683v.352h-1.778z"/></g></svg>