<svg xmlns="http://www.w3.org/2000/svg" xmlns:osb="http://www.openswatchbook.org/uri/2009/osb" viewBox="0 0 160 90"><defs><linearGradient id="b" gradientTransform="matrix(0 0 0 0 257.55 160.71)" osb:paint="solid"><stop offset="0" stop-color="#f0f0f0"/></linearGradient><linearGradient id="a"><stop offset="0"/><stop offset="1" stop-opacity="0"/></linearGradient></defs><g fill="url(#b)" font-family="sans-serif" font-size="4.233" font-weight="400" letter-spacing="0" transform="translate(-19.09 .86)" word-spacing="0"><path style="line-height:125%" d="M133.825 39.113h.683V36.76l-.743.149v-.38l.738-.15h.418v2.735h.682v.352h-1.778zM137.714 37.8q.3.065.467.267.17.203.17.5 0 .457-.315.707-.314.25-.893.25-.194 0-.401-.039-.205-.037-.424-.113v-.404q.174.102.38.153.207.052.433.052.392 0 .597-.155.207-.155.207-.45 0-.273-.193-.426-.19-.155-.53-.155h-.36v-.343h.376q.308 0 .471-.122.163-.124.163-.356 0-.238-.17-.364-.167-.128-.48-.128-.172 0-.369.037-.196.037-.432.116v-.372q.238-.066.445-.1.209-.032.392-.032.476 0 .753.217.277.215.277.583 0 .256-.147.434-.147.175-.417.244zM139.144 38.94h.436v.525h-.436zM141.385 36.653q-.323 0-.486.319-.161.316-.161.953 0 .634.16.953.164.316.487.316.324 0 .485-.316.164-.319.164-.953 0-.637-.164-.953-.16-.319-.485-.319zm0-.33q.518 0 .791.411.275.41.275 1.19t-.275 1.191q-.273.41-.791.41-.52 0-.794-.41-.273-.411-.273-1.19 0-.782.273-1.191.275-.411.794-.411zM143.26 39.113h.682V36.76l-.742.149v-.38l.737-.15h.418v2.735h.682v.352h-1.778z"/></g></svg>