<svg xmlns="http://www.w3.org/2000/svg" xmlns:osb="http://www.openswatchbook.org/uri/2009/osb" viewBox="0 0 160 90"><defs><linearGradient id="b" gradientTransform="matrix(0 0 0 0 -65.696 198.36)" osb:paint="solid"><stop offset="0" stop-color="#f0f0f0"/></linearGradient><linearGradient id="a"><stop offset="0"/><stop offset="1" stop-opacity="0"/></linearGradient></defs><g fill="url(#b)"><path d="M11.642 55.435c0-.172-.065-.273-.166-.273a.134.134 0 0 0-.138.138c0 .07.052.138.138.138.03 0 .065-.01.09-.034l.013-.008s.006.003.006.04a.626.626 0 0 1-.177.433c-.029.029-.029.034-.029.042 0 .018.013.028.026.028.029 0 .237-.2.237-.504M14.236 54.447c.01-.036.01-.042.01-.06 0-.047-.036-.07-.075-.07a.114.114 0 0 0-.091.054 2.532 2.532 0 0 0-.037.141l-.051.208-.117.468c-.01.039-.123.221-.294.221-.133 0-.161-.115-.161-.21 0-.12.044-.282.132-.51.041-.107.052-.136.052-.188a.206.206 0 0 0-.213-.213c-.247 0-.343.377-.343.4 0 .027.031.027.031.027.026 0 .029-.005.042-.047.07-.244.174-.322.262-.322.02 0 .065 0 .065.083 0 .065-.026.132-.044.182-.104.275-.15.424-.15.546 0 .231.163.31.316.31.102 0 .19-.045.263-.118-.034.135-.065.263-.17.4-.067.089-.166.164-.285.164-.036 0-.153-.008-.198-.11.042 0 .076 0 .112-.03a.14.14 0 0 0 .052-.107c0-.08-.07-.09-.096-.09-.06 0-.146.041-.146.168 0 .13.115.226.276.226.268 0 .535-.236.608-.53l.25-.993M16.967 54.535c0-.051-.05-.051-.086-.051h-1.557c-.037 0-.086 0-.086.051 0 .052.05.052.088.052h1.553c.038 0 .088 0 .088-.052zm0 .505c0-.052-.05-.052-.088-.052h-1.553c-.039 0-.088 0-.088.052s.05.052.086.052h1.557c.036 0 .086 0 .086-.052M19.036 54.606c0-.208-.012-.417-.103-.609a.482.482 0 0 0-.895.018c-.083.18-.096.383-.096.59 0 .195.01.43.117.627.112.21.302.263.429.263a.48.48 0 0 0 .452-.302c.084-.18.096-.382.096-.587zm-.215-.032c0 .195 0 .372-.029.538-.039.248-.187.326-.304.326-.101 0-.255-.065-.301-.315-.029-.156-.029-.396-.029-.549 0-.166 0-.338.02-.478.05-.31.245-.333.31-.333.086 0 .257.047.307.305.026.145.026.343.026.506M19.649 55.3a.139.139 0 0 0-.138-.138.139.139 0 0 0-.138.138c0 .075.062.138.138.138a.139.139 0 0 0 .138-.138M21.044 54.993c0-.213-.164-.416-.434-.47.213-.071.364-.253.364-.458 0-.213-.229-.36-.478-.36-.263 0-.46.157-.46.354 0 .086.057.136.132.136.08 0 .132-.058.132-.133 0-.13-.122-.13-.16-.13.08-.127.252-.16.345-.16.107 0 .25.056.25.29a.65.65 0 0 1-.073.297c-.078.125-.166.132-.232.135-.02.003-.083.007-.1.007-.022.003-.04.006-.04.032 0 .028.018.028.062.028h.115c.213 0 .31.177.31.432 0 .353-.18.43-.295.43-.111 0-.306-.045-.398-.199.092.013.172-.044.172-.143 0-.093-.07-.145-.145-.145-.063 0-.146.036-.146.15 0 .237.242.409.525.409.318 0 .554-.237.554-.502M22.332 54.915c0-.31-.213-.57-.494-.57a.458.458 0 0 0-.33.133v-.507a.83.83 0 0 0 .22.034c.32 0 .503-.237.503-.27 0-.016-.008-.03-.027-.03 0 0-.007 0-.02.009a.863.863 0 0 1-.7.002c-.02-.007-.03-.007-.03-.007-.027 0-.027.02-.027.062v.77c0 .046 0 .067.036.067.019 0 .024-.007.034-.023.029-.042.125-.182.336-.182.135 0 .2.12.22.166a.798.798 0 0 1 .048.328c0 .09 0 .247-.063.356a.325.325 0 0 1-.278.17.406.406 0 0 1-.382-.292c.008.002.015.005.044.005.086 0 .13-.065.13-.127a.125.125 0 0 0-.13-.128c-.037 0-.127.018-.127.138 0 .224.18.476.47.476.302 0 .567-.25.567-.58"/><g stroke-width="1.348"><path d="M34.693 55.066c0-.026-.021-.026-.031-.026-.024 0-.027.007-.04.036-.111.27-.249.333-.338.333-.054 0-.08-.034-.08-.12 0-.062.005-.08.016-.125l.192-.766h.244c.052 0 .078 0 .078-.052 0-.029-.026-.029-.072-.029h-.229c.093-.37.106-.421.106-.437 0-.044-.03-.07-.075-.07-.008 0-.08.003-.104.094l-.101.413h-.245c-.052 0-.078 0-.078.05 0 .03.021.03.073.03h.229c-.187.739-.197.783-.197.83 0 .14.098.24.238.24.266 0 .414-.38.414-.401M37.4 54.535c0-.051-.05-.051-.086-.051h-1.557c-.037 0-.086 0-.086.051 0 .052.05.052.088.052h1.553c.038 0 .088 0 .088-.052zm0 .505c0-.052-.05-.052-.088-.052h-1.553c-.039 0-.088 0-.088.052s.05.052.086.052h1.557c.036 0 .086 0 .086-.052M39.363 55.438v-.081h-.083c-.234 0-.242-.029-.242-.125v-1.459c0-.062 0-.067-.06-.067-.16.166-.39.166-.473.166v.081c.052 0 .205 0 .34-.068v1.347c0 .094-.007.125-.241.125h-.083v.08c.09-.007.317-.007.42-.007.105 0 .33 0 .422.008M40.11 55.435c0-.172-.065-.273-.166-.273a.134.134 0 0 0-.138.138c0 .07.052.138.138.138.03 0 .065-.01.09-.035a.446.446 0 0 1 .014-.007s.005.003.005.04a.626.626 0 0 1-.177.433c-.029.029-.029.034-.029.042 0 .018.013.028.027.028.028 0 .236-.2.236-.504M42.73 54.447c.01-.036.01-.042.01-.06 0-.047-.036-.07-.075-.07a.114.114 0 0 0-.09.054 2.522 2.522 0 0 0-.037.141l-.052.208-.117.468c-.01.039-.122.221-.294.221-.133 0-.161-.115-.161-.21 0-.12.044-.282.133-.51.04-.107.052-.136.052-.188a.206.206 0 0 0-.214-.213c-.247 0-.343.377-.343.4 0 .027.031.027.031.027.026 0 .029-.005.042-.047.07-.244.174-.322.262-.322.021 0 .065 0 .065.083 0 .065-.025.132-.044.182-.104.275-.15.424-.15.546 0 .231.163.31.316.31.102 0 .19-.045.263-.118-.034.135-.065.263-.169.4-.067.089-.166.164-.286.164-.036 0-.153-.008-.197-.11.041 0 .075 0 .112-.03a.14.14 0 0 0 .051-.107c0-.08-.07-.09-.096-.09-.06 0-.145.041-.145.168 0 .13.114.226.275.226.268 0 .536-.236.608-.53l.25-.993M45.435 54.535c0-.051-.05-.051-.086-.051h-1.557c-.036 0-.086 0-.086.051 0 .052.05.052.089.052h1.552c.039 0 .088 0 .088-.052zm0 .505c0-.052-.05-.052-.088-.052h-1.552c-.04 0-.089 0-.089.052s.05.052.086.052h1.557c.037 0 .086 0 .086-.052M47.505 54.606c0-.208-.013-.417-.104-.609a.482.482 0 0 0-.895.018c-.083.18-.096.383-.096.59 0 .195.01.43.117.627.112.21.302.263.429.263a.48.48 0 0 0 .453-.302c.083-.18.096-.382.096-.587zm-.216-.032c0 .195 0 .372-.029.538-.038.248-.187.326-.304.326-.101 0-.255-.065-.301-.315-.029-.156-.029-.396-.029-.549 0-.166 0-.338.02-.478.05-.31.245-.333.31-.333.086 0 .257.047.307.305.026.145.026.343.026.506"/></g><g stroke-width="1.348"><path d="M56.274 55.028c0-.026-.02-.026-.03-.026-.024 0-.027.008-.04.037-.112.27-.25.333-.338.333-.054 0-.08-.034-.08-.12 0-.063.005-.08.015-.125l.193-.767h.244c.052 0 .078 0 .078-.052 0-.028-.026-.028-.073-.028h-.228c.093-.37.106-.422.106-.437 0-.044-.031-.07-.075-.07-.008 0-.08.002-.104.093l-.102.414h-.244c-.052 0-.078 0-.078.05 0 .03.02.03.072.03h.23c-.188.739-.198.783-.198.83 0 .14.099.239.239.239.265 0 .413-.38.413-.4M58.982 54.498c0-.052-.05-.052-.086-.052h-1.558c-.036 0-.086 0-.086.052s.05.052.089.052h1.552c.039 0 .089 0 .089-.052zm0 .504c0-.052-.05-.052-.089-.052h-1.552c-.04 0-.089 0-.089.052s.05.052.086.052h1.558c.036 0 .086 0 .086-.052M61.049 54.948h-.065c-.013.078-.032.192-.057.231-.019.02-.19.02-.247.02h-.469l.276-.267c.406-.359.562-.499.562-.76 0-.296-.234-.504-.551-.504a.48.48 0 0 0-.487.471c0 .146.13.146.138.146.044 0 .135-.032.135-.138a.131.131 0 0 0-.138-.135c-.02 0-.025 0-.033.002.06-.169.2-.265.35-.265.238 0 .349.21.349.424 0 .208-.13.413-.273.574l-.5.557c-.028.029-.028.034-.028.096h.965l.073-.452M61.692 55.398c0-.172-.065-.274-.167-.274a.134.134 0 0 0-.137.138c0 .07.051.138.137.138.031 0 .065-.01.091-.034l.013-.008s.005.003.005.04a.626.626 0 0 1-.177.433c-.028.03-.028.034-.028.042 0 .019.013.029.026.029.029 0 .237-.2.237-.504M63.179 55.025c.01.133.019.261.019.375a.42.42 0 0 1 .068-.008c.02 0 .035 0 .054.005a.93.93 0 0 0 .248.03c.152 0 .432-.073.432-.343 0-.185-.133-.293-.318-.361-.166-.06-.272-.104-.272-.253 0-.112.098-.174.19-.174.06 0 .218.022.254.253.016.016.07.013.087-.003.007-.098.013-.199.015-.288-.084-.014-.214-.052-.356-.052-.2 0-.383.13-.383.305 0 .198.09.283.3.37.225.092.276.149.276.266 0 .133-.13.19-.23.19-.107 0-.167-.034-.194-.065-.06-.062-.09-.182-.106-.25-.016-.016-.068-.014-.084.003M64.673 54.318c.017-.017.017-.074 0-.09a5.544 5.544 0 0 1-.522 0c-.016.016-.016.073 0 .09.128.013.158.04.215.182l.357.878c.016.038.038.055.064.055.025 0 .047-.017.066-.06l.275-.67.28.675c.016.038.038.055.065.055.025 0 .047-.017.063-.058l.353-.862c.046-.108.093-.187.231-.195.017-.017.017-.074 0-.09a3.42 3.42 0 0 1-.195.005c-.082 0-.196-.003-.278-.005-.016.016-.016.073 0 .09.204.01.174.09.136.184l-.225.566c-.028.068-.038.068-.063.01l-.234-.595c-.049-.127-.044-.154.1-.165.017-.017.017-.074 0-.09-.081.002-.19.005-.271.005-.069 0-.158-.003-.24-.005-.016.016-.016.073 0 .09.128.013.158.092.207.212l.02.043-.191.482c-.036.09-.044.095-.08.005l-.217-.56c-.049-.13-.046-.174.084-.182M66.474 54.633c.052-.307.242-.332.307-.332.104 0 .226.057.226.286 0 .024-.01.038-.04.038zm.713.514a.405.405 0 0 1-.338.147c-.098 0-.212-.057-.296-.196a.72.72 0 0 1-.087-.372l.723.005c.033 0 .052-.016.052-.046 0-.229-.081-.473-.46-.473-.236 0-.544.225-.544.638 0 .153.038.3.128.403.093.11.22.175.416.175a.559.559 0 0 0 .463-.237c-.009-.028-.025-.041-.057-.044M67.73 54.633c.052-.307.242-.332.308-.332.103 0 .225.057.225.286 0 .024-.01.038-.04.038zm.713.514a.405.405 0 0 1-.337.147c-.098 0-.212-.057-.297-.196a.72.72 0 0 1-.087-.372l.724.005c.032 0 .051-.016.051-.046 0-.229-.081-.473-.46-.473-.236 0-.543.225-.543.638 0 .153.038.3.128.403.092.11.22.175.416.175a.559.559 0 0 0 .462-.237c-.008-.028-.024-.041-.057-.044M69.1 54.5c.07-.087.192-.169.274-.169.174 0 .324.196.324.503 0 .223-.08.5-.384.5-.049 0-.144-.013-.193-.056-.057-.05-.065-.063-.065-.163v-.496c0-.057.01-.078.043-.119zm-.052-.101a.92.92 0 0 0-.022-.18c-.009-.01-.011-.021-.033-.021-.076.03-.147.054-.335.079-.005.016 0 .06.006.076.147.014.177.027.177.185V55.7c0 .225-.03.239-.196.247-.017.016-.017.073 0 .09.095-.003.196-.006.305-.006.108 0 .239.003.329.005.016-.016.016-.073 0-.09-.193-.01-.223-.02-.223-.246v-.295c0-.035.008-.03.038-.019.065.028.15.042.236.042a.56.56 0 0 0 .4-.153.687.687 0 0 0 .201-.514c0-.288-.204-.555-.481-.555-.128 0-.266.084-.372.204-.017.02-.03.016-.03-.011M72.644 54.498c0-.052-.05-.052-.086-.052h-1.557c-.037 0-.086 0-.086.052s.05.052.088.052h1.553c.038 0 .088 0 .088-.052zm0 .504c0-.052-.05-.052-.088-.052h-1.553c-.039 0-.088 0-.088.052s.05.052.086.052h1.557c.036 0 .086 0 .086-.052M74.713 54.568c0-.208-.012-.416-.104-.608a.482.482 0 0 0-.894.018c-.083.18-.096.382-.096.59 0 .195.01.43.117.627.112.21.302.262.429.262a.48.48 0 0 0 .452-.301c.084-.18.096-.383.096-.588zm-.215-.031c0 .195 0 .372-.029.538-.039.247-.187.325-.304.325-.101 0-.255-.065-.301-.315-.029-.156-.029-.395-.029-.548 0-.167 0-.338.02-.479.05-.309.245-.332.31-.332.086 0 .257.046.307.304.026.146.026.343.026.507M75.326 55.262a.139.139 0 0 0-.138-.138.139.139 0 0 0-.138.138c0 .076.062.138.138.138a.139.139 0 0 0 .138-.138M76.757 54.971v-.08h-.26v-1.184c0-.052 0-.067-.041-.067-.023 0-.031 0-.052.031l-.798 1.22v.08h.691v.226c0 .094-.005.122-.197.122h-.055v.081c.107-.008.242-.008.351-.008.11 0 .247 0 .353.008v-.08h-.054c-.192 0-.197-.03-.197-.123v-.226zm-.444-.08h-.635l.635-.97zM78.03 54.963a.47.47 0 0 0-.128-.32c-.05-.054-.09-.08-.257-.184.187-.096.315-.231.315-.403 0-.24-.232-.388-.469-.388-.26 0-.47.193-.47.435 0 .047.005.164.114.286.029.03.125.096.19.14-.15.076-.374.221-.374.478 0 .276.265.45.538.45.293 0 .54-.216.54-.494zm-.185-.907c0 .148-.101.273-.257.364l-.323-.208c-.12-.078-.13-.166-.13-.21 0-.16.17-.268.354-.268.19 0 .356.134.356.322zm.055 1.001c0 .192-.195.328-.409.328-.223 0-.41-.162-.41-.378 0-.15.083-.317.304-.439l.32.203c.073.05.195.127.195.286"/></g><g stroke-width="1.348"><path d="M82.777 55.014c0-.026-.021-.026-.031-.026-.024 0-.026.008-.039.036-.112.27-.25.333-.338.333-.055 0-.08-.034-.08-.12 0-.062.005-.08.015-.124l.192-.767h.245c.051 0 .078 0 .078-.052 0-.029-.027-.029-.073-.029h-.229c.093-.369.107-.421.107-.436 0-.045-.032-.07-.076-.07-.007 0-.08.002-.104.093l-.101.413h-.245c-.052 0-.078 0-.078.05 0 .031.021.031.073.031h.229c-.187.738-.197.783-.197.83 0 .14.098.238.238.238.266 0 .414-.38.414-.4M85.484 54.484c0-.052-.05-.052-.086-.052h-1.557c-.037 0-.086 0-.086.052s.05.052.088.052h1.553c.039 0 .088 0 .088-.052zm0 .504c0-.052-.05-.052-.088-.052h-1.553c-.039 0-.088 0-.088.052s.05.052.086.052h1.557c.037 0 .086 0 .086-.052M87.572 54.941c0-.213-.164-.416-.434-.47.213-.07.364-.253.364-.458 0-.213-.23-.359-.479-.359-.262 0-.46.156-.46.354 0 .085.058.135.133.135.08 0 .132-.057.132-.133 0-.13-.122-.13-.16-.13.08-.127.252-.16.345-.16.107 0 .25.057.25.29a.65.65 0 0 1-.073.297c-.078.125-.167.132-.232.135a1.27 1.27 0 0 1-.101.008c-.02.002-.039.005-.039.031 0 .029.018.029.062.029h.115c.213 0 .31.176.31.431 0 .354-.18.43-.295.43-.111 0-.306-.045-.398-.198.092.012.172-.044.172-.143 0-.094-.07-.146-.146-.146-.062 0-.145.036-.145.15 0 .237.242.41.525.41.317 0 .554-.238.554-.503M88.194 55.383c0-.171-.065-.273-.166-.273a.134.134 0 0 0-.138.138c0 .07.052.138.138.138.03 0 .065-.01.09-.034l.014-.008s.005.003.005.04a.626.626 0 0 1-.177.433c-.029.029-.029.034-.029.042 0 .018.014.029.027.029.028 0 .236-.2.236-.505M89.681 55.01c.011.134.02.262.02.376a.42.42 0 0 1 .067-.008c.02 0 .036 0 .055.005a.93.93 0 0 0 .247.03c.153 0 .433-.073.433-.343 0-.185-.134-.293-.318-.362-.166-.06-.272-.103-.272-.253 0-.11.097-.173.19-.173.06 0 .218.021.253.252.016.017.07.014.087-.002.008-.098.014-.199.016-.288-.084-.014-.215-.052-.356-.052-.201 0-.384.13-.384.305 0 .198.09.282.3.37.225.092.277.149.277.266 0 .133-.13.19-.231.19-.106 0-.166-.035-.193-.065-.06-.063-.09-.182-.107-.25-.016-.016-.067-.014-.084.003M91.176 54.303c.016-.016.016-.073 0-.09a5.544 5.544 0 0 1-.522 0c-.017.017-.017.074 0 .09.128.014.158.041.215.183l.356.878c.016.038.038.055.065.055.025 0 .047-.017.065-.06l.275-.67.28.675c.017.038.039.055.066.055.024 0 .046-.017.063-.058l.353-.862c.046-.109.092-.188.231-.196.016-.016.016-.073 0-.09a3.42 3.42 0 0 1-.196.006c-.081 0-.196-.003-.277-.006-.017.017-.017.074 0 .09.204.011.174.09.136.185l-.226.566c-.027.068-.038.068-.063.01l-.233-.595c-.05-.128-.044-.155.1-.166.017-.016.017-.073 0-.09-.081.003-.19.006-.272.006-.068 0-.158-.003-.24-.006-.015.017-.015.074 0 .09.129.014.159.093.208.213l.019.043-.19.481c-.036.09-.044.096-.08.006l-.217-.56c-.05-.131-.046-.175.084-.183M92.977 54.619c.051-.308.242-.332.307-.332.103 0 .225.057.225.285 0 .025-.01.038-.04.038zm.712.514a.405.405 0 0 1-.337.147c-.098 0-.212-.057-.296-.196a.72.72 0 0 1-.088-.373l.724.006c.033 0 .051-.017.051-.046 0-.229-.08-.474-.46-.474-.236 0-.543.226-.543.64 0 .152.038.299.128.402.092.109.22.174.416.174a.559.559 0 0 0 .462-.237c-.008-.027-.024-.04-.057-.043M94.233 54.619c.051-.308.242-.332.307-.332.104 0 .226.057.226.285 0 .025-.01.038-.04.038zm.712.514a.405.405 0 0 1-.337.147c-.098 0-.212-.057-.296-.196a.72.72 0 0 1-.087-.373l.723.006c.033 0 .052-.017.052-.046 0-.229-.082-.474-.46-.474-.236 0-.544.226-.544.64 0 .152.038.299.128.402.093.109.22.174.416.174a.559.559 0 0 0 .463-.237c-.009-.027-.025-.04-.058-.043M95.602 54.486c.07-.087.193-.17.275-.17.173 0 .323.197.323.504 0 .223-.079.5-.384.5-.048 0-.144-.013-.193-.056-.057-.05-.065-.063-.065-.164v-.495c0-.057.011-.079.044-.12zm-.052-.101a.92.92 0 0 0-.022-.18c-.008-.01-.01-.022-.032-.022-.077.03-.147.055-.335.08-.006.016 0 .06.006.075.146.015.176.028.176.186v1.161c0 .226-.03.24-.196.248-.016.016-.016.073 0 .09.096-.003.196-.006.305-.006.109 0 .24.003.33.005.016-.016.016-.073 0-.09-.194-.01-.224-.021-.224-.247v-.294c0-.035.008-.03.038-.019.065.027.15.041.237.041a.56.56 0 0 0 .4-.152.687.687 0 0 0 .2-.514c0-.289-.203-.555-.48-.555-.128 0-.267.084-.373.204-.016.02-.03.016-.03-.011M99.147 54.484c0-.052-.05-.052-.086-.052h-1.558c-.036 0-.086 0-.086.052s.05.052.089.052h1.552c.039 0 .089 0 .089-.052zm0 .504c0-.052-.05-.052-.089-.052h-1.552c-.04 0-.089 0-.089.052s.05.052.086.052h1.558c.036 0 .086 0 .086-.052M101.216 54.554c0-.208-.013-.416-.104-.608a.482.482 0 0 0-.894.018c-.083.18-.096.382-.096.59 0 .195.01.429.116.627.112.21.302.262.43.262a.48.48 0 0 0 .452-.302c.083-.179.096-.382.096-.587zm-.216-.031c0 .195 0 .371-.028.538-.039.247-.188.325-.305.325-.101 0-.254-.065-.3-.315-.03-.156-.03-.395-.03-.548 0-.167 0-.338.021-.48.05-.308.244-.331.31-.331.085 0 .257.046.306.304.026.145.026.343.026.507M101.828 55.248a.139.139 0 0 0-.138-.138.139.139 0 0 0-.138.138c0 .075.063.138.138.138a.139.139 0 0 0 .138-.138M103.203 54.863c0-.309-.214-.57-.494-.57a.458.458 0 0 0-.33.133v-.507a.83.83 0 0 0 .22.034c.32 0 .502-.237.502-.27 0-.016-.007-.029-.026-.029 0 0-.007 0-.02.008a.863.863 0 0 1-.7.002c-.02-.007-.03-.007-.03-.007-.027 0-.027.02-.027.062v.77c0 .047 0 .067.036.067.019 0 .024-.007.034-.023.029-.042.125-.182.336-.182.135 0 .2.12.22.167a.798.798 0 0 1 .048.327c0 .09 0 .247-.063.356a.325.325 0 0 1-.278.17.406.406 0 0 1-.383-.292c.008.002.016.005.045.005.086 0 .13-.065.13-.127a.125.125 0 0 0-.13-.128c-.037 0-.128.019-.128.138 0 .224.18.476.471.476.302 0 .567-.25.567-.58M104.532 54.949a.47.47 0 0 0-.127-.32c-.05-.055-.091-.08-.258-.184.187-.097.315-.232.315-.403 0-.24-.231-.388-.468-.388-.26 0-.47.193-.47.435 0 .046.005.163.114.285.028.032.125.097.19.14-.151.076-.375.222-.375.48 0 .275.265.45.538.45.294 0 .541-.217.541-.495zm-.184-.907c0 .148-.102.273-.257.364l-.323-.208c-.12-.078-.13-.167-.13-.21 0-.16.17-.269.353-.269.19 0 .357.135.357.323zm.054 1c0 .193-.195.328-.408.328-.223 0-.41-.16-.41-.377 0-.15.082-.317.304-.439l.32.202c.072.05.194.128.194.287"/></g><g stroke-width="1.348"><path d="M109.077 55.025c0-.027-.02-.027-.03-.027-.024 0-.027.008-.04.037-.112.27-.25.333-.338.333-.054 0-.08-.034-.08-.12 0-.062.005-.08.015-.125l.193-.767h.244c.052 0 .078 0 .078-.052 0-.028-.026-.028-.073-.028h-.228c.093-.37.106-.422.106-.437 0-.044-.031-.07-.075-.07-.008 0-.08.002-.104.093l-.102.414h-.244c-.052 0-.078 0-.078.05 0 .03.02.03.072.03h.23c-.188.739-.198.783-.198.83 0 .14.098.239.239.239.265 0 .413-.38.413-.4M111.785 54.494c0-.052-.05-.052-.086-.052h-1.558c-.036 0-.086 0-.086.052s.05.052.089.052h1.552c.039 0 .089 0 .089-.052zm0 .504c0-.052-.05-.052-.089-.052h-1.552c-.04 0-.089 0-.089.052s.05.052.086.052h1.558c.036 0 .086 0 .086-.052M113.909 54.967v-.08h-.26v-1.183c0-.052 0-.068-.042-.068-.023 0-.03 0-.052.031l-.798 1.22v.08h.691v.226c0 .094-.005.123-.197.123h-.055v.08c.107-.008.242-.008.351-.008.11 0 .247 0 .354.008v-.08h-.054c-.193 0-.198-.029-.198-.123v-.226zm-.445-.08h-.634l.634-.97zM114.481 55.402c0-.172-.064-.274-.166-.274a.134.134 0 0 0-.138.138c0 .07.052.138.138.138.031 0 .065-.01.09-.034l.014-.008s.005.003.005.04a.626.626 0 0 1-.177.433c-.028.029-.028.034-.028.042 0 .018.013.029.026.029.028 0 .237-.2.237-.504M115.968 55.029c.012.133.02.26.02.375a.42.42 0 0 1 .068-.008c.019 0 .035 0 .054.005a.93.93 0 0 0 .247.03c.153 0 .433-.073.433-.343 0-.185-.133-.293-.318-.361-.166-.06-.272-.104-.272-.254 0-.11.098-.173.19-.173.06 0 .218.021.253.252.017.017.071.014.087-.002.008-.098.014-.199.016-.288-.084-.014-.214-.052-.356-.052-.201 0-.383.13-.383.305 0 .198.09.282.299.37.226.092.277.149.277.266 0 .133-.13.19-.23.19-.107 0-.167-.035-.194-.065-.06-.063-.09-.182-.106-.25-.016-.016-.068-.014-.085.003M117.463 54.321c.017-.016.017-.073 0-.09a5.544 5.544 0 0 1-.522 0c-.016.017-.016.074 0 .09.128.014.158.041.215.183l.356.878c.017.038.038.055.065.055.025 0 .047-.017.066-.06l.275-.67.28.675c.016.038.038.055.065.055.024 0 .046-.017.063-.058l.353-.862c.046-.108.093-.188.231-.196.016-.016.016-.073 0-.09a3.42 3.42 0 0 1-.195.006c-.082 0-.196-.003-.278-.006-.016.017-.016.074 0 .09.204.011.174.09.136.185l-.225.566c-.028.068-.039.068-.063.01l-.234-.595c-.05-.128-.044-.155.1-.166.017-.016.017-.073 0-.09-.081.003-.19.006-.271.006-.069 0-.158-.003-.24-.006-.016.017-.016.074 0 .09.128.014.158.093.207.213l.019.043-.19.481c-.036.09-.044.096-.08.006l-.217-.56c-.05-.131-.046-.175.084-.183M119.264 54.637c.051-.308.242-.332.307-.332.104 0 .226.057.226.285 0 .025-.011.038-.04.038zm.712.514a.405.405 0 0 1-.337.147c-.098 0-.212-.057-.296-.196a.72.72 0 0 1-.087-.373l.723.006c.033 0 .052-.017.052-.046 0-.229-.082-.474-.46-.474-.236 0-.544.226-.544.64 0 .152.038.299.128.402.093.109.22.174.416.174a.559.559 0 0 0 .463-.237c-.009-.027-.025-.04-.058-.043M120.52 54.637c.052-.308.242-.332.307-.332.104 0 .226.057.226.285 0 .025-.01.038-.04.038zm.713.514a.405.405 0 0 1-.337.147c-.099 0-.212-.057-.297-.196a.72.72 0 0 1-.087-.373l.723.006c.033 0 .052-.017.052-.046 0-.229-.081-.474-.46-.474-.236 0-.544.226-.544.64 0 .152.039.299.128.402.093.109.22.174.416.174a.559.559 0 0 0 .463-.237c-.008-.027-.025-.04-.057-.043M121.889 54.504c.07-.087.193-.169.275-.169.174 0 .323.196.323.503 0 .223-.079.5-.383.5-.049 0-.144-.013-.193-.056-.058-.05-.065-.063-.065-.164v-.495c0-.057.01-.079.043-.12zm-.052-.101a.92.92 0 0 0-.022-.18c-.008-.01-.01-.022-.032-.022-.076.03-.147.055-.335.08-.005.016 0 .06.006.075.147.015.176.028.176.186v1.161c0 .226-.03.24-.195.248-.017.016-.017.073 0 .09.095-.003.195-.006.304-.006.11 0 .24.003.33.005.016-.016.016-.073 0-.09-.194-.01-.223-.021-.223-.247v-.294c0-.035.007-.03.038-.019.065.027.149.041.236.041a.56.56 0 0 0 .4-.152.687.687 0 0 0 .201-.514c0-.289-.204-.555-.481-.555-.128 0-.267.084-.373.204-.016.02-.03.016-.03-.011M125.434 54.502c0-.052-.05-.052-.086-.052h-1.557c-.037 0-.086 0-.086.052s.05.052.088.052h1.552c.04 0 .089 0 .089-.052zm0 .504c0-.052-.05-.052-.089-.052h-1.552c-.039 0-.088 0-.088.052s.05.052.086.052h1.557c.036 0 .086 0 .086-.052M127.503 54.572c0-.208-.013-.416-.104-.608a.482.482 0 0 0-.894.018c-.083.18-.096.382-.096.59 0 .195.01.43.117.627.111.21.302.262.429.262a.48.48 0 0 0 .452-.302c.083-.179.096-.382.096-.587zm-.215-.031c0 .195 0 .371-.029.538-.039.247-.187.325-.304.325-.102 0-.255-.065-.302-.315-.028-.156-.028-.395-.028-.548 0-.167 0-.338.02-.479.05-.31.245-.332.31-.332.086 0 .257.046.306.304.027.146.027.343.027.507M128.115 55.266a.139.139 0 0 0-.138-.138.139.139 0 0 0-.137.138c0 .075.062.138.137.138a.139.139 0 0 0 .138-.138M129.51 54.873c0-.33-.23-.58-.52-.58-.176 0-.272.134-.324.258v-.062c0-.658.323-.752.455-.752.062 0 .171.016.228.104-.038 0-.142 0-.142.117 0 .08.062.12.12.12.041 0 .119-.024.119-.125 0-.156-.114-.28-.33-.28-.333 0-.684.335-.684.91 0 .693.301.878.543.878.289 0 .536-.245.536-.588zm-.233-.002c0 .125 0 .255-.044.348-.079.156-.198.17-.258.17-.164 0-.242-.157-.257-.196-.047-.122-.047-.33-.047-.377 0-.203.083-.462.318-.462.04 0 .16 0 .241.16.047.097.047.23.047.357M130.82 54.967a.47.47 0 0 0-.128-.32c-.05-.054-.091-.08-.257-.184.187-.097.314-.232.314-.403 0-.24-.23-.388-.468-.388-.26 0-.47.193-.47.435 0 .046.005.163.114.286.029.03.125.096.19.14-.15.075-.375.221-.375.478 0 .276.266.45.539.45.293 0 .54-.216.54-.494zm-.185-.907c0 .148-.101.273-.257.364l-.323-.208c-.12-.078-.13-.167-.13-.21 0-.16.17-.269.354-.269.19 0 .356.135.356.323zm.055 1c0 .193-.195.328-.409.328-.223 0-.41-.16-.41-.377 0-.15.083-.317.304-.439l.32.202c.073.05.195.128.195.287"/></g><g stroke-width="1.348"><path d="M135.499 55.02c0-.027-.021-.027-.031-.027-.024 0-.026.008-.039.037-.112.27-.25.332-.338.332-.055 0-.08-.034-.08-.12 0-.062.004-.08.015-.124l.192-.767h.244c.052 0 .078 0 .078-.052 0-.028-.026-.028-.072-.028h-.229c.093-.37.106-.422.106-.437 0-.045-.03-.07-.075-.07-.008 0-.08.002-.104.093l-.101.414h-.245c-.052 0-.078 0-.078.049 0 .031.021.031.073.031h.229c-.187.739-.197.783-.197.83 0 .14.098.239.238.239.266 0 .414-.38.414-.4M138.206 54.489c0-.052-.05-.052-.086-.052h-1.557c-.037 0-.086 0-.086.052s.05.052.088.052h1.553c.038 0 .088 0 .088-.052zm0 .504c0-.052-.05-.052-.088-.052h-1.553c-.039 0-.088 0-.088.052s.05.052.086.052h1.557c.036 0 .086 0 .086-.052M140.273 54.868c0-.309-.213-.569-.494-.569a.458.458 0 0 0-.33.133v-.507a.83.83 0 0 0 .221.034c.32 0 .502-.237.502-.27 0-.017-.008-.03-.026-.03 0 0-.008 0-.021.008a.863.863 0 0 1-.7.003c-.02-.008-.03-.008-.03-.008-.027 0-.027.02-.027.063v.77c0 .046 0 .067.037.067.018 0 .023-.008.034-.024.028-.041.124-.182.335-.182.135 0 .2.12.22.167a.798.798 0 0 1 .048.327c0 .091 0 .247-.063.356a.325.325 0 0 1-.278.17.406.406 0 0 1-.382-.292c.008.003.015.006.044.006.086 0 .13-.065.13-.128a.125.125 0 0 0-.13-.128c-.036 0-.127.019-.127.138 0 .224.18.476.47.476.302 0 .567-.25.567-.58M140.896 55.397c0-.172-.065-.274-.167-.274a.134.134 0 0 0-.137.138c0 .07.051.138.137.138.031 0 .065-.01.091-.034l.013-.008s.005.003.005.04a.626.626 0 0 1-.176.433c-.029.029-.029.034-.029.042 0 .018.013.029.026.029.029 0 .237-.2.237-.504M142.383 55.024c.01.133.019.26.019.375a.42.42 0 0 1 .068-.008c.02 0 .035 0 .054.005a.93.93 0 0 0 .248.03c.152 0 .432-.073.432-.343 0-.185-.133-.293-.318-.361-.166-.06-.272-.104-.272-.254 0-.11.098-.173.19-.173.06 0 .218.021.254.253.016.016.07.013.087-.003.007-.098.013-.199.016-.288-.085-.014-.215-.052-.357-.052-.2 0-.383.13-.383.305 0 .198.09.283.3.37.225.092.276.149.276.266 0 .133-.13.19-.23.19-.107 0-.167-.035-.194-.065-.06-.063-.09-.182-.106-.25-.016-.016-.068-.014-.084.003M143.877 54.316c.017-.016.017-.073 0-.09a5.544 5.544 0 0 1-.522 0c-.016.017-.016.074 0 .09.128.014.158.041.215.183l.357.878c.016.038.038.055.065.055.024 0 .046-.017.065-.06l.275-.67.28.675c.016.038.038.055.066.055.024 0 .046-.017.062-.058l.353-.862c.046-.108.093-.188.232-.196.016-.016.016-.073 0-.09a3.42 3.42 0 0 1-.196.006c-.082 0-.196-.003-.278-.006-.016.017-.016.074 0 .09.204.011.174.09.136.185l-.225.566c-.028.068-.038.068-.063.01l-.234-.595c-.049-.128-.043-.155.1-.166.017-.016.017-.073 0-.09-.08.003-.19.006-.271.006-.069 0-.158-.003-.24-.006-.016.017-.016.074 0 .09.128.014.158.093.207.213l.02.043-.191.481c-.036.09-.044.096-.08.006l-.217-.56c-.049-.131-.046-.174.084-.183M145.678 54.632c.052-.308.242-.332.307-.332.104 0 .226.057.226.285 0 .025-.01.038-.04.038zm.713.514a.405.405 0 0 1-.338.147c-.098 0-.212-.057-.296-.196a.72.72 0 0 1-.087-.373l.723.006c.033 0 .052-.017.052-.046 0-.229-.081-.474-.46-.474-.236 0-.544.226-.544.64 0 .152.038.299.128.402.093.109.22.174.416.174a.559.559 0 0 0 .463-.236c-.009-.028-.025-.041-.057-.044M146.934 54.632c.052-.308.243-.332.308-.332.103 0 .225.057.225.285 0 .025-.01.038-.04.038zm.713.514a.405.405 0 0 1-.337.147c-.098 0-.212-.057-.297-.196a.72.72 0 0 1-.087-.373l.724.006c.032 0 .051-.017.051-.046 0-.229-.081-.474-.46-.474-.236 0-.543.226-.543.64 0 .152.038.299.128.402.092.109.22.174.416.174a.559.559 0 0 0 .462-.236c-.008-.028-.024-.041-.057-.044M148.303 54.499c.071-.087.193-.169.275-.169.174 0 .324.196.324.503 0 .223-.08.5-.384.5-.049 0-.144-.013-.193-.056-.057-.05-.065-.063-.065-.164v-.495c0-.057.01-.079.043-.12zm-.051-.101a.92.92 0 0 0-.022-.18c-.009-.01-.011-.021-.033-.021-.076.03-.147.054-.335.079-.005.016 0 .06.006.075.147.015.177.028.177.186v1.161c0 .226-.03.24-.196.248-.017.016-.017.073 0 .09.095-.003.196-.006.305-.006.108 0 .239.003.329.005.016-.016.016-.073 0-.09-.193-.01-.223-.021-.223-.247v-.294c0-.035.008-.03.038-.019.065.028.15.041.236.041a.56.56 0 0 0 .4-.152.687.687 0 0 0 .201-.514c0-.289-.204-.555-.481-.555-.128 0-.266.084-.372.204-.017.02-.03.016-.03-.011M151.848 54.497c0-.052-.05-.052-.086-.052h-1.557c-.037 0-.086 0-.086.052s.05.052.088.052h1.553c.038 0 .088 0 .088-.052zm0 .504c0-.052-.05-.052-.088-.052h-1.553c-.039 0-.088 0-.088.052s.05.052.086.052h1.557c.036 0 .086 0 .086-.052M153.917 54.567c0-.208-.012-.416-.103-.608a.482.482 0 0 0-.895.018c-.083.18-.096.382-.096.59 0 .195.01.43.117.627.112.21.302.262.429.262a.48.48 0 0 0 .452-.302c.084-.179.096-.382.096-.587zm-.215-.031c0 .195 0 .371-.029.538-.038.247-.187.325-.304.325-.101 0-.255-.065-.301-.315-.029-.156-.029-.395-.029-.548 0-.167 0-.338.02-.479.05-.31.245-.332.31-.332.086 0 .257.046.307.304.026.146.026.343.026.507M154.53 55.261a.139.139 0 0 0-.138-.138.139.139 0 0 0-.138.138c0 .075.062.138.138.138a.139.139 0 0 0 .138-.138M155.998 53.725h-.632c-.317 0-.322-.034-.333-.084h-.065l-.086.536h.066c.007-.042.03-.205.065-.237.018-.015.22-.015.254-.015h.539l-.292.41a1.82 1.82 0 0 0-.32.978c0 .026 0 .143.12.143s.12-.117.12-.143v-.132c0-.144.008-.286.028-.427.01-.06.047-.283.162-.445l.35-.494c.024-.03.024-.036.024-.09M157.234 54.954c0-.213-.164-.416-.434-.47.213-.07.364-.253.364-.458 0-.213-.23-.359-.479-.359-.262 0-.46.156-.46.354 0 .085.057.135.133.135.08 0 .132-.057.132-.132 0-.13-.122-.13-.161-.13.08-.128.252-.162.346-.162.106 0 .25.058.25.292a.65.65 0 0 1-.073.296c-.079.125-.167.132-.232.135a1.27 1.27 0 0 1-.101.008c-.021.003-.04.005-.04.031 0 .029.019.029.063.029h.114c.214 0 .31.177.31.431 0 .354-.18.43-.294.43-.112 0-.307-.045-.398-.198.091.012.172-.044.172-.143 0-.094-.07-.146-.146-.146-.062 0-.145.037-.145.15 0 .237.242.41.525.41.317 0 .554-.238.554-.503"/></g></g></svg>