<svg xmlns="http://www.w3.org/2000/svg" xmlns:osb="http://www.openswatchbook.org/uri/2009/osb" viewBox="0 0 160 90"><defs><linearGradient id="b" gradientTransform="translate(181.914 -49.986)" osb:paint="solid"><stop offset="0" stop-color="#43d1a1"/></linearGradient><linearGradient id="a"><stop offset="0"/><stop offset="1" stop-opacity="0"/></linearGradient></defs><g fill="url(#b)" font-family="sans-serif" font-size="4.233" font-weight="400" letter-spacing="0" transform="translate(-15.478 .86)" word-spacing="0"><path style="line-height:125%" d="M147.243 39.4v-.38q.157.075.318.114.161.04.316.04.414 0 .63-.278.22-.279.25-.845-.119.177-.303.273-.184.095-.407.095-.463 0-.734-.28-.269-.28-.269-.766 0-.476.281-.763.281-.287.749-.287.535 0 .816.411.283.41.283 1.19 0 .73-.347 1.166-.345.435-.93.435-.157 0-.318-.031-.162-.031-.335-.094zm.83-1.308q.282 0 .445-.192.165-.192.165-.527 0-.333-.165-.525-.163-.195-.444-.195t-.447.195q-.163.192-.163.525 0 .335.163.527.166.192.447.192zM149.938 39.4v-.38q.157.075.318.114.162.04.317.04.413 0 .63-.278.22-.279.25-.845-.12.177-.304.273-.184.095-.407.095-.463 0-.734-.28-.268-.28-.268-.766 0-.476.28-.763.282-.287.75-.287.534 0 .816.411.283.41.283 1.19 0 .73-.348 1.166-.345.435-.93.435-.157 0-.318-.031t-.335-.094zm.831-1.308q.281 0 .445-.192.165-.192.165-.527 0-.333-.165-.525-.164-.195-.445-.195t-.446.195q-.164.192-.164.525 0 .335.164.527.165.192.446.192zM152.634 39.4v-.38q.157.075.318.114.161.04.316.04.414 0 .63-.278.22-.279.25-.845-.12.177-.303.273-.184.095-.407.095-.463 0-.734-.28-.269-.28-.269-.766 0-.476.281-.763.281-.287.749-.287.535 0 .816.411.283.41.283 1.19 0 .73-.347 1.166-.345.435-.93.435-.157 0-.319-.031-.16-.031-.334-.094zm.83-1.308q.282 0 .445-.192.165-.192.165-.527 0-.333-.165-.525-.163-.195-.444-.195-.282 0-.447.195-.163.192-.163.525 0 .335.163.527.165.192.447.192zM155.329 39.4v-.38q.157.075.318.114.162.04.317.04.413 0 .63-.278.22-.279.25-.845-.12.177-.304.273-.184.095-.407.095-.463 0-.734-.28-.268-.28-.268-.766 0-.476.28-.763.282-.287.749-.287.535 0 .816.411.284.41.284 1.19 0 .73-.348 1.166-.345.435-.93.435-.157 0-.318-.031t-.335-.094zm.831-1.308q.281 0 .444-.192.166-.192.166-.527 0-.333-.166-.525-.163-.195-.444-.195t-.447.195q-.163.192-.163.525 0 .335.163.527.166.192.447.192z"/></g></svg>