<svg xmlns="http://www.w3.org/2000/svg" xmlns:osb="http://www.openswatchbook.org/uri/2009/osb" viewBox="0 0 160 90"><defs><linearGradient id="b" gradientTransform="matrix(.00034 0 0 .00038 18.178 13.227)" osb:paint="solid"><stop offset="0" stop-color="#f9ae65"/></linearGradient><linearGradient id="a"><stop offset="0"/><stop offset="1" stop-opacity="0"/></linearGradient></defs><g fill="url(#b)" font-family="sans-serif" font-size="4.233" font-weight="400" letter-spacing="0" transform="translate(-21.209 .86)" word-spacing="0"><path style="line-height:125%" d="M125.74 39.113h.681V36.76l-.742.149v-.38l.738-.15h.418v2.735h.682v.352h-1.778zM129.627 37.8q.3.065.467.267.17.203.17.5 0 .457-.314.707-.314.25-.893.25-.195 0-.401-.039-.205-.037-.424-.113v-.404q.174.102.38.153.207.052.432.052.393 0 .598-.155.206-.155.206-.45 0-.273-.192-.426-.19-.155-.531-.155h-.36v-.343h.376q.308 0 .472-.122.163-.124.163-.356 0-.238-.17-.364-.167-.128-.481-.128-.172 0-.368.037t-.432.116v-.372q.238-.066.444-.1.21-.032.393-.032.476 0 .753.217.277.215.277.583 0 .256-.147.434-.147.175-.418.244z"/></g></svg>