<?xml version="1.0" encoding="UTF-8" standalone="no"?>
<!-- Created with Inkscape (http://www.inkscape.org/) -->

<svg
   xmlns:osb="http://www.openswatchbook.org/uri/2009/osb"
   xmlns:dc="http://purl.org/dc/elements/1.1/"
   xmlns:cc="http://creativecommons.org/ns#"
   xmlns:rdf="http://www.w3.org/1999/02/22-rdf-syntax-ns#"
   xmlns:svg="http://www.w3.org/2000/svg"
   xmlns="http://www.w3.org/2000/svg"
   xmlns:xlink="http://www.w3.org/1999/xlink"
   xmlns:sodipodi="http://sodipodi.sourceforge.net/DTD/sodipodi-0.dtd"
   xmlns:inkscape="http://www.inkscape.org/namespaces/inkscape"
   width="160mm"
   height="90mm"
   viewBox="0 0 160 90"
   version="1.1"
   id="svg8"
   inkscape:version="0.92.3 (2405546, 2018-03-11)"
   sodipodi:docname="labels.svg">
  <defs
     id="defs2">
    <linearGradient
       id="linearGradient858"
       osb:paint="solid">
      <stop
         style="stop-color:#414141;stop-opacity:1;"
         offset="0"
         id="stop856" />
    </linearGradient>
    <linearGradient
       id="linearGradient850"
       osb:paint="solid"
       gradientTransform="matrix(0,0,0,0,-65.696329,198.35995)">
      <stop
         style="stop-color:#f0f0f0;stop-opacity:1;"
         offset="0"
         id="stop848" />
    </linearGradient>
    <linearGradient
       id="linearGradient844"
       osb:paint="solid"
       gradientTransform="matrix(0,-0.00190631,0.00143967,0,80.124342,31.054316)">
      <stop
         style="stop-color:#ac88e6;stop-opacity:1;"
         offset="0"
         id="stop842" />
    </linearGradient>
    <linearGradient
       id="linearGradient838"
       osb:paint="solid"
       gradientTransform="matrix(0.00491812,0,0,0.00539182,116.25689,38.700382)">
      <stop
         style="stop-color:#f9ae65;stop-opacity:1;"
         offset="0"
         id="stop836" />
    </linearGradient>
    <linearGradient
       id="linearGradient832"
       osb:paint="solid"
       gradientTransform="translate(177.8219,-58.334867)">
      <stop
         style="stop-color:#43d1a1;stop-opacity:1;"
         offset="0"
         id="stop830" />
    </linearGradient>
    <linearGradient
       inkscape:collect="always"
       id="linearGradient886">
      <stop
         style="stop-color:#000000;stop-opacity:1;"
         offset="0"
         id="stop882" />
      <stop
         style="stop-color:#000000;stop-opacity:0;"
         offset="1"
         id="stop884" />
    </linearGradient>
    <linearGradient
       inkscape:collect="always"
       xlink:href="#linearGradient886"
       id="linearGradient888"
       x1="28.934879"
       y1="282.85501"
       x2="108.53338"
       y2="282.85501"
       gradientUnits="userSpaceOnUse" />
  </defs>
  <sodipodi:namedview
     id="base"
     pagecolor="#ffffff"
     bordercolor="#666666"
     borderopacity="1.0"
     inkscape:pageopacity="0.0"
     inkscape:pageshadow="2"
     inkscape:zoom="5.6568542"
     inkscape:cx="487.61468"
     inkscape:cy="110.61863"
     inkscape:document-units="mm"
     inkscape:current-layer="layer2"
     showgrid="false"
     inkscape:window-width="3200"
     inkscape:window-height="1752"
     inkscape:window-x="0"
     inkscape:window-y="48"
     inkscape:window-maximized="1"
     showguides="false"
     inkscape:guide-bbox="true">
    <sodipodi:guide
       position="80,34.561199"
       orientation="1,0"
       id="guide895"
       inkscape:locked="false"
       inkscape:label=""
       inkscape:color="rgb(0,0,255)" />
    <sodipodi:guide
       position="144.28019,73.537002"
       orientation="1,0"
       id="guide888"
       inkscape:locked="false" />
    <sodipodi:guide
       position="105.00058,45.592321"
       orientation="0,1"
       id="guide1042"
       inkscape:locked="false" />
  </sodipodi:namedview>
  <metadata
     id="metadata5">
    <rdf:RDF>
      <cc:Work
         rdf:about="">
        <dc:format>image/svg+xml</dc:format>
        <dc:type
           rdf:resource="http://purl.org/dc/dcmitype/StillImage" />
        <dc:title />
      </cc:Work>
    </rdf:RDF>
  </metadata>
  <g
     inkscape:groupmode="layer"
     id="layer2"
     inkscape:label="bgk"
     sodipodi:insensitive="true">
    <rect
       style="opacity:1;fill:#414141;fill-opacity:1;stroke:none;stroke-width:0.74999994;stroke-linecap:round;stroke-linejoin:bevel;stroke-miterlimit:4;stroke-dasharray:none;stroke-dashoffset:0;stroke-opacity:1;paint-order:stroke fill markers"
       id="rect862"
       width="160"
       height="90"
       x="1.9984014e-15"
       y="0" />
  </g>
  <g
     inkscape:groupmode="layer"
     id="layer1"
     inkscape:label="t0">
    <path
       d="m 6.1984761,55.065862 c 0,-0.02617 -0.020939,-0.02617 -0.031146,-0.02617 -0.023294,0 -0.026173,0.0076 -0.038736,0.03638 -0.1122831,0.270369 -0.2499541,0.332923 -0.3384195,0.332923 -0.054178,0 -0.080352,-0.03402 -0.080352,-0.119611 0,-0.06255 0.00523,-0.08035 0.015442,-0.125108 L 5.9178994,54.39766 h 0.244196 c 0.051823,0 0.077996,0 0.077996,-0.05209 0,-0.02853 -0.026173,-0.02853 -0.072762,-0.02853 H 5.938838 c 0.093177,-0.369304 0.1062632,-0.421389 0.1062632,-0.436831 0,-0.04423 -0.031146,-0.07041 -0.075379,-0.07041 -0.00759,0 -0.080352,0.0029 -0.1039076,0.0937 L 5.7645245,54.317047 H 5.5200668 c -0.052085,0 -0.078258,0 -0.078258,0.04947 0,0.03115 0.020939,0.03115 0.072762,0.03115 H 5.7435859 C 5.5564475,55.136006 5.54624,55.180239 5.54624,55.226827 c 0,0.140288 0.098411,0.239223 0.2386995,0.239223 0.2653963,0 0.4135366,-0.379511 0.4135366,-0.400188"
       style="fill:url(#linearGradient850);fill-opacity:1;fill-rule:nonzero;stroke:none;stroke-width:0.03527778"
       id="path232"
       inkscape:connector-curvature="0" />
    <path
       d="m 8.9320051,54.535331 c 0,-0.05182 -0.049729,-0.05182 -0.08611,-0.05182 H 7.2885899 c -0.036381,0 -0.085848,0 -0.085848,0.05182 0,0.05208 0.049467,0.05208 0.088465,0.05208 h 1.5523325 c 0.038736,0 0.088465,0 0.088466,-0.05208 z m 0,0.504358 c 0,-0.05209 -0.049729,-0.05209 -0.088465,-0.05209 H 7.2912072 c -0.038998,0 -0.088465,0 -0.088465,0.05209 0,0.05182 0.049467,0.05182 0.085848,0.05182 h 1.5573054 c 0.036381,0 0.08611,0 0.08611,-0.05182"
       style="fill:url(#linearGradient850);fill-opacity:1;fill-rule:nonzero;stroke:none;stroke-width:0.03527778"
       id="path234"
       inkscape:connector-curvature="0" />
  </g>
  <g
     inkscape:groupmode="layer"
     id="layer4"
     inkscape:label="ts">
    <g
       id="g1368">
      <path
         inkscape:connector-curvature="0"
         id="path236"
         style="fill:url(#linearGradient850);fill-opacity:1;fill-rule:nonzero;stroke:none;stroke-width:0.03527778"
         d="m 11.001258,54.605737 c 0,-0.208077 -0.01282,-0.416416 -0.103907,-0.608527 -0.11935,-0.249431 -0.332923,-0.291308 -0.442066,-0.291308 -0.15573,0 -0.345486,0.06753 -0.452273,0.309368 -0.082969,0.179548 -0.096055,0.38239 -0.096055,0.590467 0,0.194729 0.010208,0.428979 0.116732,0.626586 0.11176,0.210433 0.302039,0.262518 0.428979,0.262518 0.140288,0 0.33842,-0.05496 0.452535,-0.301777 0.08323,-0.179287 0.09605,-0.382129 0.09605,-0.587327 z m -0.215667,-0.03141 c 0,0.19499 0,0.37166 -0.02853,0.538121 -0.03874,0.247075 -0.1874,0.325071 -0.304394,0.325071 -0.10129,0 -0.254665,-0.06491 -0.301253,-0.314602 -0.02853,-0.155992 -0.02853,-0.395477 -0.02853,-0.54859 0,-0.166461 0,-0.337896 0.02041,-0.478708 0.04947,-0.309105 0.244457,-0.332399 0.309367,-0.332399 0.08611,0 0.257283,0.04659 0.30675,0.304394 0.02617,0.145523 0.02617,0.343131 0.02617,0.506713" />
      <path
         d="m 10.894995,58.612524 v -0.08061 h -0.08349 c -0.233989,0 -0.24184,-0.02853 -0.24184,-0.124584 v -1.458895 c -1e-6,-0.06203 -1e-6,-0.06753 -0.05968,-0.06753 -0.160965,0.166462 -0.389981,0.166462 -0.473212,0.166462 v 0.08061 c 0.05208,0 0.20546,0 0.340776,-0.06753 v 1.346873 c 0,0.09344 -0.0078,0.124585 -0.242103,0.124585 h -0.08297 v 0.08061 c 0.09082,-0.0078 0.31722,-0.0078 0.421128,-0.0078 0.103907,0 0.330044,0 0.421388,0.0078"
         style="fill:url(#linearGradient850);fill-opacity:1;fill-rule:nonzero;stroke:none;stroke-width:0.03527778"
         id="path256-7"
         inkscape:connector-curvature="0" />
      <path
         d="m 10.999164,61.335253 h -0.06491 c -0.01309,0.078 -0.03167,0.192111 -0.05732,0.231371 -0.01858,0.02042 -0.189755,0.02042 -0.247074,0.02042 h -0.468239 l 0.275604,-0.26749 c 0.405684,-0.358835 0.561938,-0.499123 0.561938,-0.759284 0,-0.296543 -0.23425,-0.504358 -0.551207,-0.504358 -0.294187,0 -0.4862983,0.239223 -0.4862983,0.470855 0,0.145524 0.1300803,0.145524 0.1376713,0.145524 0.04423,0 0.135053,-0.03141 0.135053,-0.137933 0,-0.06779 -0.04659,-0.135315 -0.137671,-0.135315 -0.02068,0 -0.02592,0 -0.03376,0.0026 0.05994,-0.16908 0.199963,-0.265135 0.350983,-0.265135 0.236868,0 0.348365,0.210694 0.348365,0.423744 0,0.208077 -0.13008,0.413537 -0.272986,0.574501 l -0.4991233,0.556706 c -0.02853,0.02853 -0.02853,0.0335 -0.02853,0.09605 h 0.9647443 l 0.07276,-0.452273"
         style="fill:url(#linearGradient850);fill-opacity:1;fill-rule:nonzero;stroke:none;stroke-width:0.03527778"
         id="path270-5"
         inkscape:connector-curvature="0" />
      <path
         d="m 11.01958,64.518107 c 0,-0.213311 -0.163583,-0.416154 -0.433952,-0.470855 0.21305,-0.07041 0.364069,-0.25231 0.364069,-0.457508 0,-0.21305 -0.229015,-0.358834 -0.478446,-0.358834 -0.262517,0 -0.460125,0.155991 -0.460125,0.353338 0,0.08585 0.05732,0.135577 0.132436,0.135577 0.08061,0 0.132437,-0.05732 0.132437,-0.132699 0,-0.13008 -0.122228,-0.13008 -0.160965,-0.13008 0.08061,-0.127464 0.25231,-0.160966 0.34601,-0.160966 0.106263,0 0.24943,0.05732 0.24943,0.291046 0,0.03115 -0.0053,0.182166 -0.07276,0.296543 -0.07826,0.124846 -0.166462,0.132436 -0.231632,0.135054 -0.02068,0.0029 -0.08297,0.0076 -0.101291,0.0076 -0.02094,0.0029 -0.03899,0.0055 -0.03899,0.03167 0,0.02827 0.01806,0.02827 0.06229,0.02827 h 0.114377 c 0.21305,0 0.309629,0.176931 0.309629,0.431858 0,0.353338 -0.179548,0.428979 -0.293925,0.428979 -0.11176,0 -0.30675,-0.04423 -0.398095,-0.197609 0.09134,0.01256 0.171958,-0.04423 0.171958,-0.143167 0,-0.0937 -0.07041,-0.145522 -0.145784,-0.145522 -0.06255,0 -0.1455229,0.03638 -0.1455229,0.150757 0,0.236344 0.2418399,0.408302 0.5250339,0.408302 0.317481,0 0.553825,-0.236868 0.553825,-0.50174"
         style="fill:url(#linearGradient850);fill-opacity:1;fill-rule:nonzero;stroke:none;stroke-width:0.03527778"
         id="path298-9"
         inkscape:connector-curvature="0" />
      <path
         d="m 11.05596,67.708551 v -0.08061 h -0.259638 v -1.183028 c 0,-0.05208 0,-0.06753 -0.04162,-0.06753 -0.0233,0 -0.03115,0 -0.05208,0.03115 l -0.7982829,1.21941 v 0.08061 h 0.6914959 v 0.226136 c 0,0.0937 -0.0053,0.122229 -0.197346,0.122229 h -0.05496 v 0.08061 c 0.106786,-0.0079 0.242102,-0.0079 0.351244,-0.0079 0.109404,0 0.247075,0 0.353339,0.0079 v -0.08061 h -0.05418 c -0.192636,0 -0.197609,-0.02853 -0.197609,-0.122229 v -0.226136 z m -0.444421,-0.08061 H 9.9771011 l 0.6344379,-0.969717 z"
         style="fill:url(#linearGradient850);fill-opacity:1;fill-rule:nonzero;stroke:none;stroke-width:0.03527778"
         id="path326-7"
         inkscape:connector-curvature="0" />
      <path
         d="m 10.99917,70.789851 c 0,-0.309105 -0.213574,-0.569266 -0.49415,-0.569266 -0.125108,0 -0.236606,0.04161 -0.330306,0.132436 v -0.506975 c 0.05182,0.01544 0.137933,0.03402 0.221163,0.03402 0.319837,0 0.50174,-0.236868 0.50174,-0.27037 0,-0.01571 -0.0076,-0.02879 -0.02618,-0.02879 0,0 -0.0076,0 -0.02068,0.0079 -0.05208,0.0233 -0.179547,0.07538 -0.353338,0.07538 -0.10443,0 -0.22378,-0.01806 -0.346009,-0.07302 -0.02094,-0.0076 -0.03115,-0.0076 -0.03115,-0.0076 -0.02618,0 -0.02618,0.02068 -0.02618,0.06255 v 0.769493 c 0,0.04685 0,0.06753 0.03638,0.06753 0.01858,0 0.0233,-0.0076 0.03402,-0.0233 0.02853,-0.04162 0.124584,-0.181904 0.335278,-0.181904 0.135054,0 0.199963,0.11935 0.220902,0.166461 0.04161,0.09606 0.04711,0.197346 0.04711,0.327427 0,0.09082 0,0.247075 -0.06255,0.356217 -0.06229,0.101552 -0.158871,0.169079 -0.278221,0.169079 -0.189756,0 -0.338158,-0.137933 -0.382391,-0.291308 0.0078,0.0024 0.01544,0.0053 0.04423,0.0053 0.08585,0 0.130082,-0.06491 0.130082,-0.127463 0,-0.06255 -0.04423,-0.127726 -0.130082,-0.127726 -0.03638,0 -0.1272014,0.01859 -0.1272014,0.137933 0,0.223781 0.1795474,0.476091 0.4705934,0.476091 0.301516,0 0.566912,-0.249431 0.566912,-0.579999"
         style="fill:url(#linearGradient850);fill-opacity:1;fill-rule:nonzero;stroke:none;stroke-width:0.03527778"
         id="path354-3"
         inkscape:connector-curvature="0" />
    </g>
  </g>
  <g
     inkscape:groupmode="layer"
     id="layer3"
     inkscape:label="t1"
     style="display:inline">
    <g
       id="g1377">
      <path
         inkscape:connector-curvature="0"
         id="path238"
         style="fill:url(#linearGradient850);fill-opacity:1;fill-rule:nonzero;stroke:none;stroke-width:0.03527778"
         d="m 11.641978,55.435166 c 0,-0.171958 -0.06491,-0.273249 -0.166461,-0.273249 -0.08585,0 -0.137671,0.06491 -0.137671,0.137671 0,0.07041 0.05182,0.137933 0.137671,0.137933 0.03115,0 0.06517,-0.01021 0.09082,-0.03402 0.0079,-0.0047 0.01309,-0.0076 0.01309,-0.0076 0,0 0.0052,0.0029 0.0052,0.03926 0,0.192111 -0.09108,0.348365 -0.176931,0.43369 -0.02853,0.02879 -0.02853,0.03402 -0.02853,0.04188 0,0.01832 0.01309,0.02853 0.02617,0.02853 0.02853,0 0.236605,-0.200225 0.236605,-0.504095" />
      <path
         inkscape:connector-curvature="0"
         id="path240"
         style="fill:url(#linearGradient850);fill-opacity:1;fill-rule:nonzero;stroke:none;stroke-width:0.03527778"
         d="m 14.236004,54.447127 c 0.01021,-0.03638 0.01021,-0.04188 0.01021,-0.05994 0,-0.04685 -0.03638,-0.07014 -0.07512,-0.07014 -0.02617,0 -0.06753,0.01544 -0.09134,0.05444 -0.0047,0.01309 -0.02565,0.09344 -0.03638,0.14055 l -0.05182,0.207815 -0.116994,0.468239 c -0.01021,0.03874 -0.122229,0.220901 -0.293663,0.220901 -0.13296,0 -0.161227,-0.114638 -0.161227,-0.210694 0,-0.11935 0.04423,-0.2811 0.132698,-0.509592 0.04109,-0.106787 0.05182,-0.135315 0.05182,-0.1874 0,-0.116733 -0.08349,-0.21305 -0.21305,-0.21305 -0.247075,0 -0.343392,0.377156 -0.343392,0.40045 0,0.02617 0.03141,0.02617 0.03141,0.02617 0.02565,0 0.02853,-0.0052 0.04135,-0.04711 0.07014,-0.243934 0.174052,-0.322192 0.262518,-0.322192 0.02068,0 0.06491,0 0.06491,0.08297 0,0.06517 -0.02565,0.132698 -0.04423,0.182166 -0.103646,0.275604 -0.150496,0.424006 -0.150496,0.545973 0,0.231371 0.163583,0.309367 0.316958,0.309367 0.101552,0 0.189756,-0.04397 0.262779,-0.116994 -0.03376,0.135053 -0.06517,0.262779 -0.169079,0.40045 -0.06753,0.08847 -0.166462,0.163582 -0.285811,0.163582 -0.03638,0 -0.153375,-0.0079 -0.197608,-0.109142 0.04135,0 0.07538,0 0.11176,-0.03115 0.02617,-0.02329 0.05182,-0.05732 0.05182,-0.106787 0,-0.08035 -0.07014,-0.09056 -0.09605,-0.09056 -0.05968,0 -0.145523,0.04162 -0.145523,0.168817 0,0.130081 0.114377,0.226137 0.275604,0.226137 0.267751,0 0.535242,-0.236344 0.608003,-0.530531 l 0.249954,-0.99275" />
      <path
         inkscape:connector-curvature="0"
         id="path242"
         style="fill:url(#linearGradient850);fill-opacity:1;fill-rule:nonzero;stroke:none;stroke-width:0.03527778"
         d="m 16.967178,54.535331 c 0,-0.05182 -0.04973,-0.05182 -0.08611,-0.05182 h -1.557306 c -0.03638,0 -0.08585,0 -0.08585,0.05182 0,0.05208 0.04947,0.05208 0.08847,0.05208 h 1.552332 c 0.03874,0 0.08847,0 0.08847,-0.05208 z m 0,0.504358 c 0,-0.05209 -0.04973,-0.05209 -0.08847,-0.05209 H 15.32638 c -0.039,0 -0.08847,0 -0.08847,0.05209 0,0.05182 0.04947,0.05182 0.08585,0.05182 h 1.557306 c 0.03638,0 0.08611,0 0.08611,-0.05182" />
      <path
         inkscape:connector-curvature="0"
         id="path244"
         style="fill:url(#linearGradient850);fill-opacity:1;fill-rule:nonzero;stroke:none;stroke-width:0.03527778"
         d="m 19.036431,54.605737 c 0,-0.208077 -0.01282,-0.416416 -0.103908,-0.608527 -0.11935,-0.249431 -0.332923,-0.291308 -0.442065,-0.291308 -0.155731,0 -0.345486,0.06753 -0.452273,0.309368 -0.08297,0.179548 -0.09606,0.38239 -0.09606,0.590467 0,0.194729 0.01021,0.428979 0.116733,0.626586 0.111759,0.210433 0.302038,0.262518 0.428978,0.262518 0.140289,0 0.33842,-0.05496 0.452535,-0.301777 0.08323,-0.179287 0.09606,-0.382129 0.09606,-0.587327 z m -0.215667,-0.03141 c 0,0.19499 0,0.37166 -0.02853,0.538121 -0.03874,0.247075 -0.1874,0.325071 -0.304395,0.325071 -0.10129,0 -0.254665,-0.06491 -0.301253,-0.314602 -0.02853,-0.155992 -0.02853,-0.395477 -0.02853,-0.54859 0,-0.166461 0,-0.337896 0.02041,-0.478708 0.04947,-0.309105 0.244458,-0.332399 0.309367,-0.332399 0.08611,0 0.257283,0.04659 0.30675,0.304394 0.02617,0.145523 0.02617,0.343131 0.02617,0.506713" />
      <path
         inkscape:connector-curvature="0"
         id="path246"
         style="fill:url(#linearGradient850);fill-opacity:1;fill-rule:nonzero;stroke:none;stroke-width:0.03527778"
         d="m 19.648622,55.299588 c 0,-0.07512 -0.06255,-0.137671 -0.137933,-0.137671 -0.07564,0 -0.137671,0.06255 -0.137671,0.137671 0,0.07538 0.06203,0.137933 0.137671,0.137933 0.07538,0 0.137933,-0.06255 0.137933,-0.137933" />
      <path
         inkscape:connector-curvature="0"
         id="path248"
         style="fill:url(#linearGradient850);fill-opacity:1;fill-rule:nonzero;stroke:none;stroke-width:0.03527778"
         d="m 21.043915,54.9931 c 0,-0.213311 -0.163582,-0.416154 -0.433952,-0.470856 0.21305,-0.07041 0.36407,-0.252309 0.36407,-0.457507 0,-0.21305 -0.229016,-0.358835 -0.478446,-0.358835 -0.262518,0 -0.460125,0.155993 -0.460125,0.353338 0,0.08585 0.05732,0.135578 0.132436,0.135578 0.08061,0 0.132437,-0.05732 0.132437,-0.132698 0,-0.130081 -0.122229,-0.130081 -0.160966,-0.130081 0.08061,-0.127464 0.25231,-0.160965 0.34601,-0.160965 0.106263,0 0.249431,0.05732 0.249431,0.291046 0,0.03115 -0.0052,0.182165 -0.07276,0.296542 -0.07826,0.124846 -0.166461,0.132436 -0.231633,0.135054 -0.02068,0.0029 -0.08297,0.0076 -0.10129,0.0076 -0.02094,0.0029 -0.039,0.0055 -0.039,0.03167 0,0.02827 0.01806,0.02827 0.06229,0.02827 h 0.114377 c 0.21305,0 0.309629,0.176931 0.309629,0.431858 0,0.353338 -0.179548,0.428979 -0.293925,0.428979 -0.11176,0 -0.30675,-0.04423 -0.398094,-0.197608 0.09134,0.01256 0.171958,-0.04423 0.171958,-0.143167 0,-0.0937 -0.07041,-0.145523 -0.145785,-0.145523 -0.06255,0 -0.145523,0.03638 -0.145523,0.150758 0,0.236344 0.24184,0.408302 0.525034,0.408302 0.317481,0 0.553825,-0.236868 0.553825,-0.501741" />
      <path
         inkscape:connector-curvature="0"
         id="path250"
         style="fill:url(#linearGradient850);fill-opacity:1;fill-rule:nonzero;stroke:none;stroke-width:0.03527778"
         d="m 22.33216,54.914842 c 0,-0.309105 -0.213573,-0.569267 -0.49415,-0.569267 -0.125108,0 -0.236606,0.04162 -0.330306,0.132437 v -0.506975 c 0.05182,0.01544 0.137933,0.03402 0.221164,0.03402 0.319836,0 0.50174,-0.236867 0.50174,-0.270369 0,-0.0157 -0.0076,-0.02879 -0.02617,-0.02879 0,0 -0.0076,0 -0.02068,0.0079 -0.05209,0.02329 -0.179548,0.07538 -0.353338,0.07538 -0.104431,0 -0.223781,-0.01806 -0.34601,-0.07302 -0.02094,-0.0076 -0.03115,-0.0076 -0.03115,-0.0076 -0.02617,0 -0.02617,0.02068 -0.02617,0.06255 V 54.5406 c 0,0.04685 0,0.06753 0.03638,0.06753 0.01858,0 0.02329,-0.0076 0.03402,-0.02329 0.02853,-0.04162 0.124584,-0.181903 0.335278,-0.181903 0.135054,0 0.199964,0.119349 0.220902,0.166461 0.04162,0.09606 0.04711,0.197346 0.04711,0.327427 0,0.09082 0,0.247075 -0.06255,0.356217 -0.06229,0.101552 -0.158871,0.169079 -0.278221,0.169079 -0.189756,0 -0.338158,-0.137933 -0.382391,-0.291308 0.0079,0.0024 0.01544,0.0052 0.04423,0.0052 0.08585,0 0.130081,-0.06491 0.130081,-0.127464 0,-0.06255 -0.04423,-0.127725 -0.130081,-0.127725 -0.03638,0 -0.127202,0.01858 -0.127202,0.137933 0,0.223781 0.179549,0.476091 0.470595,0.476091 0.301515,0 0.566911,-0.249431 0.566911,-0.579999" />
    </g>
    <g
       transform="matrix(0.0261732,0,0,-0.0261732,-37.157607,198.86666)"
       id="g1232"
       style="fill:url(#linearGradient850);stroke-width:1.34785891">
      <path
         inkscape:connector-curvature="0"
         id="path252"
         style="fill:url(#linearGradient850);fill-opacity:1;fill-rule:nonzero;stroke:none;stroke-width:1.34785891"
         d="m 2745.19,5494.2 c 0,1 -0.8,1 -1.19,1 -0.89,0 -1,-0.29 -1.48,-1.39 -4.29,-10.33 -9.55,-12.72 -12.93,-12.72 -2.07,0 -3.07,1.3 -3.07,4.57 0,2.39 0.2,3.07 0.59,4.78 l 7.36,29.29 h 9.33 c 1.98,0 2.98,0 2.98,1.99 0,1.09 -1,1.09 -2.78,1.09 h -8.73 c 3.56,14.11 4.06,16.1 4.06,16.69 0,1.69 -1.19,2.69 -2.88,2.69 -0.29,0 -3.07,-0.11 -3.97,-3.58 l -3.87,-15.8 h -9.34 c -1.99,0 -2.99,0 -2.99,-1.89 0,-1.19 0.8,-1.19 2.78,-1.19 h 8.75 c -7.15,-28.21 -7.54,-29.9 -7.54,-31.68 0,-5.36 3.76,-9.14 9.12,-9.14 10.14,0 15.8,14.5 15.8,15.29" />
      <path
         inkscape:connector-curvature="0"
         id="path254"
         style="fill:url(#linearGradient850);fill-opacity:1;fill-rule:nonzero;stroke:none;stroke-width:1.34785891"
         d="m 2848.63,5514.47 c 0,1.98 -1.9,1.98 -3.29,1.98 h -59.5 c -1.39,0 -3.28,0 -3.28,-1.98 0,-1.99 1.89,-1.99 3.38,-1.99 h 59.31 c 1.48,0 3.38,0 3.38,1.99 z m 0,-19.27 c 0,1.99 -1.9,1.99 -3.38,1.99 h -59.31 c -1.49,0 -3.38,0 -3.38,-1.99 0,-1.98 1.89,-1.98 3.28,-1.98 h 59.5 c 1.39,0 3.29,0 3.29,1.98" />
      <path
         inkscape:connector-curvature="0"
         id="path256"
         style="fill:url(#linearGradient850);fill-opacity:1;fill-rule:nonzero;stroke:none;stroke-width:1.34785891"
         d="m 2923.63,5480 v 3.08 h -3.19 c -8.94,0 -9.24,1.09 -9.24,4.76 v 55.74 c 0,2.37 0,2.58 -2.28,2.58 -6.15,-6.36 -14.9,-6.36 -18.08,-6.36 v -3.08 c 1.99,0 7.85,0 13.02,2.58 v -51.46 c 0,-3.57 -0.3,-4.76 -9.25,-4.76 h -3.17 V 5480 c 3.47,0.3 12.12,0.3 16.09,0.3 3.97,0 12.61,0 16.1,-0.3" />
      <path
         inkscape:connector-curvature="0"
         id="path258"
         style="fill:url(#linearGradient850);fill-opacity:1;fill-rule:nonzero;stroke:none;stroke-width:1.34785891"
         d="m 2952.17,5480.09 c 0,6.57 -2.48,10.44 -6.36,10.44 -3.28,0 -5.26,-2.48 -5.26,-5.26 0,-2.69 1.98,-5.27 5.26,-5.27 1.19,0 2.49,0.39 3.47,1.3 0.3,0.18 0.5,0.29 0.5,0.29 0,0 0.2,-0.11 0.2,-1.5 0,-7.34 -3.48,-13.31 -6.76,-16.57 -1.09,-1.1 -1.09,-1.3 -1.09,-1.6 0,-0.7 0.5,-1.09 1,-1.09 1.09,0 9.04,7.65 9.04,19.26" />
      <path
         inkscape:connector-curvature="0"
         id="path260"
         style="fill:url(#linearGradient850);fill-opacity:1;fill-rule:nonzero;stroke:none;stroke-width:1.34785891"
         d="m 3052.28,5517.84 c 0.39,1.39 0.39,1.6 0.39,2.29 0,1.79 -1.39,2.68 -2.87,2.68 -1,0 -2.58,-0.59 -3.49,-2.08 -0.18,-0.5 -0.98,-3.57 -1.39,-5.37 l -1.98,-7.94 -4.47,-17.89 c -0.39,-1.48 -4.67,-8.44 -11.22,-8.44 -5.08,0 -6.16,4.38 -6.16,8.05 0,4.56 1.69,10.74 5.07,19.47 1.57,4.08 1.98,5.17 1.98,7.16 0,4.46 -3.19,8.14 -8.14,8.14 -9.44,0 -13.12,-14.41 -13.12,-15.3 0,-1 1.2,-1 1.2,-1 0.98,0 1.09,0.2 1.58,1.8 2.68,9.32 6.65,12.31 10.03,12.31 0.79,0 2.48,0 2.48,-3.17 0,-2.49 -0.98,-5.07 -1.69,-6.96 -3.96,-10.53 -5.75,-16.2 -5.75,-20.86 0,-8.84 6.25,-11.82 12.11,-11.82 3.88,0 7.25,1.68 10.04,4.47 -1.29,-5.16 -2.49,-10.04 -6.46,-15.3 -2.58,-3.38 -6.36,-6.25 -10.92,-6.25 -1.39,0 -5.86,0.3 -7.55,4.17 1.58,0 2.88,0 4.27,1.19 1,0.89 1.98,2.19 1.98,4.08 0,3.07 -2.68,3.46 -3.67,3.46 -2.28,0 -5.56,-1.59 -5.56,-6.45 0,-4.97 4.37,-8.64 10.53,-8.64 10.23,0 20.45,9.03 23.23,20.27 l 9.55,37.93" />
      <path
         inkscape:connector-curvature="0"
         id="path262"
         style="fill:url(#linearGradient850);fill-opacity:1;fill-rule:nonzero;stroke:none;stroke-width:1.34785891"
         d="m 3155.63,5514.47 c 0,1.98 -1.9,1.98 -3.29,1.98 h -59.5 c -1.39,0 -3.28,0 -3.28,-1.98 0,-1.99 1.89,-1.99 3.38,-1.99 h 59.31 c 1.48,0 3.38,0 3.38,1.99 z m 0,-19.27 c 0,1.99 -1.9,1.99 -3.38,1.99 h -59.31 c -1.49,0 -3.38,0 -3.38,-1.99 0,-1.98 1.89,-1.98 3.28,-1.98 h 59.5 c 1.39,0 3.29,0 3.29,1.98" />
      <path
         inkscape:connector-curvature="0"
         id="path264"
         style="fill:url(#linearGradient850);fill-opacity:1;fill-rule:nonzero;stroke:none;stroke-width:1.34785891"
         d="m 3234.69,5511.78 c 0,7.95 -0.49,15.91 -3.97,23.25 -4.56,9.53 -12.72,11.13 -16.89,11.13 -5.95,0 -13.2,-2.58 -17.28,-11.82 -3.17,-6.86 -3.67,-14.61 -3.67,-22.56 0,-7.44 0.39,-16.39 4.46,-23.94 4.27,-8.04 11.54,-10.03 16.39,-10.03 5.36,0 12.93,2.1 17.29,11.53 3.18,6.85 3.67,14.6 3.67,22.44 z m -8.24,1.2 c 0,-7.45 0,-14.2 -1.09,-20.56 -1.48,-9.44 -7.16,-12.42 -11.63,-12.42 -3.87,0 -9.73,2.48 -11.51,12.02 -1.09,5.96 -1.09,15.11 -1.09,20.96 0,6.36 0,12.91 0.78,18.29 1.89,11.81 9.34,12.7 11.82,12.7 3.29,0 9.83,-1.78 11.72,-11.63 1,-5.56 1,-13.11 1,-19.36" />
    </g>
    <g
       id="g1194"
       transform="matrix(0.74191738,0,0,0.74191738,31.652816,10.198364)"
       style="stroke-width:1.34785891">
      <path
         inkscape:connector-curvature="0"
         id="path266"
         style="fill:url(#linearGradient850);fill-opacity:1;fill-rule:nonzero;stroke:none;stroke-width:0.04754947"
         d="m 33.186386,60.424602 c 0,-0.03528 -0.02822,-0.03528 -0.04198,-0.03528 -0.0314,0 -0.03528,0.01023 -0.05221,0.04904 -0.151342,0.364419 -0.336903,0.448733 -0.456142,0.448733 -0.07302,0 -0.108303,-0.04586 -0.108303,-0.161219 0,-0.08431 0.0071,-0.108303 0.02081,-0.168628 l 0.259645,-1.033286 h 0.329141 c 0.06985,0 0.105128,0 0.105128,-0.0702 0,-0.03845 -0.03528,-0.03845 -0.09807,-0.03845 H 32.83643 c 0.125589,-0.497769 0.143228,-0.567972 0.143228,-0.588786 0,-0.05962 -0.04198,-0.0949 -0.1016,-0.0949 -0.01023,0 -0.108303,0.0039 -0.140053,0.126294 l -0.136525,0.557389 h -0.329495 c -0.0702,0 -0.10548,0 -0.10548,0.06668 0,0.04198 0.02822,0.04198 0.09807,0.04198 h 0.308681 c -0.252236,0.995186 -0.265995,1.054805 -0.265995,1.1176 0,0.189089 0.132645,0.322439 0.321734,0.322439 0.357716,0 0.557388,-0.511528 0.557388,-0.539397" />
      <path
         inkscape:connector-curvature="0"
         id="path268"
         style="fill:url(#linearGradient850);fill-opacity:1;fill-rule:nonzero;stroke:none;stroke-width:0.04754947"
         d="m 36.83552,59.709521 c 0,-0.06985 -0.06703,-0.06985 -0.116064,-0.06985 h -2.099028 c -0.04904,0 -0.115711,0 -0.115711,0.06985 0,0.0702 0.06668,0.0702 0.119239,0.0702 h 2.092325 c 0.05221,0 0.119239,0 0.119239,-0.0702 z m 0,0.679803 c 0,-0.0702 -0.06703,-0.0702 -0.119239,-0.0702 h -2.092325 c -0.05256,0 -0.119239,0 -0.119239,0.0702 0,0.06985 0.06668,0.06985 0.115711,0.06985 h 2.099028 c 0.04904,0 0.116064,0 0.116064,-0.06985" />
      <path
         inkscape:connector-curvature="0"
         id="path270"
         style="fill:url(#linearGradient850);fill-opacity:1;fill-rule:nonzero;stroke:none;stroke-width:0.04754947"
         d="m 39.621759,60.315946 h -0.08749 c -0.01764,0.105128 -0.04269,0.258939 -0.07726,0.311856 -0.02505,0.02752 -0.255764,0.02752 -0.333022,0.02752 h -0.63112 l 0.371475,-0.360539 c 0.546806,-0.483658 0.757414,-0.672747 0.757414,-1.023408 0,-0.399697 -0.315736,-0.679803 -0.74295,-0.679803 -0.396522,0 -0.655461,0.322439 -0.655461,0.634647 0,0.196145 0.17533,0.196145 0.185561,0.196145 0.05962,0 0.182033,-0.04233 0.182033,-0.185914 0,-0.09137 -0.06279,-0.182386 -0.185561,-0.182386 -0.02787,0 -0.03493,0 -0.04551,0.0035 0.08079,-0.227895 0.269522,-0.357364 0.473075,-0.357364 0.319264,0 0.469547,0.283986 0.469547,0.571147 0,0.280458 -0.17533,0.557389 -0.367947,0.774347 l -0.672747,0.750359 c -0.03845,0.03845 -0.03845,0.04516 -0.03845,0.129469 h 1.300339 l 0.09807,-0.6096" />
      <path
         inkscape:connector-curvature="0"
         id="path272"
         style="fill:url(#linearGradient850);fill-opacity:1;fill-rule:nonzero;stroke:none;stroke-width:0.04754947"
         d="m 40.488181,60.922371 c 0,-0.231775 -0.08749,-0.3683 -0.224366,-0.3683 -0.115711,0 -0.185561,0.08749 -0.185561,0.185561 0,0.0949 0.06985,0.185914 0.185561,0.185914 0.04198,0 0.08784,-0.01376 0.122414,-0.04586 0.01058,-0.0064 0.01764,-0.01023 0.01764,-0.01023 0,0 0.0071,0.0039 0.0071,0.05292 0,0.258939 -0.122767,0.469547 -0.238478,0.584553 -0.03845,0.03881 -0.03845,0.04586 -0.03845,0.05644 0,0.0247 0.01764,0.03845 0.03528,0.03845 0.03845,0 0.318911,-0.269875 0.318911,-0.67945" />
      <path
         inkscape:connector-curvature="0"
         id="path274"
         style="fill:url(#linearGradient850);fill-opacity:1;fill-rule:nonzero;stroke:none;stroke-width:0.04754947"
         d="m 42.492312,60.419663 c 0.01517,0.179564 0.02611,0.352072 0.02611,0.505883 0.03634,-0.0071 0.07338,-0.01094 0.09137,-0.01094 0.02611,0 0.04798,0 0.07338,0.0071 0.09913,0.02575 0.197908,0.04092 0.333375,0.04092 0.205669,0 0.583494,-0.09948 0.583494,-0.462492 0,-0.249414 -0.179916,-0.395817 -0.428977,-0.487539 -0.223662,-0.08043 -0.366537,-0.139347 -0.366537,-0.341136 0,-0.149931 0.131587,-0.234245 0.256117,-0.234245 0.08079,0 0.293511,0.02928 0.341489,0.340784 0.02187,0.02187 0.09525,0.01799 0.117122,-0.0035 0.01058,-0.132292 0.01835,-0.267758 0.02152,-0.388408 -0.113595,-0.0187 -0.289278,-0.0702 -0.480131,-0.0702 -0.270933,0 -0.516819,0.176036 -0.516819,0.410986 0,0.267758 0.121355,0.381353 0.403577,0.498828 0.304095,0.12453 0.373592,0.201083 0.373592,0.358775 0,0.179564 -0.176036,0.256822 -0.311503,0.256822 -0.142875,0 -0.223661,-0.04727 -0.259997,-0.08819 -0.08114,-0.08431 -0.121355,-0.245181 -0.14358,-0.336903 -0.02152,-0.02187 -0.09137,-0.0187 -0.113595,0.0035" />
      <path
         inkscape:connector-curvature="0"
         id="path276"
         style="fill:url(#linearGradient850);fill-opacity:1;fill-rule:nonzero;stroke:none;stroke-width:0.04754947"
         d="m 44.507026,59.466457 c 0.02222,-0.02187 0.02222,-0.09913 0,-0.121356 -0.109714,0.0039 -0.238125,0.0078 -0.370417,0.0078 -0.138641,0 -0.238125,-0.0039 -0.333375,-0.0078 -0.02187,0.02222 -0.02187,0.09948 0,0.121356 0.172509,0.01834 0.212725,0.05503 0.289984,0.245886 l 0.48013,1.183922 c 0.02187,0.05115 0.05115,0.07338 0.08749,0.07338 0.03316,0 0.0628,-0.02222 0.08819,-0.08114 l 0.370416,-0.9017 0.377825,0.909461 c 0.02187,0.05115 0.05115,0.07338 0.08819,0.07338 0.03245,0 0.06209,-0.02222 0.08431,-0.07726 l 0.47625,-1.16205 c 0.06209,-0.146403 0.12453,-0.252942 0.311503,-0.263878 0.02187,-0.02187 0.02187,-0.09913 0,-0.121356 -0.07338,0.0039 -0.153812,0.0078 -0.263525,0.0078 -0.11042,0 -0.264231,-0.0039 -0.374298,-0.0078 -0.02223,0.02222 -0.02223,0.09948 0,0.121356 0.274814,0.01482 0.234598,0.12065 0.183445,0.249061 l -0.304095,0.763059 c -0.03704,0.09137 -0.0515,0.09137 -0.08467,0.01411 l -0.315031,-0.80257 c -0.06632,-0.172508 -0.05891,-0.208844 0.135467,-0.223661 0.02222,-0.02187 0.02222,-0.09913 0,-0.121356 -0.110067,0.0039 -0.256823,0.0078 -0.366536,0.0078 -0.09207,0 -0.212725,-0.0039 -0.323145,-0.0078 -0.02152,0.02222 -0.02152,0.09948 0,0.121356 0.172508,0.01834 0.213078,0.124531 0.279047,0.286103 l 0.02575,0.05856 -0.256822,0.648758 c -0.04798,0.121003 -0.05821,0.128411 -0.106186,0.0078 l -0.293159,-0.755297 c -0.06632,-0.176389 -0.06244,-0.23495 0.113242,-0.245886" />
      <path
         inkscape:connector-curvature="0"
         id="path278"
         style="fill:url(#linearGradient850);fill-opacity:1;fill-rule:nonzero;stroke:none;stroke-width:0.04754947"
         d="m 46.934137,59.891554 c 0.0695,-0.414161 0.32632,-0.446969 0.414162,-0.446969 0.139347,0 0.304094,0.07691 0.304094,0.384528 0,0.03316 -0.01446,0.05115 -0.05468,0.05115 z m 0.960262,0.692856 c -0.135467,0.139347 -0.242006,0.198261 -0.454378,0.198261 -0.132292,0 -0.28575,-0.07691 -0.399345,-0.263878 -0.07338,-0.121355 -0.117475,-0.289983 -0.117475,-0.502355 l 0.975078,0.0074 c 0.0441,0 0.0695,-0.02222 0.0695,-0.06244 0,-0.307975 -0.109714,-0.637822 -0.619477,-0.637822 -0.318912,0 -0.733426,0.304447 -0.733426,0.861131 0,0.205669 0.05151,0.403577 0.172509,0.542925 0.124883,0.146755 0.296686,0.23495 0.560917,0.23495 0.278694,0 0.476602,-0.128411 0.623358,-0.319264 -0.01129,-0.03704 -0.03316,-0.05503 -0.07726,-0.05891" />
      <path
         inkscape:connector-curvature="0"
         id="path280"
         style="fill:url(#linearGradient850);fill-opacity:1;fill-rule:nonzero;stroke:none;stroke-width:0.04754947"
         d="m 48.627471,59.891554 c 0.0695,-0.414161 0.326319,-0.446969 0.414161,-0.446969 0.139347,0 0.304094,0.07691 0.304094,0.384528 0,0.03316 -0.01446,0.05115 -0.05468,0.05115 z m 0.960261,0.692856 c -0.135467,0.139347 -0.242006,0.198261 -0.454378,0.198261 -0.132292,0 -0.28575,-0.07691 -0.399344,-0.263878 -0.07338,-0.121355 -0.117475,-0.289983 -0.117475,-0.502355 l 0.975078,0.0074 c 0.0441,0 0.0695,-0.02222 0.0695,-0.06244 0,-0.307975 -0.109714,-0.637822 -0.619478,-0.637822 -0.318911,0 -0.733425,0.304447 -0.733425,0.861131 0,0.205669 0.0515,0.403577 0.172508,0.542925 0.124884,0.146755 0.296686,0.23495 0.560917,0.23495 0.278694,0 0.476603,-0.128411 0.623358,-0.319264 -0.01129,-0.03704 -0.03316,-0.05503 -0.07726,-0.05891" />
      <path
         inkscape:connector-curvature="0"
         id="path282"
         style="fill:url(#linearGradient850);fill-opacity:1;fill-rule:nonzero;stroke:none;stroke-width:0.04754947"
         d="m 50.472499,59.712343 c 0.09525,-0.117475 0.259997,-0.227542 0.370416,-0.227542 0.234245,0 0.436034,0.263878 0.436034,0.678392 0,0.300567 -0.106539,0.674159 -0.517173,0.674159 -0.06562,0 -0.194027,-0.01835 -0.259997,-0.07655 -0.07726,-0.06632 -0.08784,-0.08431 -0.08784,-0.220134 V 59.87321 c 0,-0.07726 0.01446,-0.106186 0.05856,-0.160867 z m -0.0695,-0.136172 c -0.0078,-0.109714 -0.01482,-0.201083 -0.02963,-0.242006 -0.01129,-0.01446 -0.01446,-0.02928 -0.04374,-0.02928 -0.103011,0.04022 -0.198261,0.07338 -0.451556,0.106539 -0.0071,0.02187 0,0.08043 0.0078,0.102305 0.197909,0.01905 0.238125,0.03704 0.238125,0.249767 v 1.565628 c 0,0.304094 -0.04022,0.322439 -0.263878,0.333375 -0.02222,0.02223 -0.02222,0.09878 0,0.12065 0.128412,-0.0032 0.263878,-0.0071 0.410634,-0.0071 0.146755,0 0.322439,0.0039 0.443794,0.0071 0.02187,-0.02187 0.02187,-0.09842 0,-0.12065 -0.26035,-0.01482 -0.300566,-0.02928 -0.300566,-0.333375 v -0.396522 c 0,-0.04727 0.01058,-0.04022 0.05115,-0.0254 0.08784,0.03669 0.201436,0.05539 0.318911,0.05539 0.205317,0 0.388409,-0.06279 0.539045,-0.20567 0.172508,-0.168628 0.270933,-0.395816 0.270933,-0.692855 0,-0.388762 -0.274814,-0.748242 -0.648758,-0.748242 -0.172508,0 -0.359128,0.113594 -0.502003,0.275167 -0.02222,0.0261 -0.04022,0.02222 -0.04022,-0.01482" />
      <path
         inkscape:connector-curvature="0"
         id="path312"
         style="fill:url(#linearGradient850);fill-opacity:1;fill-rule:nonzero;stroke:none;stroke-width:0.04754947"
         d="m 55.250521,59.709522 c 0,-0.06985 -0.06703,-0.06985 -0.116064,-0.06985 h -2.099028 c -0.04904,0 -0.115711,0 -0.115711,0.06985 0,0.0702 0.06668,0.0702 0.119239,0.0702 h 2.092325 c 0.05221,0 0.119239,0 0.119239,-0.0702 z m 0,0.679802 c 0,-0.0702 -0.06703,-0.0702 -0.119239,-0.0702 h -2.092325 c -0.05256,0 -0.119239,0 -0.119239,0.0702 0,0.06985 0.06668,0.06985 0.115711,0.06985 h 2.099028 c 0.04904,0 0.116064,0 0.116064,-0.06985" />
      <path
         inkscape:connector-curvature="0"
         id="path314"
         style="fill:url(#linearGradient850);fill-opacity:1;fill-rule:nonzero;stroke:none;stroke-width:0.04754947"
         d="m 58.039583,59.804419 c 0,-0.280459 -0.01729,-0.56127 -0.140053,-0.820209 -0.160867,-0.336197 -0.448734,-0.392641 -0.595842,-0.392641 -0.209903,0 -0.465667,0.09102 -0.6096,0.416983 -0.111831,0.242006 -0.129469,0.515408 -0.129469,0.795867 0,0.262466 0.01376,0.578203 0.157338,0.84455 0.150637,0.283633 0.407106,0.353836 0.578203,0.353836 0.189089,0 0.456142,-0.07408 0.609953,-0.406753 0.112183,-0.241653 0.12947,-0.515055 0.12947,-0.791633 z m -0.290689,-0.04233 c 0,0.26282 0,0.500945 -0.03845,0.725312 -0.05221,0.333022 -0.252589,0.43815 -0.410281,0.43815 -0.136525,0 -0.343253,-0.08749 -0.406047,-0.424039 -0.03845,-0.210256 -0.03845,-0.533048 -0.03845,-0.739423 0,-0.224366 0,-0.455436 0.02752,-0.64523 0.06668,-0.416631 0.329494,-0.448028 0.416983,-0.448028 0.116064,0 0.346781,0.06279 0.413456,0.410281 0.03528,0.196144 0.03528,0.462491 0.03528,0.682977" />
      <path
         inkscape:connector-curvature="0"
         id="path316"
         style="fill:url(#linearGradient850);fill-opacity:1;fill-rule:nonzero;stroke:none;stroke-width:0.04754947"
         d="m 58.86473,60.739633 c 0,-0.101248 -0.08431,-0.185561 -0.185914,-0.185561 -0.101953,0 -0.185561,0.08431 -0.185561,0.185561 0,0.1016 0.08361,0.185914 0.185561,0.185914 0.1016,0 0.185914,-0.08431 0.185914,-0.185914" />
      <path
         inkscape:connector-curvature="0"
         id="path318"
         style="fill:url(#linearGradient850);fill-opacity:1;fill-rule:nonzero;stroke:none;stroke-width:0.04754947"
         d="m 60.794424,60.347344 v -0.108656 h -0.349955 v -1.594555 c 0,-0.0702 0,-0.09102 -0.05609,-0.09102 -0.0314,0 -0.04198,0 -0.0702,0.04198 l -1.075977,1.643595 v 0.108656 h 0.932039 v 0.3048 c 0,0.126294 -0.0071,0.164747 -0.265994,0.164747 h -0.07408 v 0.108656 c 0.143934,-0.01058 0.32632,-0.01058 0.473428,-0.01058 0.147461,0 0.333022,0 0.47625,0.01058 v -0.108656 h -0.07302 c -0.259644,0 -0.266347,-0.03845 -0.266347,-0.164747 v -0.3048 z m -0.599016,-0.108656 h -0.855134 l 0.855134,-1.307042 z" />
      <path
         inkscape:connector-curvature="0"
         id="path320"
         style="fill:url(#linearGradient850);fill-opacity:1;fill-rule:nonzero;stroke:none;stroke-width:0.04754947"
         d="m 62.509277,60.33676 c 0,-0.126294 -0.03845,-0.283633 -0.17145,-0.431094 -0.06667,-0.07373 -0.122766,-0.108303 -0.347133,-0.248356 0.252236,-0.130175 0.424392,-0.312208 0.424392,-0.54363 0,-0.322439 -0.311856,-0.522111 -0.63112,-0.522111 -0.349956,0 -0.633942,0.259291 -0.633942,0.585611 0,0.06279 0.0067,0.220486 0.153811,0.385233 0.03845,0.04198 0.168628,0.12947 0.256117,0.189089 -0.2032,0.101953 -0.504825,0.298097 -0.504825,0.644878 0,0.371475 0.357364,0.606425 0.725311,0.606425 0.395817,0 0.728839,-0.291042 0.728839,-0.666045 z m -0.248708,-1.22308 c 0,0.200025 -0.136525,0.3683 -0.346428,0.490714 l -0.434975,-0.280106 c -0.160867,-0.10548 -0.175331,-0.224366 -0.175331,-0.283986 0,-0.213783 0.228248,-0.360892 0.476603,-0.360892 0.255764,0 0.480131,0.181681 0.480131,0.43427 z m 0.07408,1.349375 c 0,0.258939 -0.263172,0.441678 -0.550686,0.441678 -0.300919,0 -0.553508,-0.217311 -0.553508,-0.508353 0,-0.203553 0.11183,-0.42792 0.41028,-0.591961 l 0.430742,0.272697 c 0.09842,0.06668 0.263172,0.172156 0.263172,0.385939" />
    </g>
    <g
       id="g1178"
       transform="matrix(0.74191738,0,0,0.74191738,58.234858,5.5973484)"
       style="stroke-width:1.34785891">
      <path
         inkscape:connector-curvature="0"
         id="path294"
         style="fill:url(#linearGradient850);fill-opacity:1;fill-rule:nonzero;stroke:none;stroke-width:0.04754947"
         d="m 33.079194,66.606894 c 0,-0.03528 -0.02822,-0.03528 -0.04198,-0.03528 -0.0314,0 -0.03528,0.01023 -0.05221,0.04904 -0.151342,0.36442 -0.336903,0.448734 -0.456142,0.448734 -0.07303,0 -0.108303,-0.04586 -0.108303,-0.16122 0,-0.08431 0.0071,-0.108302 0.02081,-0.168627 l 0.259645,-1.033287 h 0.329141 c 0.06985,0 0.105128,0 0.105128,-0.0702 0,-0.03845 -0.03528,-0.03845 -0.09807,-0.03845 h -0.307975 c 0.125589,-0.49777 0.143228,-0.567972 0.143228,-0.588786 0,-0.05962 -0.04198,-0.0949 -0.1016,-0.0949 -0.01023,0 -0.108303,0.0039 -0.140053,0.126295 l -0.136525,0.557389 h -0.329495 c -0.0702,0 -0.10548,0 -0.10548,0.06668 0,0.04198 0.02822,0.04198 0.09807,0.04198 h 0.308681 c -0.252236,0.995187 -0.265995,1.054806 -0.265995,1.1176 0,0.189089 0.132645,0.322439 0.321734,0.322439 0.357716,0 0.557388,-0.511527 0.557388,-0.539397" />
      <path
         inkscape:connector-curvature="0"
         id="path296"
         style="fill:url(#linearGradient850);fill-opacity:1;fill-rule:nonzero;stroke:none;stroke-width:0.04754947"
         d="m 36.728328,65.891814 c 0,-0.06985 -0.06703,-0.06985 -0.116064,-0.06985 h -2.099028 c -0.04904,0 -0.115711,0 -0.115711,0.06985 0,0.0702 0.06667,0.0702 0.119239,0.0702 h 2.092325 c 0.05221,0 0.119239,0 0.119239,-0.0702 z m 0,0.679802 c 0,-0.0702 -0.06703,-0.0702 -0.119239,-0.0702 h -2.092325 c -0.05256,0 -0.119239,0 -0.119239,0.0702 0,0.06985 0.06667,0.06985 0.115711,0.06985 h 2.099028 c 0.04904,0 0.116064,0 0.116064,-0.06985" />
      <path
         inkscape:connector-curvature="0"
         id="path298"
         style="fill:url(#linearGradient850);fill-opacity:1;fill-rule:nonzero;stroke:none;stroke-width:0.04754947"
         d="m 39.542084,66.508822 c 0,-0.287514 -0.220486,-0.560917 -0.584906,-0.634647 0.287161,-0.0949 0.490714,-0.340078 0.490714,-0.616656 0,-0.287161 -0.30868,-0.483658 -0.644878,-0.483658 -0.353836,0 -0.620183,0.210255 -0.620183,0.47625 0,0.115711 0.07726,0.182739 0.178505,0.182739 0.108656,0 0.178506,-0.07726 0.178506,-0.178859 0,-0.17533 -0.164747,-0.17533 -0.216958,-0.17533 0.108655,-0.171803 0.340078,-0.216959 0.466372,-0.216959 0.143228,0 0.336197,0.07726 0.336197,0.392289 0,0.04198 -0.0071,0.245534 -0.09807,0.399698 -0.105481,0.168275 -0.224367,0.178505 -0.312208,0.182033 -0.02787,0.0039 -0.111831,0.01023 -0.136525,0.01023 -0.02822,0.0039 -0.05256,0.0074 -0.05256,0.04269 0,0.0381 0.02434,0.0381 0.08396,0.0381 h 0.154164 c 0.287161,0 0.417336,0.238477 0.417336,0.582083 0,0.47625 -0.242006,0.578203 -0.39617,0.578203 -0.150636,0 -0.413455,-0.05962 -0.536575,-0.266348 0.12312,0.01693 0.231775,-0.05962 0.231775,-0.192969 0,-0.126294 -0.0949,-0.196144 -0.196497,-0.196144 -0.08431,0 -0.196144,0.04904 -0.196144,0.2032 0,0.318558 0.325966,0.550333 0.707672,0.550333 0.427919,0 0.746478,-0.319264 0.746478,-0.676275" />
      <path
         inkscape:connector-curvature="0"
         id="path300"
         style="fill:url(#linearGradient850);fill-opacity:1;fill-rule:nonzero;stroke:none;stroke-width:0.04754947"
         d="m 40.380989,67.104664 c 0,-0.231775 -0.08749,-0.3683 -0.224366,-0.3683 -0.115711,0 -0.185561,0.08749 -0.185561,0.185561 0,0.0949 0.06985,0.185914 0.185561,0.185914 0.04198,0 0.08784,-0.01376 0.122414,-0.04586 0.01058,-0.0063 0.01764,-0.01023 0.01764,-0.01023 0,0 0.0071,0.0039 0.0071,0.05292 0,0.258939 -0.122767,0.469547 -0.238478,0.584552 -0.03845,0.03881 -0.03845,0.04586 -0.03845,0.05644 0,0.02469 0.01764,0.03845 0.03528,0.03845 0.03845,0 0.318911,-0.269875 0.318911,-0.67945" />
      <path
         inkscape:connector-curvature="0"
         id="path330"
         style="fill:url(#linearGradient850);fill-opacity:1;fill-rule:nonzero;stroke:none;stroke-width:0.04754947"
         d="m 42.38512,66.601956 c 0.01517,0.179564 0.02611,0.352072 0.02611,0.505883 0.03634,-0.0071 0.07338,-0.01094 0.09137,-0.01094 0.02611,0 0.04798,0 0.07338,0.0071 0.09913,0.02575 0.197908,0.04092 0.333375,0.04092 0.205669,0 0.583494,-0.09948 0.583494,-0.462492 0,-0.249414 -0.179916,-0.395816 -0.428977,-0.487539 -0.223662,-0.08043 -0.366537,-0.139347 -0.366537,-0.341136 0,-0.14993 0.131587,-0.234244 0.256117,-0.234244 0.08079,0 0.293511,0.02928 0.341489,0.340783 0.02187,0.02187 0.09525,0.01799 0.117122,-0.0035 0.01058,-0.132291 0.01834,-0.267758 0.02152,-0.388408 -0.113595,-0.0187 -0.289278,-0.0702 -0.480131,-0.0702 -0.270933,0 -0.516819,0.176036 -0.516819,0.410986 0,0.267759 0.121355,0.381353 0.403577,0.498828 0.304095,0.124531 0.373592,0.201083 0.373592,0.358775 0,0.179564 -0.176036,0.256822 -0.311503,0.256822 -0.142875,0 -0.223661,-0.04727 -0.259997,-0.08819 -0.08114,-0.08431 -0.121355,-0.245181 -0.14358,-0.336903 -0.02152,-0.02187 -0.09137,-0.0187 -0.113595,0.0035" />
      <path
         inkscape:connector-curvature="0"
         id="path332"
         style="fill:url(#linearGradient850);fill-opacity:1;fill-rule:nonzero;stroke:none;stroke-width:0.04754947"
         d="m 44.399834,65.64875 c 0.02222,-0.02187 0.02222,-0.09913 0,-0.121355 -0.109714,0.0039 -0.238125,0.0078 -0.370417,0.0078 -0.138641,0 -0.238125,-0.0039 -0.333375,-0.0078 -0.02187,0.02222 -0.02187,0.09948 0,0.121355 0.172509,0.01834 0.212725,0.05503 0.289984,0.245886 l 0.48013,1.183923 c 0.02187,0.05115 0.05115,0.07338 0.08749,0.07338 0.03316,0 0.0628,-0.02222 0.0882,-0.08114 l 0.370416,-0.9017 0.377825,0.909461 c 0.02187,0.05115 0.05115,0.07338 0.08819,0.07338 0.03245,0 0.06209,-0.02222 0.08431,-0.07726 l 0.47625,-1.16205 c 0.06209,-0.146403 0.12453,-0.252942 0.311503,-0.263878 0.02187,-0.02187 0.02187,-0.09913 0,-0.121355 -0.07338,0.0039 -0.153812,0.0078 -0.263525,0.0078 -0.11042,0 -0.264231,-0.0039 -0.374298,-0.0078 -0.02222,0.02222 -0.02222,0.09948 0,0.121355 0.274814,0.01482 0.234598,0.12065 0.183445,0.249061 l -0.304095,0.763059 c -0.03704,0.09137 -0.0515,0.09137 -0.08467,0.01411 l -0.315031,-0.80257 c -0.06632,-0.172508 -0.05891,-0.208844 0.135467,-0.223661 0.02223,-0.02187 0.02223,-0.09913 0,-0.121355 -0.110067,0.0039 -0.256823,0.0078 -0.366536,0.0078 -0.09208,0 -0.212725,-0.0039 -0.323145,-0.0078 -0.02152,0.02222 -0.02152,0.09948 0,0.121355 0.172508,0.01834 0.213078,0.124531 0.279047,0.286103 l 0.02575,0.05856 -0.256822,0.648759 c -0.04798,0.121002 -0.05821,0.128411 -0.106186,0.0078 l -0.293159,-0.755298 c -0.06632,-0.176389 -0.06244,-0.23495 0.113242,-0.245886" />
      <path
         inkscape:connector-curvature="0"
         id="path334"
         style="fill:url(#linearGradient850);fill-opacity:1;fill-rule:nonzero;stroke:none;stroke-width:0.04754947"
         d="m 46.826945,66.073848 c 0.0695,-0.414162 0.32632,-0.44697 0.414162,-0.44697 0.139347,0 0.304094,0.07691 0.304094,0.384528 0,0.03316 -0.01446,0.05115 -0.05468,0.05115 z m 0.960262,0.692855 c -0.135467,0.139347 -0.242006,0.198261 -0.454378,0.198261 -0.132292,0 -0.28575,-0.0769 -0.399345,-0.263878 -0.07338,-0.121355 -0.117475,-0.289983 -0.117475,-0.502355 l 0.975078,0.0074 c 0.0441,0 0.0695,-0.02222 0.0695,-0.06244 0,-0.307976 -0.109714,-0.637823 -0.619477,-0.637823 -0.318912,0 -0.733426,0.304447 -0.733426,0.861131 0,0.205669 0.05151,0.403578 0.172509,0.542925 0.124883,0.146755 0.296686,0.23495 0.560917,0.23495 0.278694,0 0.476602,-0.128411 0.623358,-0.319264 -0.01129,-0.03704 -0.03316,-0.05503 -0.07726,-0.05891" />
      <path
         inkscape:connector-curvature="0"
         id="path336"
         style="fill:url(#linearGradient850);fill-opacity:1;fill-rule:nonzero;stroke:none;stroke-width:0.04754947"
         d="m 48.520279,66.073848 c 0.0695,-0.414162 0.326319,-0.44697 0.414161,-0.44697 0.139347,0 0.304094,0.07691 0.304094,0.384528 0,0.03316 -0.01446,0.05115 -0.05468,0.05115 z m 0.960261,0.692855 c -0.135467,0.139347 -0.242006,0.198261 -0.454378,0.198261 -0.132292,0 -0.28575,-0.0769 -0.399344,-0.263878 -0.07338,-0.121355 -0.117475,-0.289983 -0.117475,-0.502355 l 0.975078,0.0074 c 0.0441,0 0.0695,-0.02222 0.0695,-0.06244 0,-0.307976 -0.109714,-0.637823 -0.619478,-0.637823 -0.318911,0 -0.733425,0.304447 -0.733425,0.861131 0,0.205669 0.0515,0.403578 0.172508,0.542925 0.124884,0.146755 0.296686,0.23495 0.560917,0.23495 0.278694,0 0.476603,-0.128411 0.623358,-0.319264 -0.01129,-0.03704 -0.03316,-0.05503 -0.07726,-0.05891" />
      <path
         inkscape:connector-curvature="0"
         id="path338"
         style="fill:url(#linearGradient850);fill-opacity:1;fill-rule:nonzero;stroke:none;stroke-width:0.04754947"
         d="m 50.365307,65.894636 c 0.09525,-0.117475 0.259997,-0.227541 0.370416,-0.227541 0.234245,0 0.436034,0.263877 0.436034,0.678391 0,0.300567 -0.106539,0.674159 -0.517173,0.674159 -0.06562,0 -0.194027,-0.01834 -0.259997,-0.07655 -0.07726,-0.06632 -0.08784,-0.08431 -0.08784,-0.220133 v -0.667456 c 0,-0.07726 0.01446,-0.106186 0.05856,-0.160867 z m -0.0695,-0.136172 c -0.0078,-0.109714 -0.01482,-0.201083 -0.02963,-0.242005 -0.01129,-0.01446 -0.01446,-0.02928 -0.04374,-0.02928 -0.103011,0.04022 -0.198261,0.07338 -0.451556,0.106539 -0.0071,0.02187 0,0.08043 0.0078,0.102305 0.197909,0.01905 0.238125,0.03704 0.238125,0.249767 v 1.565628 c 0,0.304095 -0.04022,0.322439 -0.263878,0.333375 -0.02223,0.02222 -0.02223,0.09878 0,0.12065 0.128412,-0.0032 0.263878,-0.0071 0.410634,-0.0071 0.146755,0 0.322439,0.0039 0.443794,0.0071 0.02187,-0.02187 0.02187,-0.09843 0,-0.12065 -0.26035,-0.01482 -0.300566,-0.02928 -0.300566,-0.333375 v -0.396522 c 0,-0.04727 0.01058,-0.04022 0.05115,-0.0254 0.08784,0.03669 0.201436,0.05539 0.318911,0.05539 0.205317,0 0.388409,-0.0628 0.539045,-0.20567 0.172508,-0.168627 0.270933,-0.395816 0.270933,-0.692855 0,-0.388761 -0.274814,-0.748242 -0.648758,-0.748242 -0.172508,0 -0.359128,0.113595 -0.502003,0.275167 -0.02222,0.02611 -0.04022,0.02222 -0.04022,-0.01482" />
      <path
         inkscape:connector-curvature="0"
         id="path340"
         style="fill:url(#linearGradient850);fill-opacity:1;fill-rule:nonzero;stroke:none;stroke-width:0.04754947"
         d="m 55.143329,65.891814 c 0,-0.06985 -0.06703,-0.06985 -0.116064,-0.06985 h -2.099028 c -0.04904,0 -0.115711,0 -0.115711,0.06985 0,0.0702 0.06668,0.0702 0.119239,0.0702 h 2.092325 c 0.05221,0 0.119239,0 0.119239,-0.0702 z m 0,0.679803 c 0,-0.0702 -0.06703,-0.0702 -0.119239,-0.0702 h -2.092325 c -0.05256,0 -0.119239,0 -0.119239,0.0702 0,0.06985 0.06668,0.06985 0.115711,0.06985 h 2.099028 c 0.04904,0 0.116064,0 0.116064,-0.06985" />
      <path
         inkscape:connector-curvature="0"
         id="path342"
         style="fill:url(#linearGradient850);fill-opacity:1;fill-rule:nonzero;stroke:none;stroke-width:0.04754947"
         d="m 57.932391,65.986711 c 0,-0.280458 -0.01729,-0.561269 -0.140053,-0.820208 -0.160867,-0.336197 -0.448734,-0.392642 -0.595842,-0.392642 -0.209903,0 -0.465667,0.09102 -0.6096,0.416984 -0.111831,0.242005 -0.129469,0.515408 -0.129469,0.795866 0,0.262467 0.01376,0.578203 0.157338,0.84455 0.150637,0.283634 0.407106,0.353837 0.578203,0.353837 0.189089,0 0.456142,-0.07408 0.609953,-0.406753 0.112183,-0.241653 0.12947,-0.515056 0.12947,-0.791634 z m -0.290689,-0.04233 c 0,0.26282 0,0.500945 -0.03845,0.725311 -0.05221,0.333022 -0.252589,0.43815 -0.410281,0.43815 -0.136525,0 -0.343253,-0.08749 -0.406047,-0.424039 -0.03845,-0.210255 -0.03845,-0.533047 -0.03845,-0.739422 0,-0.224367 0,-0.455436 0.02752,-0.645231 0.06668,-0.41663 0.329494,-0.448027 0.416983,-0.448027 0.116064,0 0.346781,0.06279 0.413456,0.41028 0.03528,0.196145 0.03528,0.462492 0.03528,0.682978" />
      <path
         inkscape:connector-curvature="0"
         id="path344"
         style="fill:url(#linearGradient850);fill-opacity:1;fill-rule:nonzero;stroke:none;stroke-width:0.04754947"
         d="m 58.757538,66.921925 c 0,-0.101247 -0.08431,-0.185561 -0.185914,-0.185561 -0.101953,0 -0.185561,0.08431 -0.185561,0.185561 0,0.1016 0.08361,0.185914 0.185561,0.185914 0.1016,0 0.185914,-0.08431 0.185914,-0.185914" />
      <path
         inkscape:connector-curvature="0"
         id="path346"
         style="fill:url(#linearGradient850);fill-opacity:1;fill-rule:nonzero;stroke:none;stroke-width:0.04754947"
         d="m 60.61068,66.403342 c 0,-0.416631 -0.287867,-0.767292 -0.666045,-0.767292 -0.168628,0 -0.318911,0.05609 -0.445206,0.178506 v -0.683331 c 0.06985,0.02081 0.185914,0.04586 0.298098,0.04586 0.431094,0 0.676275,-0.319264 0.676275,-0.364419 0,-0.02117 -0.01023,-0.03881 -0.03528,-0.03881 0,0 -0.01023,0 -0.02787,0.01058 -0.0702,0.0314 -0.242006,0.1016 -0.47625,0.1016 -0.140759,0 -0.301625,-0.02434 -0.466373,-0.09843 -0.02822,-0.01023 -0.04198,-0.01023 -0.04198,-0.01023 -0.03528,0 -0.03528,0.02787 -0.03528,0.08431 v 1.037167 c 0,0.06315 0,0.09102 0.04904,0.09102 0.02505,0 0.0314,-0.01023 0.04586,-0.0314 0.03845,-0.05609 0.167922,-0.24518 0.451909,-0.24518 0.182033,0 0.269522,0.160866 0.297744,0.224366 0.05609,0.12947 0.0635,0.265995 0.0635,0.441325 0,0.122414 0,0.333023 -0.08431,0.480131 -0.08396,0.136878 -0.214136,0.227894 -0.375003,0.227894 -0.255764,0 -0.455789,-0.185914 -0.515408,-0.392641 0.01058,0.0032 0.02081,0.0071 0.05962,0.0071 0.115711,0 0.175331,-0.08749 0.175331,-0.171803 0,-0.08431 -0.05962,-0.172155 -0.175331,-0.172155 -0.04904,0 -0.17145,0.02505 -0.17145,0.185914 0,0.301625 0.242006,0.641703 0.634295,0.641703 0.4064,0 0.764117,-0.336198 0.764117,-0.781756" />
      <path
         inkscape:connector-curvature="0"
         id="path348"
         style="fill:url(#linearGradient850);fill-opacity:1;fill-rule:nonzero;stroke:none;stroke-width:0.04754947"
         d="m 62.402085,66.519053 c 0,-0.126294 -0.03845,-0.283633 -0.17145,-0.431094 -0.06668,-0.07373 -0.122766,-0.108303 -0.347133,-0.248356 0.252236,-0.130175 0.424392,-0.312208 0.424392,-0.543631 0,-0.322438 -0.311856,-0.522111 -0.63112,-0.522111 -0.349956,0 -0.633942,0.259292 -0.633942,0.585611 0,0.06279 0.0067,0.220487 0.153811,0.385234 0.03845,0.04198 0.168628,0.129469 0.256117,0.189089 -0.2032,0.101953 -0.504825,0.298097 -0.504825,0.644878 0,0.371475 0.357364,0.606425 0.725311,0.606425 0.395817,0 0.728839,-0.291042 0.728839,-0.666045 z m -0.248708,-1.223081 c 0,0.200025 -0.136525,0.3683 -0.346428,0.490714 l -0.434975,-0.280105 c -0.160867,-0.105481 -0.175331,-0.224367 -0.175331,-0.283986 0,-0.213784 0.228248,-0.360892 0.476603,-0.360892 0.255764,0 0.480131,0.181681 0.480131,0.434269 z m 0.07408,1.349376 c 0,0.258938 -0.263172,0.441677 -0.550686,0.441677 -0.300919,0 -0.553508,-0.217311 -0.553508,-0.508352 0,-0.203553 0.11183,-0.42792 0.41028,-0.591962 l 0.430742,0.272698 c 0.09843,0.06668 0.263172,0.172155 0.263172,0.385939" />
    </g>
    <g
       id="g1162"
       transform="matrix(0.74191738,0,0,0.74191738,86.205989,0.54374835)"
       style="stroke-width:1.34785891">
      <path
         inkscape:connector-curvature="0"
         id="path322"
         style="fill:url(#linearGradient850);fill-opacity:1;fill-rule:nonzero;stroke:none;stroke-width:0.04754947"
         d="m 30.827246,73.432547 c 0,-0.03528 -0.02822,-0.03528 -0.04198,-0.03528 -0.0314,0 -0.03528,0.01023 -0.05221,0.04904 -0.151342,0.36442 -0.336903,0.448733 -0.456142,0.448733 -0.07303,0 -0.108303,-0.04586 -0.108303,-0.161219 0,-0.08431 0.0071,-0.108303 0.02081,-0.168628 l 0.259645,-1.033286 h 0.329141 c 0.06985,0 0.105128,0 0.105128,-0.0702 0,-0.03845 -0.03528,-0.03845 -0.09807,-0.03845 H 30.47729 c 0.125589,-0.497769 0.143228,-0.567972 0.143228,-0.588786 0,-0.05962 -0.04198,-0.0949 -0.1016,-0.0949 -0.01023,0 -0.108303,0.0039 -0.140053,0.126295 l -0.136525,0.557388 h -0.329495 c -0.0702,0 -0.10548,0 -0.10548,0.06668 0,0.04198 0.02822,0.04198 0.09807,0.04198 h 0.308681 c -0.252236,0.995186 -0.265995,1.054806 -0.265995,1.1176 0,0.189089 0.132645,0.322439 0.321734,0.322439 0.357716,0 0.557388,-0.511528 0.557388,-0.539397" />
      <path
         inkscape:connector-curvature="0"
         id="path324"
         style="fill:url(#linearGradient850);fill-opacity:1;fill-rule:nonzero;stroke:none;stroke-width:0.04754947"
         d="m 34.47638,72.717466 c 0,-0.06985 -0.06703,-0.06985 -0.116064,-0.06985 h -2.099028 c -0.04904,0 -0.115711,0 -0.115711,0.06985 0,0.0702 0.06667,0.0702 0.119239,0.0702 h 2.092325 c 0.05221,0 0.119239,0 0.119239,-0.0702 z m 0,0.679803 c 0,-0.0702 -0.06703,-0.0702 -0.119239,-0.0702 h -2.092325 c -0.05256,0 -0.119239,0 -0.119239,0.0702 0,0.06985 0.06667,0.06985 0.115711,0.06985 h 2.099028 c 0.04904,0 0.116064,0 0.116064,-0.06985" />
      <path
         inkscape:connector-curvature="0"
         id="path326"
         style="fill:url(#linearGradient850);fill-opacity:1;fill-rule:nonzero;stroke:none;stroke-width:0.04754947"
         d="m 37.339172,73.355288 v -0.108655 h -0.349956 v -1.594556 c 0,-0.0702 0,-0.09102 -0.05609,-0.09102 -0.0314,0 -0.04198,0 -0.0702,0.04198 l -1.075972,1.643592 v 0.108655 h 0.932039 v 0.3048 c 0,0.126295 -0.0071,0.164748 -0.265995,0.164748 h -0.07408 v 0.108655 c 0.143933,-0.01058 0.326319,-0.01058 0.473428,-0.01058 0.147461,0 0.333022,0 0.47625,0.01058 v -0.108655 h -0.07303 c -0.259645,0 -0.266348,-0.03845 -0.266348,-0.164748 v -0.3048 z m -0.599017,-0.108655 h -0.855133 l 0.855133,-1.307042 z" />
      <path
         inkscape:connector-curvature="0"
         id="path356"
         style="fill:url(#linearGradient850);fill-opacity:1;fill-rule:nonzero;stroke:none;stroke-width:0.04754947"
         d="m 38.111401,73.940546 c 0,-0.231775 -0.08749,-0.3683 -0.224366,-0.3683 -0.115711,0 -0.185561,0.08749 -0.185561,0.185561 0,0.0949 0.06985,0.185914 0.185561,0.185914 0.04198,0 0.08784,-0.01376 0.122414,-0.04586 0.01058,-0.0063 0.01764,-0.01023 0.01764,-0.01023 0,0 0.0071,0.0039 0.0071,0.05292 0,0.258939 -0.122767,0.469547 -0.238478,0.584552 -0.03845,0.03881 -0.03845,0.04586 -0.03845,0.05644 0,0.02469 0.01764,0.03845 0.03528,0.03845 0.03845,0 0.318911,-0.269875 0.318911,-0.67945" />
      <path
         inkscape:connector-curvature="0"
         id="path358"
         style="fill:url(#linearGradient850);fill-opacity:1;fill-rule:nonzero;stroke:none;stroke-width:0.04754947"
         d="m 40.115532,73.437837 c 0.01517,0.179564 0.02611,0.352073 0.02611,0.505884 0.03634,-0.0071 0.07338,-0.01094 0.09137,-0.01094 0.02611,0 0.04798,0 0.07338,0.0071 0.09913,0.02575 0.197908,0.04092 0.333375,0.04092 0.205669,0 0.583494,-0.09948 0.583494,-0.462491 0,-0.249414 -0.179916,-0.395817 -0.428977,-0.487539 -0.223662,-0.08043 -0.366537,-0.139348 -0.366537,-0.341136 0,-0.149931 0.131587,-0.234245 0.256117,-0.234245 0.08079,0 0.293511,0.02928 0.341489,0.340783 0.02187,0.02187 0.09525,0.01799 0.117122,-0.0035 0.01058,-0.132292 0.01834,-0.267759 0.02152,-0.388409 -0.113595,-0.0187 -0.289278,-0.0702 -0.480131,-0.0702 -0.270933,0 -0.516819,0.176036 -0.516819,0.410986 0,0.267758 0.121355,0.381352 0.403577,0.498827 0.304095,0.124531 0.373592,0.201084 0.373592,0.358776 0,0.179563 -0.176036,0.256822 -0.311503,0.256822 -0.142875,0 -0.223661,-0.04727 -0.259997,-0.0882 -0.08114,-0.08431 -0.121355,-0.24518 -0.14358,-0.336903 -0.02152,-0.02187 -0.09137,-0.0187 -0.113595,0.0035" />
      <path
         inkscape:connector-curvature="0"
         id="path360"
         style="fill:url(#linearGradient850);fill-opacity:1;fill-rule:nonzero;stroke:none;stroke-width:0.04754947"
         d="m 42.130246,72.484632 c 0.02222,-0.02187 0.02222,-0.09913 0,-0.121356 -0.109714,0.0039 -0.238125,0.0078 -0.370417,0.0078 -0.138641,0 -0.238125,-0.0039 -0.333375,-0.0078 -0.02187,0.02223 -0.02187,0.09948 0,0.121356 0.172509,0.01834 0.212725,0.05503 0.289984,0.245886 l 0.48013,1.183922 c 0.02187,0.05115 0.05115,0.07338 0.08749,0.07338 0.03316,0 0.06279,-0.02223 0.08819,-0.08114 l 0.370416,-0.9017 0.377825,0.909461 c 0.02187,0.05115 0.05115,0.07338 0.08819,0.07338 0.03245,0 0.06209,-0.02223 0.08431,-0.07726 l 0.47625,-1.162051 c 0.06209,-0.146402 0.12453,-0.252941 0.311503,-0.263877 0.02187,-0.02187 0.02187,-0.09913 0,-0.121356 -0.07338,0.0039 -0.153812,0.0078 -0.263525,0.0078 -0.11042,0 -0.264231,-0.0039 -0.374298,-0.0078 -0.02222,0.02223 -0.02222,0.09948 0,0.121356 0.274814,0.01482 0.234598,0.12065 0.183445,0.249061 l -0.304095,0.763058 c -0.03704,0.09137 -0.0515,0.09137 -0.08467,0.01411 l -0.315031,-0.802569 c -0.06632,-0.172509 -0.05891,-0.208845 0.135467,-0.223661 0.02222,-0.02187 0.02222,-0.09913 0,-0.121356 -0.110067,0.0039 -0.256823,0.0078 -0.366536,0.0078 -0.09208,0 -0.212725,-0.0039 -0.323145,-0.0078 -0.02152,0.02223 -0.02152,0.09948 0,0.121356 0.172508,0.01834 0.213078,0.12453 0.279047,0.286102 l 0.02575,0.05856 -0.256822,0.648758 c -0.04798,0.121003 -0.05821,0.128411 -0.106186,0.0078 l -0.293159,-0.755297 c -0.06632,-0.176389 -0.06244,-0.23495 0.113242,-0.245886" />
      <path
         inkscape:connector-curvature="0"
         id="path362"
         style="fill:url(#linearGradient850);fill-opacity:1;fill-rule:nonzero;stroke:none;stroke-width:0.04754947"
         d="m 44.557357,72.909729 c 0.0695,-0.414161 0.32632,-0.44697 0.414162,-0.44697 0.139347,0 0.304094,0.07691 0.304094,0.384528 0,0.03316 -0.01446,0.05115 -0.05468,0.05115 z m 0.960262,0.692856 c -0.135467,0.139347 -0.242006,0.198261 -0.454378,0.198261 -0.132292,0 -0.28575,-0.07691 -0.399345,-0.263878 -0.07338,-0.121356 -0.117475,-0.289984 -0.117475,-0.502356 l 0.975078,0.0074 c 0.0441,0 0.0695,-0.02222 0.0695,-0.06244 0,-0.307975 -0.109714,-0.637822 -0.619477,-0.637822 -0.318912,0 -0.733426,0.304447 -0.733426,0.86113 0,0.20567 0.05151,0.403578 0.172509,0.542925 0.124883,0.146756 0.296686,0.23495 0.560917,0.23495 0.278694,0 0.476602,-0.128411 0.623358,-0.319264 -0.01129,-0.03704 -0.03316,-0.05503 -0.07726,-0.05891" />
      <path
         inkscape:connector-curvature="0"
         id="path364"
         style="fill:url(#linearGradient850);fill-opacity:1;fill-rule:nonzero;stroke:none;stroke-width:0.04754947"
         d="m 46.250691,72.909729 c 0.0695,-0.414161 0.326319,-0.44697 0.414161,-0.44697 0.139347,0 0.304094,0.07691 0.304094,0.384528 0,0.03316 -0.01446,0.05115 -0.05468,0.05115 z m 0.960261,0.692856 c -0.135467,0.139347 -0.242006,0.198261 -0.454378,0.198261 -0.132292,0 -0.28575,-0.07691 -0.399344,-0.263878 -0.07338,-0.121356 -0.117475,-0.289984 -0.117475,-0.502356 l 0.975078,0.0074 c 0.0441,0 0.0695,-0.02222 0.0695,-0.06244 0,-0.307975 -0.109714,-0.637822 -0.619478,-0.637822 -0.318911,0 -0.733425,0.304447 -0.733425,0.86113 0,0.20567 0.05151,0.403578 0.172508,0.542925 0.124884,0.146756 0.296686,0.23495 0.560917,0.23495 0.278694,0 0.476603,-0.128411 0.623358,-0.319264 -0.01129,-0.03704 -0.03316,-0.05503 -0.07726,-0.05891" />
      <path
         inkscape:connector-curvature="0"
         id="path366"
         style="fill:url(#linearGradient850);fill-opacity:1;fill-rule:nonzero;stroke:none;stroke-width:0.04754947"
         d="m 48.095719,72.730518 c 0.09525,-0.117475 0.259997,-0.227542 0.370416,-0.227542 0.234245,0 0.436034,0.263878 0.436034,0.678392 0,0.300566 -0.106539,0.674158 -0.517173,0.674158 -0.06562,0 -0.194027,-0.01834 -0.259997,-0.07655 -0.07726,-0.06632 -0.08784,-0.08431 -0.08784,-0.220133 v -0.667456 c 0,-0.07726 0.01446,-0.106186 0.05856,-0.160866 z m -0.0695,-0.136172 c -0.0078,-0.109714 -0.01482,-0.201084 -0.02963,-0.242006 -0.01129,-0.01446 -0.01446,-0.02928 -0.04374,-0.02928 -0.103011,0.04022 -0.198261,0.07338 -0.451556,0.106539 -0.0071,0.02187 0,0.08043 0.0078,0.102306 0.197909,0.01905 0.238125,0.03704 0.238125,0.249767 v 1.565627 c 0,0.304095 -0.04022,0.322439 -0.263878,0.333375 -0.02222,0.02223 -0.02222,0.09878 0,0.12065 0.128412,-0.0032 0.263878,-0.0071 0.410634,-0.0071 0.146755,0 0.322439,0.0039 0.443794,0.0071 0.02187,-0.02187 0.02187,-0.09842 0,-0.12065 -0.26035,-0.01482 -0.300566,-0.02928 -0.300566,-0.333375 v -0.396522 c 0,-0.04727 0.01058,-0.04022 0.05115,-0.0254 0.08784,0.03669 0.201436,0.05539 0.318911,0.05539 0.205317,0 0.388409,-0.06279 0.539045,-0.205669 0.172508,-0.168628 0.270933,-0.395817 0.270933,-0.692856 0,-0.388761 -0.274814,-0.748241 -0.648758,-0.748241 -0.172508,0 -0.359128,0.113594 -0.502003,0.275166 -0.02223,0.02611 -0.04022,0.02223 -0.04022,-0.01482" />
      <path
         inkscape:connector-curvature="0"
         id="path368"
         style="fill:url(#linearGradient850);fill-opacity:1;fill-rule:nonzero;stroke:none;stroke-width:0.04754947"
         d="m 52.873741,72.727696 c 0,-0.06985 -0.06703,-0.06985 -0.116064,-0.06985 h -2.099028 c -0.04904,0 -0.115711,0 -0.115711,0.06985 0,0.0702 0.06667,0.0702 0.119239,0.0702 h 2.092325 c 0.05221,0 0.119239,0 0.119239,-0.0702 z m 0,0.679802 c 0,-0.0702 -0.06703,-0.0702 -0.119239,-0.0702 h -2.092325 c -0.05256,0 -0.119239,0 -0.119239,0.0702 0,0.06985 0.06667,0.06985 0.115711,0.06985 h 2.099028 c 0.04904,0 0.116064,0 0.116064,-0.06985" />
      <path
         inkscape:connector-curvature="0"
         id="path370"
         style="fill:url(#linearGradient850);fill-opacity:1;fill-rule:nonzero;stroke:none;stroke-width:0.04754947"
         d="m 55.662803,72.822593 c 0,-0.280459 -0.01729,-0.56127 -0.140053,-0.820209 -0.160867,-0.336197 -0.448734,-0.392641 -0.595842,-0.392641 -0.209903,0 -0.465667,0.09102 -0.6096,0.416983 -0.111831,0.242006 -0.129469,0.515408 -0.129469,0.795867 0,0.262466 0.01376,0.578203 0.157338,0.84455 0.150637,0.283633 0.407106,0.353836 0.578203,0.353836 0.189089,0 0.456142,-0.07408 0.609953,-0.406753 0.112183,-0.241653 0.12947,-0.515055 0.12947,-0.791633 z m -0.290689,-0.04233 c 0,0.26282 0,0.500945 -0.03845,0.725312 -0.05221,0.333022 -0.252589,0.43815 -0.410281,0.43815 -0.136525,0 -0.343253,-0.08749 -0.406047,-0.424039 -0.03845,-0.210256 -0.03845,-0.533048 -0.03845,-0.739423 0,-0.224366 0,-0.455436 0.02752,-0.64523 0.06667,-0.416631 0.329494,-0.448028 0.416983,-0.448028 0.116064,0 0.346781,0.0628 0.413456,0.410281 0.03528,0.196144 0.03528,0.462491 0.03528,0.682977" />
      <path
         inkscape:connector-curvature="0"
         id="path372"
         style="fill:url(#linearGradient850);fill-opacity:1;fill-rule:nonzero;stroke:none;stroke-width:0.04754947"
         d="m 56.48795,73.757807 c 0,-0.101247 -0.08431,-0.185561 -0.185914,-0.185561 -0.101953,0 -0.185561,0.08431 -0.185561,0.185561 0,0.1016 0.08361,0.185914 0.185561,0.185914 0.1016,0 0.185914,-0.08431 0.185914,-0.185914" />
      <path
         inkscape:connector-curvature="0"
         id="path374"
         style="fill:url(#linearGradient850);fill-opacity:1;fill-rule:nonzero;stroke:none;stroke-width:0.04754947"
         d="m 58.368608,73.22864 c 0,-0.444853 -0.311503,-0.781403 -0.700616,-0.781403 -0.238125,0 -0.3683,0.179211 -0.438151,0.347134 v -0.08431 c 0,-0.886178 0.434976,-1.012473 0.613481,-1.012473 0.08396,0 0.23107,0.02081 0.307975,0.140053 -0.05221,0 -0.192264,0 -0.192264,0.157692 0,0.108303 0.08396,0.161219 0.160867,0.161219 0.05644,0 0.161219,-0.03175 0.161219,-0.168627 0,-0.209903 -0.153811,-0.378178 -0.444852,-0.378178 -0.448734,0 -0.921809,0.452261 -0.921809,1.226608 0,0.935214 0.4064,1.184628 0.73272,1.184628 0.388408,0 0.72143,-0.329847 0.72143,-0.792339 z m -0.315383,-0.0032 c 0,0.168275 0,0.343253 -0.05927,0.469547 -0.10548,0.210256 -0.266347,0.227895 -0.34678,0.227895 -0.221192,0 -0.32632,-0.210609 -0.347486,-0.263172 -0.0628,-0.164748 -0.0628,-0.444853 -0.0628,-0.508001 0,-0.273402 0.111831,-0.623711 0.42792,-0.623711 0.05574,0 0.216958,0 0.325613,0.217311 0.06279,0.12947 0.06279,0.308328 0.06279,0.480131" />
      <path
         inkscape:connector-curvature="0"
         id="path376"
         style="fill:url(#linearGradient850);fill-opacity:1;fill-rule:nonzero;stroke:none;stroke-width:0.04754947"
         d="m 60.132497,73.354934 c 0,-0.126294 -0.03845,-0.283633 -0.17145,-0.431094 -0.06668,-0.07373 -0.122766,-0.108303 -0.347133,-0.248356 0.252236,-0.130175 0.424392,-0.312208 0.424392,-0.54363 0,-0.322439 -0.311856,-0.522111 -0.63112,-0.522111 -0.349956,0 -0.633942,0.259291 -0.633942,0.585611 0,0.06279 0.0067,0.220486 0.153811,0.385233 0.03845,0.04198 0.168628,0.12947 0.256117,0.189089 -0.2032,0.101953 -0.504825,0.298097 -0.504825,0.644878 0,0.371475 0.357364,0.606425 0.725311,0.606425 0.395817,0 0.728839,-0.291042 0.728839,-0.666045 z m -0.248708,-1.22308 c 0,0.200025 -0.136525,0.3683 -0.346428,0.490714 l -0.434975,-0.280106 c -0.160867,-0.10548 -0.175331,-0.224366 -0.175331,-0.283986 0,-0.213783 0.228248,-0.360892 0.476603,-0.360892 0.255764,0 0.480131,0.181681 0.480131,0.43427 z m 0.07408,1.349375 c 0,0.258939 -0.263172,0.441678 -0.550686,0.441678 -0.300919,0 -0.553508,-0.217311 -0.553508,-0.508353 0,-0.203553 0.11183,-0.42792 0.41028,-0.591961 l 0.430742,0.272697 c 0.09843,0.06668 0.263172,0.172156 0.263172,0.385939" />
    </g>
    <g
       id="g1146"
       transform="matrix(0.74191738,0,0,0.74191738,97.900604,-6.7069646)"
       style="stroke-width:1.34785891">
      <path
         inkscape:connector-curvature="0"
         id="path350"
         style="fill:url(#linearGradient850);fill-opacity:1;fill-rule:nonzero;stroke:none;stroke-width:0.04754947"
         d="m 50.677109,83.198387 c 0,-0.03528 -0.02822,-0.03528 -0.04198,-0.03528 -0.0314,0 -0.03528,0.01023 -0.05221,0.04904 -0.151342,0.36442 -0.336903,0.448734 -0.456142,0.448734 -0.07303,0 -0.108303,-0.04586 -0.108303,-0.16122 0,-0.08431 0.0071,-0.108302 0.02081,-0.168627 l 0.259645,-1.033287 h 0.329141 c 0.06985,0 0.105128,0 0.105128,-0.0702 0,-0.03845 -0.03528,-0.03845 -0.09807,-0.03845 h -0.307975 c 0.125589,-0.49777 0.143228,-0.567972 0.143228,-0.588786 0,-0.05962 -0.04198,-0.0949 -0.1016,-0.0949 -0.01023,0 -0.108303,0.0039 -0.140053,0.126294 l -0.136525,0.557389 h -0.329495 c -0.0702,0 -0.10548,0 -0.10548,0.06668 0,0.04198 0.02822,0.04198 0.09807,0.04198 h 0.308681 c -0.252236,0.995187 -0.265995,1.054806 -0.265995,1.117601 0,0.189088 0.132645,0.322438 0.321734,0.322438 0.357716,0 0.557388,-0.511527 0.557388,-0.539397" />
      <path
         inkscape:connector-curvature="0"
         id="path352"
         style="fill:url(#linearGradient850);fill-opacity:1;fill-rule:nonzero;stroke:none;stroke-width:0.04754947"
         d="m 54.326243,82.483307 c 0,-0.06985 -0.06703,-0.06985 -0.116064,-0.06985 h -2.099028 c -0.04904,0 -0.115711,0 -0.115711,0.06985 0,0.0702 0.06667,0.0702 0.119239,0.0702 h 2.092325 c 0.05221,0 0.119239,0 0.119239,-0.0702 z m 0,0.679802 c 0,-0.0702 -0.06703,-0.0702 -0.119239,-0.0702 h -2.092325 c -0.05256,0 -0.119239,0 -0.119239,0.0702 0,0.06985 0.06667,0.06985 0.115711,0.06985 h 2.099028 c 0.04904,0 0.116064,0 0.116064,-0.06985" />
      <path
         inkscape:connector-curvature="0"
         id="path354"
         style="fill:url(#linearGradient850);fill-opacity:1;fill-rule:nonzero;stroke:none;stroke-width:0.04754947"
         d="m 57.112482,82.994834 c 0,-0.41663 -0.287867,-0.767291 -0.666044,-0.767291 -0.168628,0 -0.318911,0.05609 -0.445206,0.178505 v -0.68333 c 0.06985,0.02081 0.185914,0.04586 0.298097,0.04586 0.431095,0 0.676275,-0.319264 0.676275,-0.36442 0,-0.02117 -0.01023,-0.03881 -0.03528,-0.03881 0,0 -0.01023,0 -0.02787,0.01058 -0.0702,0.0314 -0.242005,0.1016 -0.47625,0.1016 -0.140758,0 -0.301625,-0.02434 -0.466372,-0.09842 -0.02822,-0.01023 -0.04198,-0.01023 -0.04198,-0.01023 -0.03528,0 -0.03528,0.02787 -0.03528,0.08431 v 1.037167 c 0,0.06315 0,0.09102 0.04904,0.09102 0.02505,0 0.0314,-0.01023 0.04586,-0.0314 0.03845,-0.05609 0.167922,-0.245181 0.451908,-0.245181 0.182033,0 0.269522,0.160867 0.297745,0.224367 0.05609,0.129469 0.0635,0.265994 0.0635,0.441325 0,0.122414 0,0.333022 -0.08431,0.48013 -0.08396,0.136878 -0.214136,0.227895 -0.375003,0.227895 -0.255764,0 -0.455789,-0.185914 -0.515409,-0.392642 0.01058,0.0032 0.02081,0.0071 0.05962,0.0071 0.115711,0 0.175331,-0.08749 0.175331,-0.171803 0,-0.08431 -0.05962,-0.172156 -0.175331,-0.172156 -0.04904,0 -0.17145,0.02505 -0.17145,0.185914 0,0.301625 0.242005,0.641703 0.634294,0.641703 0.4064,0 0.764117,-0.336197 0.764117,-0.781756" />
      <path
         inkscape:connector-curvature="0"
         id="path384"
         style="fill:url(#linearGradient850);fill-opacity:1;fill-rule:nonzero;stroke:none;stroke-width:0.04754947"
         d="m 57.951389,83.706779 c 0,-0.231775 -0.08749,-0.3683 -0.224366,-0.3683 -0.115711,0 -0.185561,0.08749 -0.185561,0.185561 0,0.0949 0.06985,0.185914 0.185561,0.185914 0.04198,0 0.08784,-0.01376 0.122414,-0.04586 0.01058,-0.0063 0.01764,-0.01023 0.01764,-0.01023 0,0 0.0071,0.0039 0.0071,0.05292 0,0.258939 -0.122767,0.469548 -0.238478,0.584553 -0.03845,0.03881 -0.03845,0.04586 -0.03845,0.05644 0,0.02469 0.01764,0.03845 0.03528,0.03845 0.03845,0 0.318911,-0.269875 0.318911,-0.67945" />
      <path
         inkscape:connector-curvature="0"
         id="path386"
         style="fill:url(#linearGradient850);fill-opacity:1;fill-rule:nonzero;stroke:none;stroke-width:0.04754947"
         d="m 59.95552,83.204071 c 0.01517,0.179564 0.02611,0.352072 0.02611,0.505883 0.03634,-0.0071 0.07338,-0.01094 0.09137,-0.01094 0.02611,0 0.04798,0 0.07338,0.0071 0.09913,0.02575 0.197908,0.04092 0.333375,0.04092 0.205669,0 0.583494,-0.09948 0.583494,-0.462492 0,-0.249414 -0.179916,-0.395816 -0.428977,-0.487539 -0.223662,-0.08043 -0.366537,-0.139347 -0.366537,-0.341136 0,-0.14993 0.131587,-0.234244 0.256117,-0.234244 0.08079,0 0.293511,0.02928 0.341489,0.340783 0.02187,0.02187 0.09525,0.01799 0.117122,-0.0035 0.01058,-0.132291 0.01835,-0.267758 0.02152,-0.388408 -0.113595,-0.0187 -0.289278,-0.0702 -0.480131,-0.0702 -0.270933,0 -0.516819,0.176036 -0.516819,0.410986 0,0.267759 0.121355,0.381353 0.403577,0.498828 0.304095,0.124531 0.373592,0.201083 0.373592,0.358775 0,0.179564 -0.176036,0.256822 -0.311503,0.256822 -0.142875,0 -0.223661,-0.04727 -0.259997,-0.08819 -0.08114,-0.08431 -0.121355,-0.245181 -0.14358,-0.336903 -0.02152,-0.02187 -0.09137,-0.0187 -0.113595,0.0035" />
      <path
         inkscape:connector-curvature="0"
         id="path388"
         style="fill:url(#linearGradient850);fill-opacity:1;fill-rule:nonzero;stroke:none;stroke-width:0.04754947"
         d="m 61.970234,82.250865 c 0.02222,-0.02187 0.02222,-0.09913 0,-0.121355 -0.109714,0.0039 -0.238125,0.0078 -0.370417,0.0078 -0.138641,0 -0.238125,-0.0039 -0.333375,-0.0078 -0.02187,0.02223 -0.02187,0.09948 0,0.121355 0.172509,0.01834 0.212725,0.05503 0.289984,0.245886 l 0.48013,1.183923 c 0.02187,0.05115 0.05115,0.07338 0.08749,0.07338 0.03316,0 0.06279,-0.02223 0.08819,-0.08114 l 0.370416,-0.9017 0.377825,0.909461 c 0.02187,0.05115 0.05115,0.07338 0.08819,0.07338 0.03245,0 0.06209,-0.02223 0.08431,-0.07726 l 0.47625,-1.16205 c 0.06209,-0.146403 0.12453,-0.252942 0.311503,-0.263878 0.02187,-0.02187 0.02187,-0.09913 0,-0.121355 -0.07338,0.0039 -0.153812,0.0078 -0.263525,0.0078 -0.11042,0 -0.264231,-0.0039 -0.374298,-0.0078 -0.02222,0.02223 -0.02222,0.09948 0,0.121355 0.274814,0.01482 0.234598,0.12065 0.183445,0.249061 l -0.304095,0.763059 c -0.03704,0.09137 -0.0515,0.09137 -0.08467,0.01411 l -0.315031,-0.80257 c -0.06632,-0.172508 -0.05891,-0.208844 0.135467,-0.223661 0.02222,-0.02187 0.02222,-0.09913 0,-0.121355 -0.110067,0.0039 -0.256823,0.0078 -0.366536,0.0078 -0.09208,0 -0.212725,-0.0039 -0.323145,-0.0078 -0.02152,0.02223 -0.02152,0.09948 0,0.121355 0.172508,0.01834 0.213078,0.124531 0.279047,0.286103 l 0.02575,0.05856 -0.256822,0.648759 c -0.04798,0.121002 -0.05821,0.128411 -0.106186,0.0078 L 61.856972,82.49679 c -0.06632,-0.176388 -0.06244,-0.23495 0.113242,-0.245886" />
      <path
         inkscape:connector-curvature="0"
         id="path390"
         style="fill:url(#linearGradient850);fill-opacity:1;fill-rule:nonzero;stroke:none;stroke-width:0.04754947"
         d="m 64.397345,82.675963 c 0.0695,-0.414162 0.32632,-0.44697 0.414162,-0.44697 0.139347,0 0.304094,0.07691 0.304094,0.384528 0,0.03316 -0.01446,0.05115 -0.05468,0.05115 z m 0.960262,0.692855 c -0.135467,0.139347 -0.242006,0.198261 -0.454378,0.198261 -0.132292,0 -0.28575,-0.07691 -0.399345,-0.263878 -0.07338,-0.121355 -0.117475,-0.289983 -0.117475,-0.502355 l 0.975078,0.0074 c 0.0441,0 0.0695,-0.02223 0.0695,-0.06244 0,-0.307975 -0.109714,-0.637823 -0.619477,-0.637823 -0.318912,0 -0.733426,0.304448 -0.733426,0.861131 0,0.205669 0.05151,0.403578 0.172509,0.542925 0.124883,0.146755 0.296686,0.23495 0.560917,0.23495 0.278694,0 0.476602,-0.128411 0.623358,-0.319264 -0.01129,-0.03704 -0.03316,-0.05503 -0.07726,-0.05891" />
      <path
         inkscape:connector-curvature="0"
         id="path392"
         style="fill:url(#linearGradient850);fill-opacity:1;fill-rule:nonzero;stroke:none;stroke-width:0.04754947"
         d="m 66.090679,82.675963 c 0.0695,-0.414162 0.326319,-0.44697 0.414161,-0.44697 0.139347,0 0.304094,0.07691 0.304094,0.384528 0,0.03316 -0.01446,0.05115 -0.05468,0.05115 z m 0.960261,0.692855 c -0.135467,0.139347 -0.242006,0.198261 -0.454378,0.198261 -0.132292,0 -0.28575,-0.07691 -0.399344,-0.263878 -0.07338,-0.121355 -0.117475,-0.289983 -0.117475,-0.502355 l 0.975078,0.0074 c 0.0441,0 0.0695,-0.02223 0.0695,-0.06244 0,-0.307975 -0.109714,-0.637823 -0.619478,-0.637823 -0.318911,0 -0.733425,0.304448 -0.733425,0.861131 0,0.205669 0.0515,0.403578 0.172508,0.542925 0.124884,0.146755 0.296686,0.23495 0.560917,0.23495 0.278694,0 0.476603,-0.128411 0.623358,-0.319264 -0.01129,-0.03704 -0.03316,-0.05503 -0.07726,-0.05891" />
      <path
         inkscape:connector-curvature="0"
         id="path394"
         style="fill:url(#linearGradient850);fill-opacity:1;fill-rule:nonzero;stroke:none;stroke-width:0.04754947"
         d="m 67.935707,82.496751 c 0.09525,-0.117475 0.259997,-0.227541 0.370416,-0.227541 0.234245,0 0.436034,0.263878 0.436034,0.678391 0,0.300567 -0.106539,0.674159 -0.517173,0.674159 -0.06562,0 -0.194027,-0.01834 -0.259997,-0.07655 -0.07726,-0.06632 -0.08784,-0.08431 -0.08784,-0.220133 v -0.667456 c 0,-0.07726 0.01446,-0.106186 0.05856,-0.160867 z m -0.0695,-0.136172 c -0.0078,-0.109714 -0.01482,-0.201083 -0.02963,-0.242005 -0.01129,-0.01446 -0.01446,-0.02928 -0.04374,-0.02928 -0.103011,0.04022 -0.198261,0.07338 -0.451556,0.106539 -0.0071,0.02187 0,0.08043 0.0078,0.102306 0.197909,0.01905 0.238125,0.03704 0.238125,0.249766 v 1.565628 c 0,0.304095 -0.04022,0.322439 -0.263878,0.333375 -0.02223,0.02223 -0.02223,0.09878 0,0.12065 0.128412,-0.0032 0.263878,-0.0071 0.410634,-0.0071 0.146755,0 0.322439,0.0039 0.443794,0.0071 0.02187,-0.02187 0.02187,-0.09842 0,-0.12065 -0.26035,-0.01482 -0.300566,-0.02928 -0.300566,-0.333375 V 83.71701 c 0,-0.04727 0.01058,-0.04022 0.05115,-0.0254 0.08784,0.03669 0.201436,0.05539 0.318911,0.05539 0.205317,0 0.388409,-0.06279 0.539045,-0.20567 0.172508,-0.168627 0.270933,-0.395816 0.270933,-0.692855 0,-0.388761 -0.274814,-0.748242 -0.648758,-0.748242 -0.172508,0 -0.359128,0.113595 -0.502003,0.275167 -0.02222,0.02611 -0.04022,0.02223 -0.04022,-0.01482" />
      <path
         inkscape:connector-curvature="0"
         id="path396"
         style="fill:url(#linearGradient850);fill-opacity:1;fill-rule:nonzero;stroke:none;stroke-width:0.04754947"
         d="m 72.713729,82.493929 c 0,-0.06985 -0.06703,-0.06985 -0.116064,-0.06985 h -2.099028 c -0.04904,0 -0.115711,0 -0.115711,0.06985 0,0.0702 0.06668,0.0702 0.119239,0.0702 h 2.092325 c 0.05221,0 0.119239,0 0.119239,-0.0702 z m 0,0.679803 c 0,-0.0702 -0.06703,-0.0702 -0.119239,-0.0702 h -2.092325 c -0.05256,0 -0.119239,0 -0.119239,0.0702 0,0.06985 0.06668,0.06985 0.115711,0.06985 h 2.099028 c 0.04904,0 0.116064,0 0.116064,-0.06985" />
      <path
         inkscape:connector-curvature="0"
         id="path398"
         style="fill:url(#linearGradient850);fill-opacity:1;fill-rule:nonzero;stroke:none;stroke-width:0.04754947"
         d="m 75.502791,82.588826 c 0,-0.280458 -0.01729,-0.561269 -0.140053,-0.820208 -0.160867,-0.336197 -0.448734,-0.392642 -0.595842,-0.392642 -0.209903,0 -0.465667,0.09102 -0.6096,0.416984 -0.111831,0.242005 -0.129469,0.515408 -0.129469,0.795866 0,0.262467 0.01376,0.578203 0.157338,0.84455 0.150637,0.283634 0.407106,0.353837 0.578203,0.353837 0.189089,0 0.456142,-0.07408 0.609953,-0.406753 0.112183,-0.241653 0.12947,-0.515056 0.12947,-0.791634 z m -0.290689,-0.04233 c 0,0.26282 0,0.500945 -0.03845,0.725311 -0.05221,0.333022 -0.252589,0.43815 -0.410281,0.43815 -0.136525,0 -0.343253,-0.08749 -0.406047,-0.424039 -0.03845,-0.210255 -0.03845,-0.533047 -0.03845,-0.739422 0,-0.224367 0,-0.455436 0.02752,-0.645231 0.06668,-0.41663 0.329494,-0.448027 0.416983,-0.448027 0.116064,0 0.346781,0.06279 0.413456,0.41028 0.03528,0.196145 0.03528,0.462492 0.03528,0.682978" />
      <path
         inkscape:connector-curvature="0"
         id="path400"
         style="fill:url(#linearGradient850);fill-opacity:1;fill-rule:nonzero;stroke:none;stroke-width:0.04754947"
         d="m 76.327938,83.52404 c 0,-0.101247 -0.08431,-0.185561 -0.185914,-0.185561 -0.101953,0 -0.185561,0.08431 -0.185561,0.185561 0,0.1016 0.08361,0.185914 0.185561,0.185914 0.1016,0 0.185914,-0.08431 0.185914,-0.185914" />
      <path
         inkscape:connector-curvature="0"
         id="path402"
         style="fill:url(#linearGradient850);fill-opacity:1;fill-rule:nonzero;stroke:none;stroke-width:0.04754947"
         d="m 78.306668,81.453235 h -0.8509 c -0.427919,0 -0.434975,-0.04586 -0.448733,-0.112536 h -0.08784 l -0.115711,0.722136 h 0.08784 c 0.01023,-0.05609 0.04163,-0.276578 0.08749,-0.318911 0.02434,-0.02117 0.297744,-0.02117 0.343605,-0.02117 h 0.725312 l -0.392642,0.553861 c -0.315031,0.473075 -0.431095,0.960261 -0.431095,1.317625 0,0.03528 0,0.19297 0.16122,0.19297 0.161572,0 0.161572,-0.157692 0.161572,-0.19297 v -0.178505 c 0,-0.19297 0.01023,-0.385587 0.03845,-0.575028 0.01376,-0.08043 0.06279,-0.382059 0.217311,-0.59937 l 0.472722,-0.665691 c 0.0314,-0.04198 0.0314,-0.04904 0.0314,-0.122414" />
      <path
         inkscape:connector-curvature="0"
         id="path404"
         style="fill:url(#linearGradient850);fill-opacity:1;fill-rule:nonzero;stroke:none;stroke-width:0.04754947"
         d="m 79.972485,83.110938 c 0,-0.287514 -0.220486,-0.560917 -0.584905,-0.634648 0.287161,-0.0949 0.490714,-0.340078 0.490714,-0.616655 0,-0.287161 -0.308681,-0.483659 -0.644878,-0.483659 -0.353836,0 -0.620184,0.210256 -0.620184,0.47625 0,0.115711 0.07726,0.182739 0.178506,0.182739 0.108655,0 0.178506,-0.07726 0.178506,-0.178858 0,-0.175331 -0.164748,-0.175331 -0.216959,-0.175331 0.108656,-0.171802 0.340078,-0.216958 0.466372,-0.216958 0.143228,0 0.336198,0.07726 0.336198,0.392289 0,0.04198 -0.0071,0.245533 -0.09807,0.399697 -0.10548,0.168275 -0.224366,0.178506 -0.312208,0.182034 -0.02787,0.0039 -0.11183,0.01023 -0.136525,0.01023 -0.02822,0.0039 -0.05256,0.0074 -0.05256,0.04269 0,0.0381 0.02434,0.0381 0.08396,0.0381 h 0.154164 c 0.287161,0 0.417336,0.238478 0.417336,0.582084 0,0.47625 -0.242005,0.578202 -0.396169,0.578202 -0.150636,0 -0.413456,-0.05962 -0.536575,-0.266347 0.123119,0.01693 0.231775,-0.05962 0.231775,-0.192969 0,-0.126295 -0.0949,-0.196145 -0.196497,-0.196145 -0.08431,0 -0.196145,0.04904 -0.196145,0.2032 0,0.318559 0.325967,0.550334 0.707672,0.550334 0.42792,0 0.746478,-0.319264 0.746478,-0.676275" />
    </g>
  </g>
</svg>
