<svg xmlns="http://www.w3.org/2000/svg" xmlns:osb="http://www.openswatchbook.org/uri/2009/osb" viewBox="0 0 160 90"><defs><linearGradient id="b" gradientTransform="matrix(0 0 0 0 -65.696 198.36)" osb:paint="solid"><stop offset="0" stop-color="#f0f0f0"/></linearGradient><linearGradient id="a"><stop offset="0"/><stop offset="1" stop-opacity="0"/></linearGradient></defs><g fill="url(#b)"><path d="M6.198 55.066c0-.026-.02-.026-.03-.026-.024 0-.027.007-.04.036-.112.27-.25.333-.338.333-.054 0-.08-.034-.08-.12 0-.062.005-.08.015-.125l.193-.766h.244c.052 0 .078 0 .078-.052 0-.029-.026-.029-.073-.029H5.94c.093-.37.106-.421.106-.437 0-.044-.031-.07-.075-.07-.008 0-.08.003-.104.093l-.101.414H5.52c-.052 0-.078 0-.078.05 0 .03.02.03.073.03h.229c-.188.739-.198.783-.198.83 0 .14.099.24.239.24.265 0 .413-.38.413-.401M8.932 54.535c0-.051-.05-.051-.086-.051H7.289c-.037 0-.086 0-.086.051 0 .052.05.052.088.052h1.553c.038 0 .088 0 .088-.052zm0 .505c0-.052-.05-.052-.088-.052H7.29c-.039 0-.088 0-.088.052s.05.052.086.052h1.557c.036 0 .086 0 .086-.052"/></g></svg>