<svg xmlns="http://www.w3.org/2000/svg" xmlns:osb="http://www.openswatchbook.org/uri/2009/osb" viewBox="0 0 160 90"><defs><linearGradient id="b" gradientTransform="matrix(0 0 0 0 -65.696 198.36)" osb:paint="solid"><stop offset="0" stop-color="#f0f0f0"/></linearGradient><linearGradient id="a"><stop offset="0"/><stop offset="1" stop-opacity="0"/></linearGradient></defs><g fill="url(#b)"><path d="M11.001 54.606c0-.208-.013-.417-.104-.609a.482.482 0 0 0-.894.018c-.083.18-.096.383-.096.59 0 .195.01.43.117.627.111.21.302.263.429.263a.48.48 0 0 0 .452-.302c.083-.18.096-.382.096-.587zm-.215-.032c0 .195 0 .372-.029.538-.039.248-.187.326-.304.326-.102 0-.255-.065-.302-.315-.028-.156-.028-.396-.028-.549 0-.166 0-.338.02-.478.05-.31.245-.333.31-.333.086 0 .257.047.306.305.027.145.027.343.027.506M10.895 58.613v-.081h-.083c-.234 0-.242-.029-.242-.125v-1.459c0-.062 0-.067-.06-.067-.161.166-.39.166-.473.166v.081c.052 0 .205 0 .34-.068v1.347c0 .094-.007.125-.242.125h-.083v.08c.091-.007.318-.007.422-.007.104 0 .33 0 .421.008M11 61.335h-.066c-.013.078-.031.192-.057.232-.019.02-.19.02-.247.02h-.468l.275-.267c.406-.36.562-.5.562-.76 0-.296-.234-.504-.551-.504a.48.48 0 0 0-.486.47c0 .146.13.146.137.146.045 0 .135-.031.135-.138a.131.131 0 0 0-.137-.135c-.021 0-.026 0-.034.003.06-.17.2-.265.35-.265.238 0 .35.21.35.423 0 .208-.13.414-.274.575l-.499.556c-.028.029-.028.034-.028.097h.964l.073-.453M11.02 64.518c0-.213-.164-.416-.434-.47.213-.071.364-.253.364-.458 0-.213-.23-.36-.479-.36-.262 0-.46.157-.46.354 0 .086.057.136.133.136.08 0 .132-.057.132-.133 0-.13-.122-.13-.161-.13.08-.127.252-.16.346-.16.106 0 .25.056.25.29a.651.651 0 0 1-.073.297c-.079.125-.167.132-.232.135-.02.003-.083.007-.101.007-.021.003-.04.006-.04.032 0 .028.019.028.063.028h.114c.214 0 .31.177.31.432 0 .353-.18.43-.294.43-.112 0-.307-.045-.398-.199.091.013.172-.044.172-.143 0-.093-.07-.145-.146-.145-.062 0-.145.036-.145.15 0 .237.242.409.525.409.317 0 .554-.237.554-.502M11.056 67.709v-.081h-.26v-1.183c0-.052 0-.068-.041-.068-.024 0-.031 0-.052.032l-.799 1.219v.08h.692v.227c0 .093-.005.122-.198.122h-.054v.08c.106-.007.242-.007.35-.007.11 0 .248 0 .354.008v-.081h-.054c-.193 0-.198-.029-.198-.122v-.226zm-.444-.081h-.635l.635-.97zM11 70.79c0-.31-.214-.57-.495-.57a.458.458 0 0 0-.33.133v-.507a.83.83 0 0 0 .22.034c.32 0 .503-.237.503-.27 0-.016-.008-.03-.027-.03 0 0-.007 0-.02.009a.862.862 0 0 1-.7.002c-.02-.007-.03-.007-.03-.007-.027 0-.027.02-.027.062v.77c0 .046 0 .067.036.067.019 0 .024-.007.034-.023.029-.042.125-.182.336-.182.135 0 .2.12.22.166a.798.798 0 0 1 .048.328c0 .09 0 .247-.063.356a.325.325 0 0 1-.278.17.406.406 0 0 1-.382-.292c.007.002.015.005.044.005.086 0 .13-.065.13-.127a.125.125 0 0 0-.13-.128c-.037 0-.127.019-.127.138 0 .224.18.476.47.476.302 0 .567-.25.567-.58"/></g></svg>